<svg xmlns="http://www.w3.org/2000/svg" id="Camada_1" data-name="Camada 1" viewBox="0 0 300.39 795.55"><defs><style>.cls-1{fill:#974f32}.cls-2{fill:#010101}.cls-3{fill:#4f190d}.cls-6{fill:#080606}.cls-9{fill:#e8e7e7}.cls-12{fill:#282e69}.cls-13{fill:#9a3728}.cls-14{fill:#af6445}</style></defs><path d="M54.05 283.67c-13.85-14.46-34-14.16-40.66-.6-5.88 12 4.21 36.45 23.49 41.27A30.22 30.22 0 0 0 67.31 315Z" class="cls-1"/><path d="M70.59 262.34c3.38 1.53 6.67 3.23 10.37 3.81.63.1.9-.86.26-1-3.62-.58-6.82-2.22-10.12-3.72-.58-.26-1.09.6-.51.87Z" class="cls-2"/><path d="M23.43 292.31a5.49 5.49 0 0 1 2-3.56 6.21 6.21 0 0 1 4-1c4 .19 7.73 2.78 10.43 5.58a29.38 29.38 0 0 1 5.23 7.72c.28.58 1.14.07.86-.51-2.3-4.82-5.82-9.34-10.57-12-2.95-1.63-7-2.79-10.15-.86a6.32 6.32 0 0 0-2.78 4.36c-.12.63.85.9 1 .26Z" class="cls-3"/><path d="M63.19 154.11c-2.29 4.62-3.14 9.9-3.56 15a74.25 74.25 0 0 0 .46 16.59 36.33 36.33 0 0 0 1.69 7.21c.22.6 1.19.34 1-.26a47 47 0 0 1-2.28-13.82 67.71 67.71 0 0 1 1.12-16.57 31.59 31.59 0 0 1 2.47-7.64c.28-.57-.58-1.08-.86-.5Zm24.35-19.76c-3.43 9.31-4.59 19.18-4.89 29.05-.08 2.86-.1 5.72-.1 8.58a.5.5 0 0 0 1 0c0-9.83.25-19.75 2.53-29.36a72.37 72.37 0 0 1 2.42-8c.22-.6-.74-.86-1-.26Zm-44.74 48.8c-1.7 9.42-1.81 19-1.48 28.58.08 2.4.12 4.8.41 7.18s.74 4.82 1.1 7.23c.39 2.6.51 5.23.8 7.85a21 21 0 0 0 .41 3.06c.09.36.38.76.81.51s.29-.64.29-1a.5.5 0 0 0-1 0 1.93 1.93 0 0 0 0 .34c0 .12 0 0 0 0 0 .13 0 .05.21-.26l.39-.05c.28.11.28.43.27.15a2.53 2.53 0 0 0-.07-.38c-.06-.38-.11-.76-.15-1.13-.13-1.07-.25-2.14-.35-3.2-.07-.83-.15-1.66-.19-2.49a50.89 50.89 0 0 0-.74-5.64c-.36-2.2-.74-4.39-.94-6.6s-.2-4.3-.27-6.45c-.13-4.34-.17-8.69 0-13a103.15 103.15 0 0 1 1.48-14.46c.11-.63-.85-.9-1-.26Z" class="cls-2"/><ellipse cx="173.02" cy="770.25" rx="125.92" ry="25.3" style="fill:#6c6c6b"/><path d="M190.09 232.46c-17.48-1.8-38-23.49-25.31-38.56-27.71-18.07-17.47-42.77 2.41-45.18-24.1-25.91.83-46.92 17.1-46.32-16.72-28 19.35-49.78 33.06-39.69-7.76-29 41.42-42.92 51.66-22.44 9.64-20.48 48.8-23.5 54.22 1.81C337.69 27 366 34.25 366 54.73c18.08-10.85 46.4 4.22 35.55 30.73 22.89 0 43.38 21.68 23.5 47 25.9 6 30.12 41 7.23 45.79 22.29 16.27 5.42 45.79-23.5 43.38-1.2 34.37-201.22 76.5-218.69 10.83Z" style="stroke:#161616;stroke-miterlimit:10;fill:#010101" transform="translate(-147.33 -23.5)"/><path d="M205.53 614.09c5.63 40.76-2.29 108.08-.44 123.33s17.48 20.34 24.39 28.61.13 13.64-14.19 8.09-28.41-9.89-32.31-13.7c-1.37-1.35-2.91-4-5.2-19.24s-12.43-80.68-17.47-120.68c.75-14.31 45.22-6.41 45.22-6.41Z" class="cls-1"/><path d="M191.07 747c3.53-2.33 8.7-7.25 14.47-7.07a21.91 21.91 0 0 0 2.57 6.23c-5.66.13-11.59 3.51-11.57 6s10.55 8.73 19.52 2.78c4.83 4 10.12 7.2 13.42 11.14 6.92 8.27.13 13.64-14.19 8.09s-28.41-9.89-32.31-13.7c-1.17-1.16-2.48-3.33-4.27-13.49 2.85-.76 8.88 2.33 12.36.02Z" class="cls-6"/><path d="M104.28 616.17c1.36 41.11 14.46 106.18 14.46 121.55s-14.91 22.29-20.78 31.33 1.51 13.55 15.06 6.32 27-13.22 30.43-17.47c1.2-1.51 2.4-4.37 2.86-19.73s5.87-76.82 4.06-117c-3.16-14.04-46.09-5-46.09-5Z" class="cls-1"/><path d="M214 500.51c-15.06-38.31 6.33-96.75 88.26-98.37 104.54 2.6 88.27 78.25 88.27 78.25a184.27 184.27 0 0 0-25.61-5.85c3.31 17.53.61 27.27 1.21 29.55S399.37 627.46 403 663.5c-11 8.76-12.35-3.41-28.17 2s-20.63 5.84-31.48 0-19.88-3.9-33.89 1.94-25.3-.48-33.43-1-19 4.87-33.44 5.36-20.34-5.36-28.92-4.87c.45-11.69 18.52-134.42 27.56-158.77a53.17 53.17 0 0 1 8-26.46s-22.62 11.02-35.23 18.81Z" style="fill:#1c4e9d" transform="translate(-147.33 -23.5)"/><path d="M273.66 375.33c-.54 11.29-.29 20.77 0 30.27.72 24.25 51.76 22.14 51.76 0s-1.62-29.82-1.62-29.82Z" style="fill:#833c20" transform="translate(-147.33 -23.5)"/><path d="M253.18 281.86c13.85-14.46 34-14.16 40.66-.6 5.88 12-4.22 36.45-23.49 41.27a30.22 30.22 0 0 1-30.43-9.34Z" class="cls-1"/><path d="M151.05 110.16c-68.13 1.43-123.94 63.88-113.26 130.73 14.53 91.05 33.73 106 65.67 118.69s121 12.52 144.06-34.41c22.6-46.09 34.27-100.54 17.4-142.72s-56.63-73.5-113.87-72.29Z" class="cls-1"/><path d="M86.51 261.5c-6.78 6.1-11.52 16.72-6.32 27.56s14.91 12.47 23.49 12.2c12.35-.38 26.44-15.89 11.75-38-8.76-10.62-25.08-4.67-28.92-1.76Z" class="cls-9"/><path d="M149.45 300.86a12.87 12.87 0 0 1-3-3.59 3.54 3.54 0 0 1-.39-2.57c.48-1.66 2.56-2.48 4.26-2.86a17.34 17.34 0 0 1 7.28 0c2 .4 4.33 1.19 5.57 2.83a3.41 3.41 0 0 1 .66 2.73 8.08 8.08 0 0 1-2.15 3.77c-.43.47.27 1.18.7.7 1.68-1.85 3.28-4.47 2.08-7-1-2.11-3.48-3.2-5.61-3.77a19.06 19.06 0 0 0-8.06-.38c-2 .34-4.49 1.14-5.46 3.1-1.2 2.43.7 5 2.32 6.71.35.36.7.7 1.07 1s1.19-.27.71-.71Z" class="cls-3"/><path d="M88.49 228.2a38.2 38.2 0 0 1 12.3 5.35c3.63 2.27 7.08 4.83 10.85 6.89a31.92 31.92 0 0 0 6.52 2.74.518.518 0 0 0 .27-1c-8.36-2.39-14.73-8.82-22.47-12.5a32.22 32.22 0 0 0-7.21-2.49c-.62-.13-.89.84-.26 1Zm100.58 15.06c3.82-.85 7.22-2.89 10.48-5 3.62-2.31 7.2-4.73 11.21-6.32a29.08 29.08 0 0 1 8-1.95c.63-.06.64-1.06 0-1a33.54 33.54 0 0 0-13.18 4.35c-3.64 2-7 4.55-10.67 6.54a23.93 23.93 0 0 1-6.11 2.38c-.62.14-.36 1.11.27 1Zm-93.4 21.13c-14.49 3.43-15.78 30.05 3.48 33.52 28.33 5.11 26.29-40.59-3.48-33.52Z" class="cls-2"/><path d="M191.14 303.86c12.43 14.46 9-13.86 5-31.93-1.81-9.94 7.6-8.31 11.3-22.3 2-7.68-2.94-18.75 3.39-24.62 12.42-.68 17.39-20.11 19.65-22.67 10.4 9.11 26.44-12.13 29.37-13 16.5 3.84 31.63-3.84 37.06-9.26 4.74 3.16 15.59 13 38.41 4.22 5.87 9.94 16.71 18.75 30.72 14 5.42 16.5 10.85 19.66 23.05 21.69 5.87 3.84-4.3 20.56 12.65 25.53-.23 2.26-5.65 16 1.13 20.79s6.55 5.65 5 11.29-5.87 27.34.9 27.34 10.4-19.65 13.33-38.63 3.77-77.5-49.55-113.35-113.87-23.19-155.74 10.85-39.39 67.42-37.89 94.06c1.3 23.92 9.08 41.62 12.22 45.99Z" style="fill:#161616" transform="translate(-147.33 -23.5)"/><path d="M43.46 280.71c1.42 1.64 4.45 5.25 7 3.82 2.31-1.27 2.38-5.23 2.47-7.47a80.46 80.46 0 0 0-1-14.2c-.38-2.72-.84-5.44-1.35-8.15a77.45 77.45 0 0 1-1.49-7.64 7.83 7.83 0 0 1 1.19-5.15 27.16 27.16 0 0 1 3.5-3.85 24.69 24.69 0 0 0 7-13.15c.91-5.57-.82-11.21 0-16.79a11.63 11.63 0 0 1 1.27-4 8.3 8.3 0 0 1 1.17-1.66c.45-.47.75-.45 1.38-.54a13.33 13.33 0 0 0 5.77-2.38c6.53-4.64 8.9-12.43 12.41-19.21a5.47 5.47 0 0 1 .67-1.11h-.71c7.41 6.35 16.93-1.33 22.58-6.41 1.51-1.36 3-2.77 4.45-4.17.54-.5 1.08-1 1.64-1.49a3.56 3.56 0 0 1 1.13-.81 2.48 2.48 0 0 1 .67.18c.5.11 1 .2 1.52.28.9.15 1.81.28 2.72.37a41.22 41.22 0 0 0 5.88.17 44.91 44.91 0 0 0 10.54-1.74c5.75-1.67 11.69-4.41 16-8.67l-.61.08a55.92 55.92 0 0 0 8.88 5.34 32.91 32.91 0 0 0 16.36 2.32 53 53 0 0 0 13.56-3.39l-.57-.23c3.09 5.17 7.29 9.88 12.64 12.77a23.34 23.34 0 0 0 18.65 1.47l-.61-.35c1.69 5.12 3.69 10.46 7.25 14.61a20.53 20.53 0 0 0 10.25 6.13c1.12.31 2.25.57 3.39.8 1 .19 2.27.15 3 .91a6.37 6.37 0 0 1 1.24 3.93c.24 3.72-.26 7.47.6 11.15 1.23 5.3 5.29 8.47 10.35 10l-.37-.48a27.8 27.8 0 0 1-.87 3.46 50.5 50.5 0 0 0-1.14 5.6c-.49 3.62-.54 7.95 2 10.89s7.7 4.19 6.95 8.79c-.26 1.57-.8 3.09-1.18 4.64s-.71 3.12-1 4.69a76.28 76.28 0 0 0-1.43 11.43c-.1 2.8-.24 6.51 1.49 8.92 1.43 2 4 1.68 5.7.21 2.84-2.44 4.15-6.71 5.22-10.16a144.6 144.6 0 0 0 4-17.93c.73-4.18 1.47-8.38 2-12.6a112.9 112.9 0 0 0 .68-15.92 124.83 124.83 0 0 0-9.26-44.73 112.13 112.13 0 0 0-36.23-46.51 125.12 125.12 0 0 0-66.86-25.16c-22.61-1.43-45.28 3.68-65.59 13.55a151.85 151.85 0 0 0-28.11 17.78c-9.75 7.77-18.69 16.74-25.58 27.17a84.1 84.1 0 0 0-11.62 26.51 104.11 104.11 0 0 0-2.64 24.69c0 19.12 1.83 38.81 9.47 56.53a35.87 35.87 0 0 0 3.53 6.72c.37.52 1.24 0 .86-.51a35.42 35.42 0 0 1-3.57-6.82 98.18 98.18 0 0 1-4.33-12.57c-2.89-10.48-4.06-21.15-4.62-32a159.75 159.75 0 0 1 .16-23 85.44 85.44 0 0 1 6.26-25.36c8.93-21.06 26.58-37.61 45.57-49.76 18.63-11.92 40-19.79 62.09-21.68a121.19 121.19 0 0 1 67.23 13.85c19.11 10.16 35.6 25 46.51 43.74a118.48 118.48 0 0 1 14.95 46.22 125.74 125.74 0 0 1 .74 18.61 132.62 132.62 0 0 1-1.91 17.08c-1 6.12-2.08 12.24-3.64 18.25-1.08 4.14-2.27 9-5.05 12.36-1.55 1.89-4.26 2.9-5.52.19-1.35-2.87-1-6.64-.79-9.71a86 86 0 0 1 1.67-11.17c.27-1.29.56-2.57.9-3.84a18.28 18.28 0 0 0 1-4.89c-.05-4-4.63-5.55-7-8-2.87-2.92-2.5-7.8-1.87-11.5.46-2.72 1.54-5.38 1.86-8.11a.5.5 0 0 0-.37-.48c-4.69-1.41-8.44-4.28-9.62-9.19-.87-3.62-.35-7.32-.59-11a8.83 8.83 0 0 0-1-3.88 3.8 3.8 0 0 0-1.24-1.34 13 13 0 0 0-3.26-.69c-4.05-.85-8.06-2.19-11.16-5-4.44-4.09-6.67-10.17-8.52-15.75a.5.5 0 0 0-.61-.35 22.35 22.35 0 0 1-18.18-1.53 33.13 33.13 0 0 1-12-12.25.52.52 0 0 0-.57-.23c-6.83 2.62-14.24 4.28-21.58 3.26a31.21 31.21 0 0 1-12.42-4.67c-1.37-.87-2.67-1.85-4-2.76a.52.52 0 0 0-.61.08c-3.72 3.68-8.73 6.15-13.63 7.81a42.28 42.28 0 0 1-21.62 1.61c-.86-.17-1.43-.45-2.18 0a9.45 9.45 0 0 0-1.18.93c-1.22 1-2.37 2.2-3.54 3.31a58.9 58.9 0 0 1-10.4 8.29c-4.13 2.39-9.18 3.75-13.16.34a.5.5 0 0 0-.71 0 11.36 11.36 0 0 0-1.47 2.64c-.7 1.53-1.36 3.08-2.08 4.6a39.2 39.2 0 0 1-6.79 10.69 15.47 15.47 0 0 1-5.2 3.72 11.5 11.5 0 0 1-3 .8 2.84 2.84 0 0 0-1.13.21 5.61 5.61 0 0 0-1.33 1.53c-3.12 4.4-2.11 10.4-1.8 15.41a24.93 24.93 0 0 1-.49 8.31 24.34 24.34 0 0 1-3.58 7.69c-2.05 2.85-5.27 4.92-6.91 8-2 3.78-.27 8.19.48 12.08a146.67 146.67 0 0 1 2.25 15.61 56.46 56.46 0 0 1 .23 7.36 14.18 14.18 0 0 1-.9 5.17c-1.66 3.66-5.48-.71-6.9-2.35-.4-.43-1.1.3-.68.78Z" class="cls-2"/><path d="M242.41 500.22a38.91 38.91 0 0 1 11.74-.78c3.91.27 7.78.9 11.67 1.3 8 .82 16 1 24 1s16.07.53 24.1.06c2.24-.13 4.84-.29 6.87-1.37a11 11 0 0 1 1.16-.63 8.44 8.44 0 0 1 2.5-.41c2.08-.13 4.17-.07 6.26-.08 2.29 0 4.58-.06 6.87-.1 4.58-.09 9.17-.18 13.76-.18a.5.5 0 0 0 0-1c-8.2 0-16.39.24-24.58.29-1.84 0-4-.1-5.72.81a14 14 0 0 1-1.27.68 13.51 13.51 0 0 1-3.08.71 81.5 81.5 0 0 1-12 .48c-4.11 0-8.22-.16-12.33-.23-8-.13-16.05-.11-24.07-.81-7.69-.66-15.41-2.41-23.14-1.29q-1.51.22-3 .57c-.62.15-.36 1.12.27 1Z" style="fill:#e8650b" transform="translate(-147.33 -23.5)"/><path d="M119.47 478.82a211.4 211.4 0 0 0-8.15 45.87q-.39 6.49-.31 13a.5.5 0 0 0 1 0 194.75 194.75 0 0 1 5.17-46.07q1.44-6.31 3.25-12.54a.517.517 0 0 0-1-.26Zm13.84-.17a171.32 171.32 0 0 1-2.72 23.23c-.37 2.15-.77 4.31-1.18 6.46-.12.63.84.9 1 .27a239.11 239.11 0 0 0 3.53-23.65q.28-3.15.41-6.31c0-.64-1-.64-1 0Zm38.36-.05c4.14 6.1 5.08 13.67 7 20.62a169.13 169.13 0 0 1 4.94 24.83q.88 7.1 1.21 14.25c0 .64 1 .64 1 0a183.2 183.2 0 0 0-2.94-25.37c-.79-4.21-1.73-8.4-2.85-12.53-1-3.64-1.83-7.31-2.81-10.94a37.49 37.49 0 0 0-4.73-11.37c-.35-.53-1.22 0-.86.51Zm22.25-1.21a94.79 94.79 0 0 1 7.5 23.53 43.57 43.57 0 0 1 .57 6.65.5.5 0 0 0 1 0c0-8.37-2.61-16.71-5.6-24.45q-1.22-3.15-2.6-6.23c-.26-.59-1.13-.08-.87.5Z" class="cls-12"/><path d="M133.81 745.55c-3.79-1.89-9.51-6.16-15.22-5.29a21.83 21.83 0 0 1-1.8 6.49c5.64-.54 11.93 2.1 12.2 4.52s-9.43 9.94-19.05 5.11c-4.31 4.51-9.17 8.35-12 12.67-5.88 9 1.51 13.55 15.06 6.32s27-13.22 30.43-17.47c1-1.29 2.06-3.61 2.62-13.91-2.89-.36-8.51 3.43-12.24 1.56Z" class="cls-6"/><path d="M78.86 272.73a19.33 19.33 0 0 1 4.49-8.44 21.58 21.58 0 0 1 10.13-6 32.31 32.31 0 0 1 8.7-1.12.5.5 0 0 0 0-1 29.21 29.21 0 0 0-14.33 3.33 20.68 20.68 0 0 0-7.92 7.83 19.88 19.88 0 0 0-2 5.15c-.16.62.81.89 1 .26Z" class="cls-2"/><path d="M222.82 261.5c6.78 6.1 11.53 16.72 6.33 27.56s-14.92 12.47-23.5 12.2c-12.35-.38-26.43-15.89-11.75-38 8.82-10.62 25.08-4.67 28.92-1.76Z" class="cls-9"/><path d="M212.67 265.37c14.15 4.68 17.35 27.79-1.81 31.79-25.42 5.34-29.19-42.03 1.81-31.79Zm18.77 7.13a20.2 20.2 0 0 0-4.75-8.88 22.57 22.57 0 0 0-10.57-6.3 33 33 0 0 0-9-1.16.5.5 0 0 0 0 1 28.21 28.21 0 0 1 13.82 3.22 19.73 19.73 0 0 1 7.56 7.47 19 19 0 0 1 1.93 4.91.517.517 0 0 0 1-.26Z" class="cls-2"/><path d="M227.93 265.55a18.16 18.16 0 0 0 5.28-2.12c1.73-.95 3.38-2 5.08-3.05a.5.5 0 0 0-.51-.86c-1.64 1-3.25 2-4.93 3a17.75 17.75 0 0 1-5.19 2.1c-.63.12-.36 1.08.27 1Z" class="cls-2"/><ellipse cx="99.54" cy="322.23" class="cls-13" rx="17.85" ry="12.88"/><ellipse cx="209.79" cy="321.78" class="cls-13" rx="17.85" ry="12.88"/><path d="M286.87 289.34c-.58-3.51-5.73-3.49-8.38-3.18-4.48.53-8 3.21-10.78 6.6a48.7 48.7 0 0 0-4.35 6.4.5.5 0 0 0 .86.5c2.09-3.57 4.47-7.17 7.76-9.75a13.69 13.69 0 0 1 10.18-2.77c1.53.19 3.45.71 3.74 2.46.11.63 1.07.37 1-.26Z" class="cls-3"/><path d="M116.51 122.93c-2.89 5.85-3.14 12.52-3.24 18.91-.06 4-.78 8-.8 12a16.68 16.68 0 0 0 .19 2.91 2.22 2.22 0 0 0 .86 1.61c.57.31 1.07-.56.51-.87-.09 0-.13-.09-.22-.3a3.81 3.81 0 0 1-.2-.79 15.17 15.17 0 0 1-.14-2.43c0-2.14.18-4.29.36-6.42.16-1.79.36-3.59.43-5.39.11-2.8.08-5.58.39-8.37a30.66 30.66 0 0 1 2.72-10.4c.28-.58-.58-1.09-.86-.51Zm31.56-5.62a191.59 191.59 0 0 1 1.52 25.45q0 3.54-.17 7.08c0 .65 1 .64 1 0a194.6 194.6 0 0 0-.59-25.44c-.2-2.37-.46-4.73-.76-7.09-.09-.63-1.09-.64-1 0Zm33.5 2.06c4 8.7 4.11 18.6 4.06 28 0 2.63-.06 5.27-.06 7.91a.5.5 0 0 0 1 0c0-9.61.58-19.4-1.6-28.84a40.31 40.31 0 0 0-2.53-7.57c-.27-.58-1.13-.07-.87.51Zm29.37 8.13c4.53 9.79 6.37 20.54 6.94 31.25.16 3.05.22 6.11.22 9.17a.5.5 0 0 0 1 0c0-10.87-.8-21.89-4-32.33a69.67 69.67 0 0 0-3.28-8.59c-.27-.59-1.14-.08-.87.5ZM238 147.72c2.39 10.23 4.09 20.71 3.84 31.24a77 77 0 0 1-.67 8.71c-.09.63.87.9 1 .26 1.43-10.46.6-21.05-1.27-31.41-.55-3-1.19-6.06-1.89-9.07-.15-.63-1.11-.36-1 .27Zm18.08 21.69c1.4 8.39 3.18 16.72 3.67 25.24.34 5.95-.95 11.88-1.52 17.79-.11 1.08-.2 2.15-.34 3.22-.05.33-.1.65-.17 1 0 0-.05.1 0 .14s.19-.07.41-.05l.36.05a.59.59 0 0 0 0-.19c-.13-.63-1.1-.37-1 .26s.77 1.05 1.14.36a5.89 5.89 0 0 0 .38-2.08c.24-2.06.33-4.14.66-6.19.24-1.46.38-2.93.55-4.41.26-2.17.52-4.36.61-6.55a72.51 72.51 0 0 0-1.16-13.5c-.76-5.14-1.79-10.24-2.65-15.37-.1-.63-1.07-.36-1 .27Zm14.89 36.46c0 11.27.08 22.92-3.37 33.77a38.68 38.68 0 0 1-3.79 8.46l.93.25c.06-.47.4-.87.45-1.36s-.92-.63-1 0-.39.87-.45 1.36.7.64.93.25a46.12 46.12 0 0 0 5.63-15.73 110.09 110.09 0 0 0 1.59-17.48c.08-3.17.08-6.34.08-9.52a.5.5 0 0 0-1 0Z" class="cls-2"/><path d="M75.37 464.57c8.13-5 31.63-20 31.63-20 4.21 7.22 15.06 18.37 15.06 18.37 15.36-10.24 56-19.27 81-11.74 5.73 16.27 3 14.76 3 14.76-22.6 5.72-72 45.18-97 35.54s-33.69-36.93-33.69-36.93Z" class="cls-1"/><path d="M103.12 417.7a82 82 0 0 0 4.8 13.46c1.19 2.59 2.66 5.07 3.73 7.71a11 11 0 0 1 .87 3.33l.25-.43-4.54 2.73-10.89 6.59-13.17 8-11.34 6.86-3.76 2.27c-.59.36-1.22.69-1.79 1.08l-.07.05c-.55.33 0 1.2.5.86l4.54-2.74 10.89-6.59 13.17-8 11.36-6.85 3.76-2.27c.59-.36 1.22-.68 1.78-1.08l.08-.05a.5.5 0 0 0 .25-.43 17.47 17.47 0 0 0-2.2-6.4c-1.59-3.18-3.18-6.35-4.45-9.68a85.07 85.07 0 0 1-2.78-8.68.517.517 0 0 0-1 .26Z" class="cls-12"/><path d="M140.67 335.01a20.41 20.41 0 0 1 9.7-12.51 14.45 14.45 0 0 1 7.48-1.93 13.25 13.25 0 0 1 7.8 3.05c3.63 2.93 6 7.18 7.74 11.43.24.59 1.21.33 1-.26-2.72-6.7-7.46-14.11-15.27-15.11-5.71-.74-11.21 2.37-14.85 6.59a21.26 21.26 0 0 0-4.51 8.44.517.517 0 0 0 1 .26Z" class="cls-3"/><path d="M134.86 456.66c-6.32-6.32-27-16.57-44.13-7.23-4.52 3.32-.9 8.13 3 6.63-6.93 4.82-3.31 7.83 2.71 6-4.52 4.82.26 7.47 6.37 4.74 6.59-2.93 14.42-.52 14.42-.52Z" class="cls-14"/><path d="M93.99 456.5c2.08-1.53 4.9-2.12 7.38-2.59a40.92 40.92 0 0 1 10.77-.59 25.48 25.48 0 0 1 5.87 1.12c.61.2.88-.76.27-1a30.87 30.87 0 0 0-10.94-1.24 38.9 38.9 0 0 0-10.22 1.7 12.43 12.43 0 0 0-3.63 1.7c-.51.37 0 1.24.5.86Zm2.68 6a41.76 41.76 0 0 1 9.72-3 28 28 0 0 1 9.77-.58c.63.11.9-.86.27-1a28.74 28.74 0 0 0-10.12.54 43.52 43.52 0 0 0-10.15 3.12c-.58.27-.07 1.14.51.87Z" class="cls-3"/><path d="M231.96 470.68c2.41 5.26 9.53 12.17 1 12.82.77 5.32-4.71 6.74-7 4.55-2.3 7.34-6.46 4.44-10.13-3.23-5.32-11.15 16.13-14.14 16.13-14.14Z" class="cls-14"/><path d="M160.01 488.9c13 9.34 33.14 13.85 47 7.53s30.8-16.5 27.86-46.55a327 327 0 0 0-32.68-5c-2.11 7.83-5.12 21.39-5.12 21.39s-20.79 8.77-37.06 22.63Z" class="cls-1"/><path d="M202.06 445.86a17.92 17.92 0 0 0-1 3c-.49 1.66-.93 3.34-1.36 5-.89 3.43-1.73 6.87-2.55 10.32l-.54 2.26.35-.35a36.2 36.2 0 0 0-6.84 2.85c-3 1.51-5.91 3.17-8.78 4.88-6 3.58-11.89 7.4-17.66 11.36-2.12 1.45-4.24 2.92-6.3 4.46-.51.38 0 1.25.51.86 4.34-3.25 8.88-6.26 13.42-9.23 5.9-3.84 11.88-7.6 18.13-10.86a39.75 39.75 0 0 1 7.79-3.36.5.5 0 0 0 .35-.34c1.32-5.65 2.66-11.31 4.24-16.89a22.89 22.89 0 0 1 1.13-3.48c.28-.58-.58-1.08-.86-.51Z" class="cls-3"/><path d="M199.8 420.5a34.21 34.21 0 0 1-2.57 9.78 45.65 45.65 0 0 0-2.91 8 29.88 29.88 0 0 0-.65 6.22.51.51 0 0 0 .5.5c3.32.33 6.63.71 10 1.1 6.93.81 13.85 1.7 20.74 2.77 3.75.58 7.49 1.21 11.2 2 .63.13.9-.83.27-1-6.87-1.43-13.83-2.43-20.79-3.36-5.94-.8-11.91-1.51-17.87-2.16-1.17-.13-2.33-.26-3.5-.37l.5.5a27.22 27.22 0 0 1 1.77-9.82c1-2.67 2.32-5.23 3.15-8a33.07 33.07 0 0 0 1.18-6.15c.07-.64-.93-.64-1 0Z" class="cls-12"/><path d="M114.58 469.55a58.09 58.09 0 0 1 8.41-5.66 87.88 87.88 0 0 1 12.8-6 76.65 76.65 0 0 1 8.5-2.64c.63-.15.36-1.12-.26-1a83.11 83.11 0 0 0-26 11.5 47 47 0 0 0-4.19 3.08c-.49.42.22 1.12.71.71Zm75.59-2.83a17.76 17.76 0 0 1 6.21.19 16.68 16.68 0 0 1 5.15 1.79.5.5 0 0 0 .51-.86 19.14 19.14 0 0 0-12.13-2.08c-.64.1-.37 1.06.26 1Z" class="cls-3"/></svg>