<?xml version="1.0" encoding="UTF-8" standalone="no"?>
<svg
   id="Camada_1"
   data-name="Camada 1"
   viewBox="0 0 404.99999 807.00001"
   version="1.1"
   sodipodi:docname="Luluzinha-tonta.svg"
   inkscape:version="1.3 (0e150ed6c4, 2023-07-21)"
   inkscape:export-filename="luluzinha-tonta.png"
   inkscape:export-xdpi="96"
   inkscape:export-ydpi="96"
   width="405"
   height="807"
   xmlns:inkscape="http://www.inkscape.org/namespaces/inkscape"
   xmlns:sodipodi="http://sodipodi.sourceforge.net/DTD/sodipodi-0.dtd"
   xmlns="http://www.w3.org/2000/svg"
   xmlns:svg="http://www.w3.org/2000/svg">
  <sodipodi:namedview
     id="namedview4304"
     pagecolor="#ffffff"
     bordercolor="#000000"
     borderopacity="0.25"
     inkscape:showpageshadow="2"
     inkscape:pageopacity="0.0"
     inkscape:pagecheckerboard="0"
     inkscape:deskcolor="#d1d1d1"
     showgrid="false"
     inkscape:zoom="0.45952387"
     inkscape:cx="-235.02588"
     inkscape:cy="401.50254"
     inkscape:window-width="1360"
     inkscape:window-height="731"
     inkscape:window-x="0"
     inkscape:window-y="0"
     inkscape:window-maximized="1"
     inkscape:current-layer="Camada_1" />
  <defs
     id="defs4177">
    <style
       id="style4175">.cls-1,.cls-9{fill:#010101;}.cls-1{stroke:#161616;stroke-miterlimit:10;}.cls-2{fill:#6c6c6b;}.cls-3{fill:#974f32;}.cls-4{fill:#080606;}.cls-5{fill:#1c4e9d;}.cls-6{fill:#833c20;}.cls-7{fill:#e8e7e7;}.cls-8{fill:#4f190d;}.cls-10{fill:#27306b;}.cls-11{fill:#282e69;}.cls-12{fill:#9a3728;}.cls-13{fill:#2e100d;}.cls-14{fill:#161616;}</style>
  </defs>
  <ellipse
     class="cls-2"
     cx="157.88"
     cy="770.32001"
     rx="125.56"
     ry="25.23"
     id="ellipse4181" />
  <path
     class="cls-3"
     d="m 64.61,427.73 c -22.08,25.23 -52.27,71.19 22.07,106.77 8.56,-18 13.07,-30.19 13.07,-30.19 -24.33,-10.81 -30.64,-23 -4,-63.08 -4.11,-9.44 -31.14,-13.5 -31.14,-13.5 z"
     id="path4183" />
  <path
     class="cls-3"
     d="m 242.14,427.73 c 23,35 48.36,65.19 -26,100.78 a 122.63,122.63 0 0 1 -10.51,-33.64 c 24.33,-10.82 32,-13.52 5.41,-53.62 4.06,-9.46 31.1,-13.52 31.1,-13.52 z"
     id="path4185" />
  <path
     class="cls-3"
     d="m 110.41,615.33 c 1.66,41 14.91,105.77 15,121.09 0.09,15.32 -14.27,22.35 -19.89,31.41 -5.62,9.06 1.58,13.5 14.66,6.18 13.08,-7.32 26.08,-13.41 29.34,-17.67 1.16,-1.51 2.3,-4.37 2.61,-19.7 0.31,-15.33 5.06,-76.64 3,-116.73 -3.18,-13.94 -44.72,-4.58 -44.72,-4.58 z"
     id="path4187" />
  <path
     class="cls-4"
     d="m 141.17,744.1 c -3.79,-1.85 -9.54,-6.06 -15.22,-5.14 a 21.8,21.8 0 0 1 -1.74,6.48 c 5.62,-0.59 11.91,2 12.2,4.41 0.29,2.41 -9.31,10 -18.95,5.25 -4.26,4.53 -9.08,8.4 -11.84,12.73 -5.78,9.06 1.61,13.5 15.07,6.18 13.46,-7.32 26.84,-13.41 30.19,-17.68 1,-1.29 2,-3.61 2.5,-13.88 -2.9,-0.34 -8.47,3.48 -12.21,1.65 z"
     id="path4189" />
  <path
     class="cls-3"
     d="m 201.03,614.73 c -0.56,41 -11.44,106 -11.19,121.36 0.25,15.36 13.95,22 19.45,31 5.5,9 -1.15,13.54 -13.62,6.49 -12.47,-7.05 -24.84,-12.85 -28,-17 -1.13,-1.48 -2.27,-4.32 -2.93,-19.63 -0.66,-15.31 -6.61,-76.52 -5.62,-116.64 2.65,-14.07 41.91,-5.58 41.91,-5.58 z"
     id="path4191" />
  <path
     class="cls-4"
     d="m 176.63,747.79 c 3.75,-1.94 8.78,-6 14.49,-5.25 0.3,2.34 1.58,4.22 2.49,6.19 -5.62,-0.45 -11.85,2.27 -12.08,4.69 -0.23,2.42 10.09,9.28 19.61,4.33 4.37,4.43 8.72,8.67 11.58,12.93 6,8.93 -1.29,13.54 -14.92,6.53 -13.63,-7.01 -27.14,-12.78 -30.59,-17 -1.05,-1.27 -2.12,-3.57 -2.82,-13.83 2.85,-0.36 8.55,3.33 12.24,1.41 z"
     id="path4193" />
  <path
     class="cls-5"
     d="m 52.14,430.5 c 11.42,-9.92 21,-50 96.28,-50.46 89.21,-5 104.68,57.74 104.68,57.74 -6,4 -35.75,15.72 -35.75,15.72 3.31,17.87 -0.9,26.31 -0.3,28.62 0.6,2.31 33.19,125.68 36.8,162.38 -11,8.94 -12.32,-3.47 -28.09,2 -15.77,5.47 -20.57,6 -31.39,0 -10.82,-6 -19.82,-4 -33.79,2 -13.97,6 -25.23,-0.49 -33.34,-1 -8.11,-0.51 -18.93,5 -33.35,5.46 -14.42,0.46 -20.27,-5.46 -28.83,-5 0.45,-11.92 18.47,-137 27.48,-161.8 0.45,-15.89 -0.45,-34.25 -0.45,-34.25 0,0 -21.38,-1.6 -39.95,-21.41 z"
     id="path4195"
     style="fill:#1c4e9d;fill-opacity:1" />
  <path
     class="cls-6"
     d="m 127.59,352.5 c -0.54,11.27 -0.28,20.72 0,30.19 0.72,24.18 51.61,22.08 51.61,0 0,-22.08 -1.61,-29.74 -1.61,-29.74 z"
     id="path4197" />
  <path
     class="cls-10"
     d="m 92.24,415.26 c 0,9.44 0.18,18.87 0.26,28.31 q 0,4 0,8 a 0.5,0.5 0 0 0 1,0 c 0,-9.38 -0.18,-18.77 -0.26,-28.15 0,-2.73 0,-5.46 0,-8.2 a 0.5,0.5 0 0 0 -1,0 z"
     id="path4219"
     style="fill:#282e69;fill-opacity:1" />
  <path
     class="cls-10"
     d="m 93.73,476.12 a 39,39 0 0 1 11.7,-0.78 c 3.9,0.28 7.76,0.91 11.64,1.3 8,0.82 15.93,0.95 23.92,1 7.99,0.05 16,0.53 24,0.06 4.06,-0.24 8.11,-0.89 12.15,-1.36 4.04,-0.47 8.06,-0.88 12.11,-1 4.58,-0.18 9.16,-0.1 13.74,-0.19 4.58,-0.09 9.15,-0.18 13.72,-0.18 a 0.5,0.5 0 0 0 0,-1 c -8.17,0 -16.35,0.25 -24.52,0.3 -8.17,0.05 -16.2,1.32 -24.28,2.2 -8.08,0.88 -16.3,0.37 -24.42,0.24 -8.12,-0.13 -16,-0.11 -24,-0.8 -7.66,-0.67 -15.36,-2.41 -23.08,-1.29 -1,0.14 -2,0.34 -3,0.57 -0.63,0.15 -0.36,1.11 0.27,1 z"
     id="path4221"
     style="fill:#282e69;fill-opacity:1" />
  <path
     class="cls-10"
     d="m 118.04,478.21 a 211.15,211.15 0 0 0 -8.12,45.7 q -0.39,6.5 -0.31,13 a 0.5,0.5 0 0 0 1,0 194.26,194.26 0 0 1 5.14,-45.89 q 1.44,-6.31 3.25,-12.55 a 0.51790443,0.51790443 0 0 0 -1,-0.27 z"
     id="path4223"
     style="fill:#282e69;fill-opacity:1" />
  <path
     class="cls-10"
     d="m 131.84,478.05 a 173,173 0 0 1 -2.71,23.22 q -0.56,3.19 -1.17,6.38 c -0.13,0.63 0.84,0.9 1,0.27 a 236.89,236.89 0 0 0 3.51,-23.54 c 0.2,-2.1 0.34,-4.22 0.41,-6.33 a 0.5,0.5 0 0 0 -1,0 z"
     id="path4225"
     style="fill:#282e69;fill-opacity:1" />
  <path
     class="cls-11"
     d="m 170.06,478 c 4.14,6.11 5.09,13.71 7.05,20.67 a 167.88,167.88 0 0 1 4.91,24.76 q 0.87,7 1.19,14.09 c 0,0.64 1,0.65 1,0 a 182.22,182.22 0 0 0 -2.97,-25.29 q -1.16,-6.19 -2.78,-12.28 c -1,-3.66 -1.85,-7.35 -2.84,-11 a 37.58,37.58 0 0 0 -4.69,-11.45 c -0.36,-0.53 -1.23,0 -0.87,0.51 z"
     id="path4227"
     style="fill:#282e69;fill-opacity:1" />
  <path
     class="cls-10"
     d="m 192.29,476.8 a 94.54,94.54 0 0 1 7.47,23.41 43.94,43.94 0 0 1 0.57,6.67 0.5,0.5 0 0 0 1,0 c 0,-8.36 -2.61,-16.7 -5.6,-24.43 -0.81,-2.07 -1.67,-4.13 -2.58,-6.16 -0.26,-0.59 -1.12,-0.08 -0.86,0.51 z"
     id="path4229"
     style="fill:#282e69;fill-opacity:1" />
  <path
     class="cls-10"
     d="m 211.81,410.11 a 38.61,38.61 0 0 1 3.27,13.08 126.74,126.74 0 0 1 0.37,14.19 c 0,2.54 -0.1,5.08 -0.1,7.62 a 0.5,0.5 0 0 0 1,0 c 0,-9.4 0.8,-19 -1.26,-28.27 a 33.09,33.09 0 0 0 -2.41,-7.13 c -0.28,-0.58 -1.14,-0.07 -0.87,0.51 z"
     id="path4231"
     style="fill:#282e69;fill-opacity:1" />
  <path
     class="cls-8"
     d="m 228.47,475.24 c 3.53,0 7,-0.88 10.51,-0.9 a 0.5,0.5 0 0 0 0,-1 c -3.53,0 -7,0.89 -10.51,0.9 a 0.5,0.5 0 0 0 0,1 z"
     id="path4275" />
  <path
     class="cls-8"
     d="m 65.31,481.5 a 24.6,24.6 0 0 1 10.56,-2.63 0.5,0.5 0 0 0 0,-1 25.71,25.71 0 0 0 -11.07,2.77 c -0.57,0.28 -0.07,1.15 0.51,0.86 z"
     id="path4277" />
  <g
     id="g7063"
     transform="rotate(32.908306,154.27902,334.54606)">
    <path
       class="cls-1"
       d="m 190.39,231.87 c -17.42,-1.8 -37.85,-23.43 -25.23,-38.45 -27.64,-18 -17.42,-42.65 2.4,-45.06 -24,-25.83 0.83,-46.78 17.05,-46.18 -16.67,-27.94 19.3,-49.64 33,-39.58 -7.74,-28.91 41.3,-42.8 51.51,-22.38 9.62,-20.42 48.67,-23.43 54.07,1.81 14.42,-15 42.66,-7.81 42.66,12.61 18,-10.81 46.26,4.21 35.44,30.64 22.83,0 43.26,21.63 23.43,46.86 25.84,6 30,40.85 7.21,45.66 22.23,16.22 5.41,45.66 -23.43,43.26 -1.23,34.24 -200.68,76.29 -218.11,10.81 z"
       transform="translate(-147.76,-23.5)"
       id="path4179" />
  </g>
  <path
     class="cls-3"
     d="M 98.556595,238.87494 C 94.788467,219.2604 77.725516,208.57571 64.83918,216.34055 53.399916,223.23133 48.616438,249.13972 62.152992,263.6171 a 30.12,30.12 0 0 0 30.529764,8.66748 z"
     id="path4199" />
  <path
     class="cls-3"
     d="m 266.22295,345.25744 c 19.43678,-4.59783 36.16536,6.58515 34.36937,21.52694 -1.59985,13.2582 -23.27786,28.22164 -42.02709,21.81768 a 30.11,30.11 0 0 1 -20.41359,-24.29973 z"
     id="path4201" />
  <g
     id="g7067"
     transform="rotate(32.908306,154.27902,334.54606)">
    <g
       id="g7015">
      <path
         class="cls-3"
         d="m 300,135 c -67.94,1.43 -123.6,63.7 -112.95,130.37 14.49,90.79 33.64,105.73 65.48,118.35 31.84,12.62 120.73,12.49 143.67,-34.32 22.53,-46 34.17,-100.26 17.35,-142.31 C 396.73,165.04 357.07,133.8 300,135 Z"
         transform="translate(-147.76,-23.5)"
         id="path4203" />
    </g>
  </g>
  <path
     class="cls-8"
     d="m 169.09078,304.95979 a 13,13 0 0 1 -0.58449,-4.61865 3.59,3.59 0 0 1 1.04959,-2.35815 c 1.30189,-1.14668 3.49068,-0.71888 5.12435,-0.1143 a 17.52,17.52 0 0 1 6.05309,3.91716 c 1.46177,1.42241 3.00252,3.34857 3.16934,5.40997 0.2058,2.68219 -2.42756,4.02734 -4.77395,4.65294 -0.61635,0.16096 -0.40602,1.14278 0.21577,0.97342 2.41552,-0.64042 5.18223,-1.97074 5.53253,-4.7576 0.29594,-2.29794 -1.17417,-4.53572 -2.63593,-6.16061 a 19,19 0 0 0 -6.56864,-4.70343 c -1.8638,-0.80115 -4.37211,-1.47145 -6.24293,-0.34752 -2.32222,1.37974 -2.13719,4.57258 -1.68987,6.86315 0.0898,0.48696 0.20737,0.96799 0.35501,1.42087 0.14764,0.45288 1.13735,0.41441 0.97342,-0.21577 z"
     id="path4207" />
  <path
     class="cls-9"
     d="m 148.38046,205.24837 c 3.27984,-1.53426 7.42631,-1.14981 10.87148,-0.52835 a 42.1,42.1 0 0 1 13.22001,4.69588 28.65,28.65 0 0 1 6.07134,4.44116 c 0.45828,0.45142 1.20652,-0.20785 0.76997,-0.69285 a 34.46,34.46 0 0 0 -12.22177,-7.36122 37.05,37.05 0 0 0 -13.43546,-2.59597 14,14 0 0 0 -5.68246,1.08718 c -0.58426,0.27703 -0.1339,1.16404 0.45035,0.88701 z"
     id="path4209" />
  <path
     class="cls-9"
     d="m 257.80494,263.56583 c 6.53163,4.22684 12.76394,9.28435 16.44038,16.28508 a 31.51,31.51 0 0 1 2.50948,6.44803 c 0.16936,0.62179 1.14575,0.41985 0.98182,-0.21033 a 32.77,32.77 0 0 0 -5.28032,-10.90926 43.46,43.46 0 0 0 -8.38587,-8.3927 c -1.84204,-1.44218 -3.77693,-2.77769 -5.72466,-4.03814 a 0.50000058,0.50000058 0 0 0 -0.5433,0.83954 z"
     id="path4211" />
  <path
     class="cls-8"
     d="m 91.766892,230.57419 c 2.567583,18.83762 15.064218,-6.71279 21.496258,-24.01451 3.87832,-9.30618 10.86764,-2.84161 21.5391,-12.54005 5.84073,-5.34429 7.69978,-17.29128 16.181,-18.78279 10.76592,6.16895 25.45073,-7.41204 28.7335,-8.32502 3.76452,13.25158 28.69876,4.17123 31.64461,4.99367 11.72963,12.15267 28.55996,13.92012 36.04111,12.31744 2.25964,5.21434 5.99201,19.36229 29.87258,24.33431 -0.46979,11.51197 3.83551,24.75617 18.11739,28.40017 -4.3953,16.74969 -1.57317,22.32804 7.55795,30.65509 2.83889,6.39916 -14.73081,14.88528 -3.23731,28.23111 -1.41551,1.76401 -13.42775,10.36847 -10.31681,18.00379 3.11094,7.63531 2.42641,8.28817 -1.92524,12.17811 -4.35166,3.88994 -19.72997,19.70217 -14.05467,23.37485 5.6753,3.67269 19.34625,-10.82645 32.0907,-25.12711 12.74445,-14.30066 45.13717,-62.82855 19.91074,-121.71241 -25.22643,-58.88386 -82.83407,-81.20321 -136.30808,-75.41698 -53.47402,5.78622 -69.50298,35.10167 -82.67361,58.21483 -11.853873,20.8207 -14.953397,39.83828 -14.669218,45.2155 z"
     id="path4215" />
  <path
     class="cls-8"
     d="m 91.274503,230.67244 c 0.306576,2.13993 0.886124,6.80304 3.80683,7.00173 2.615497,0.19176 4.825718,-3.0948 6.112827,-4.91808 a 79.94,79.94 0 0 0 6.85353,-12.43119 q 1.73811,-3.73501 3.29202,-7.55349 a 76.5,76.5 0 0 1 2.889,-7.20681 7.84,7.84 0 0 1 3.77776,-3.66576 27.7,27.7 0 0 1 5.02465,-1.3223 24.58,24.58 0 0 0 12.99941,-7.20331 c 3.77631,-4.17889 5.38562,-9.83158 9.10021,-14.06232 a 11.57,11.57 0 0 1 3.231,-2.67361 8,8 0 0 1 1.8871,-0.74415 c 0.63018,-0.16393 0.87118,0.0159 1.44059,0.27713 a 13.23,13.23 0 0 0 6.12337,1.13968 c 7.97544,-0.34182 14.19199,-5.58584 20.79468,-9.36504 a 5.57,5.57 0 0 1 1.16011,-0.55948 l -0.59607,-0.38574 c 2.76514,9.32925 14.90243,8.05968 22.37813,6.87036 1.99819,-0.32683 4.02355,-0.69564 5.98767,-1.08026 0.71661,-0.13182 1.44161,-0.25821 2.18636,-0.35991 0.36546,-0.0494 1.01787,-0.21082 1.37492,-0.0631 a 2.67,2.67 0 0 1 0.46174,0.5013 c 0.3684,0.36943 0.73088,0.7112 1.11855,1.06927 0.67409,0.6149 1.37288,1.21005 2.07957,1.77457 a 41.08,41.08 0 0 0 4.83574,3.33187 44.67,44.67 0 0 0 9.76892,4.24924 c 5.71244,1.71945 12.17411,2.64925 18.12673,1.43911 l -0.55558,-0.26425 a 55.09,55.09 0 0 0 4.52232,9.22761 32.85,32.85 0 0 0 12.43247,10.8089 53,53 0 0 0 13.15434,4.55808 l -0.34519,-0.49734 a 34,34 0 0 0 3.71441,17.50722 23.26,23.26 0 0 0 14.82225,11.33103 l -0.32196,-0.62525 c -1.35742,5.20823 -2.5909,10.75871 -1.85138,16.16855 a 20.48,20.48 0 0 0 5.24723,10.72109 c 0.77187,0.86875 1.57929,1.70096 2.40302,2.50798 0.73631,0.70281 1.81587,1.35378 1.98768,2.35831 a 6.35,6.35 0 0 1 -1.09709,3.95925 c -1.81118,3.25892 -4.25744,6.11876 -5.53773,9.66168 -1.8414,5.10942 -0.15807,9.96272 3.23111,14.00223 l -0.0415,-0.59857 a 27.5,27.5 0 0 1 -2.59934,2.41535 50.62,50.62 0 0 0 -3.98867,4.06528 c -2.36971,2.77836 -4.76169,6.36419 -4.22654,10.21241 0.53514,3.84822 4.17669,7.68179 1.05874,11.11942 -1.07125,1.17682 -2.34202,2.16498 -3.49772,3.25142 -1.1557,1.08644 -2.28573,2.22523 -3.38217,3.38576 a 75.9,75.9 0 0 0 -7.39067,8.84373 c -1.61357,2.29095 -3.73291,5.32663 -3.59281,8.276 0.11395,2.45599 2.44543,3.58361 4.6629,3.26765 3.70994,-0.50551 7.11035,-3.36728 9.8776,-5.67397 a 146,146 0 0 0 13.0723,-12.83781 c 2.87001,-3.10972 5.76768,-6.22536 8.50288,-9.45805 a 114,114 0 0 0 9.20386,-12.97087 124.59,124.59 0 0 0 16.47365,-42.46359 111.69,111.69 0 0 0 -5.21603,-58.64376 124.75,124.75 0 0 0 -42.3409,-57.28564 c -18.15178,-13.43804 -39.89918,-21.4487 -62.24592,-24.18937 a 151.51,151.51 0 0 0 -33.13979,-0.32722 c -12.37089,1.2256 -24.71666,3.8849 -36.14002,8.89207 a 83.73,83.73 0 0 0 -24.0896,15.89227 104.56,104.56 0 0 0 -15.58395,19.24064 c -10.36066,16.01005 -19.483767,33.47607 -22.691939,52.45908 a 35.61,35.61 0 0 0 -0.693295,7.53189 c 0.03651,0.64302 1.041031,0.67369 1.002049,0.0529 a 36.51,36.51 0 0 1 0.702685,-7.65684 99.08,99.08 0 0 1 3.189078,-12.86106 c 3.256604,-10.35172 8.063412,-19.91467 13.460862,-29.28596 a 158.8,158.8 0 0 1 12.63014,-19.22251 85.21,85.21 0 0 1 18.92091,-17.80776 c 18.88953,-12.78959 42.63528,-17.0884 65.10711,-16.97065 22.05846,0.1123 44.20013,5.10251 63.72205,15.48459 a 120.92,120.92 0 0 1 48.78831,48.02207 c 10.48967,18.85434 16.2865,40.17479 15.23934,61.81886 a 118.14,118.14 0 0 1 -12.52593,46.78116 127.83,127.83 0 0 1 -9.46231,15.98393 133.44,133.44 0 0 1 -10.83956,13.2345 c -4.15365,4.5779 -8.3715,9.12617 -12.93009,13.29909 -3.14756,2.89437 -6.78703,6.32802 -10.89655,7.63506 -2.32812,0.74462 -5.13817,0.11726 -4.73453,-2.82565 0.43428,-3.1375 2.76251,-6.10946 4.6097,-8.55893 a 87.26,87.26 0 0 1 7.44596,-8.45062 c 0.92209,-0.92792 1.86098,-1.84497 2.83641,-2.72647 a 18.2,18.2 0 0 0 3.49082,-3.55367 c 2.13121,-3.38533 -0.87968,-7.14429 -1.56301,-10.46903 -0.8201,-3.99689 2.13095,-7.87604 4.66166,-10.6455 1.85852,-2.02524 4.20496,-3.66326 5.95138,-5.77296 a 0.53,0.53 0 0 0 -0.0444,-0.61239 c -3.16844,-3.71799 -4.7545,-8.151 -3.08301,-12.90584 1.2393,-3.49798 3.68062,-6.31337 5.48093,-9.5555 a 8.6,8.6 0 0 0 1.25759,-3.78392 3.8,3.8 0 0 0 -0.31302,-1.79868 12.06,12.06 0 0 0 -2.35363,-2.34499 c -2.89637,-2.8868 -5.53195,-6.17657 -6.61922,-10.23916 -1.50795,-5.82374 -0.0794,-12.11747 1.39365,-17.79881 a 0.5,0.5 0 0 0 -0.32197,-0.62525 22.29,22.29 0 0 1 -14.38667,-11.12063 33.14,33.14 0 0 1 -3.43541,-16.77875 0.5,0.5 0 0 0 -0.34519,-0.49734 c -7.14367,-1.51408 -14.23593,-4.13836 -19.83264,-8.96322 a 31,31 0 0 1 -7.86176,-10.63827 c -0.6775,-1.47472 -1.24191,-2.99536 -1.86953,-4.47353 a 0.5,0.5 0 0 0 -0.54175,-0.26721 c -5.1086,1.06549 -10.64825,0.42267 -15.65004,-0.8488 a 42.14,42.14 0 0 1 -18.96978,-10.3702 c -0.62668,-0.59613 -0.9531,-1.14088 -1.8218,-1.17895 a 9.47,9.47 0 0 0 -1.4821,0.13672 c -1.5947,0.21869 -3.17953,0.55098 -4.76485,0.84721 a 57.64,57.64 0 0 1 -13.19367,1.30063 c -4.74899,-0.22644 -9.71373,-1.83127 -11.1995,-6.8426 a 0.51,0.51 0 0 0 -0.59608,-0.38574 11.17,11.17 0 0 0 -2.66003,1.42318 c -1.41892,0.90419 -2.80969,1.83851 -4.23158,2.72887 a 39.25,39.25 0 0 1 -11.44412,5.31535 15.5,15.5 0 0 1 -6.36445,0.30042 11.41,11.41 0 0 1 -2.94782,-0.96665 2.85,2.85 0 0 0 -1.06821,-0.42923 5.42,5.42 0 0 0 -1.9424,0.55352 c -4.99061,1.98754 -7.39702,7.56512 -9.85324,11.93125 a 25,25 0 0 1 -4.90987,6.68518 24.32,24.32 0 0 1 -7.16424,4.49972 c -3.22748,1.3061 -7.07518,1.26984 -10.13081,2.97302 -3.72731,2.07847 -4.66541,6.71236 -6.11657,10.33527 a 148.53,148.53 0 0 1 -6.57164,14.3884 57.85,57.85 0 0 1 -3.79767,6.27336 14,14 0 0 1 -3.564425,3.85146 c -3.362841,2.15949 -4.192721,-3.57086 -4.490901,-5.70536 -0.117012,-0.64747 -1.098826,-0.43713 -1.007001,0.19403 z"
     id="path4217" />
  <path
     class="cls-12"
     d="m 130.68141,305.48667 c -3.85197,5.95235 -13.69225,6.43334 -21.91976,1.10904 -8.2275,-5.32431 -11.819875,-14.49804 -7.96791,-20.45038 3.85197,-5.95235 13.69226,-6.43334 21.91976,-1.10904 8.2275,5.3243 11.81988,14.49803 7.96791,20.45038 z"
     id="path4245" />
  <ellipse
     class="cls-12"
     cx="367.82214"
     cy="185.0199"
     rx="17.799999"
     ry="12.84"
     id="ellipse4247"
     transform="rotate(32.908306)" />
  <path
     class="cls-8"
     d="m 68.231326,229.54174 a 5.4,5.4 0 0 1 3.613216,-1.90217 6.2,6.2 0 0 1 3.901461,1.33364 c 3.249505,2.34109 4.917559,6.48175 5.662599,10.26331 a 29.41,29.41 0 0 1 0.204949,9.32813 c -0.08004,0.63905 0.919046,0.67812 0.993654,0.0475 0.693175,-5.30456 0.190727,-11.02552 -2.371187,-15.828 -1.585149,-2.94352 -4.388156,-6.10341 -7.989415,-6.17077 a 6.32,6.32 0 0 0 -4.705658,2.13621 c -0.434626,0.46914 0.224644,1.21738 0.692851,0.76997 z"
     id="path4249" />
  <path
     class="cls-8"
     d="m 290.38397,369.76677 c 1.4146,-3.2535 -2.90311,-6.02382 -5.29631,-7.2033 -4.0323,-1.97814 -8.45488,-1.65984 -12.60539,-0.30786 a 48.32,48.32 0 0 0 -7.10441,2.98998 0.50423209,0.50423209 0 0 0 0.45332,0.90083 c 3.68038,-1.85871 7.62596,-3.59345 11.77889,-3.95523 a 13.59,13.59 0 0 1 10.02627,3.18893 c 1.16448,0.97989 2.49389,2.45958 1.78659,4.08633 -0.24993,0.58868 0.70272,0.88356 0.98623,0.31662 z"
     id="path4251" />
  <path
     class="cls-13"
     d="m 176.37398,135.37541 c -4.41331,2.62317 -7.99009,6.58575 -11.09425,10.62787 a 73.79,73.79 0 0 0 -8.59993,14.13593 36.12,36.12 0 0 0 -2.49587,6.94903 c -0.14128,0.62325 0.81433,0.93197 0.9808,0.32502 a 46,46 0 0 1 5.57247,-12.80759 67.27,67.27 0 0 1 9.86318,-13.23505 31,31 0 0 1 6.20519,-5.0608 c 0.54475,-0.32641 0.0998,-1.22181 -0.45875,-0.89244 z"
     id="path4253" />
  <path
     class="cls-13"
     d="m 207.47481,132.02472 c -7.90759,5.92447 -14.22206,13.54693 -19.80069,21.63367 -1.63482,2.36059 -3.21087,4.75921 -4.77013,7.16869 a 0.50000058,0.50000058 0 0 0 0.83954,0.5433 c 5.31887,-8.21911 10.89108,-16.36956 17.99619,-23.17069 a 68.06,68.06 0 0 1 6.37806,-5.40155 c 0.51611,-0.39259 -0.1486,-1.13244 -0.69286,-0.76997 z"
     id="path4255" />
  <path
     class="cls-13"
     d="m 237.90346,138.16113 c -5.58529,3.32983 -9.3997,8.78239 -12.94989,14.08433 -2.22355,3.32557 -5.03677,6.32911 -7.24551,9.72381 a 15.5,15.5 0 0 0 -1.39679,2.52654 2.15,2.15 0 0 0 -0.12306,1.7547 c 0.30172,0.5645 1.20255,0.11118 0.89244,-0.45876 -0.0672,-0.0435 -0.0464,-0.14915 -0.0133,-0.36595 a 3.56,3.56 0 0 1 0.27216,-0.78869 14.21,14.21 0 0 1 1.20811,-2.12454 c 1.17352,-1.81341 2.49272,-3.52063 3.81489,-5.21402 1.09843,-1.42129 2.2418,-2.80158 3.26467,-4.27176 1.58889,-2.2712 3.06616,-4.5908 4.81752,-6.74494 a 30.78,30.78 0 0 1 7.91754,-7.22828 c 0.54475,-0.32642 0.0998,-1.22182 -0.45876,-0.89244 z"
     id="path4257" />
  <path
     class="cls-13"
     d="m 267.35492,150.53797 a 190.54,190.54 0 0 1 -12.51275,22.13336 c -1.27675,1.97293 -2.61769,3.91621 -3.97839,5.8348 -0.35315,0.54571 0.48639,1.089 0.83954,0.5433 a 195.32,195.32 0 0 0 13.28809,-21.6197 c 1.11427,-2.08998 2.17817,-4.21255 3.20305,-6.34846 0.27512,-0.57238 -0.56739,-1.1295 -0.83954,-0.5433 z"
     id="path4259" />
  <path
     class="cls-13"
     d="m 294.30999,170.43525 c -1.39716,9.41101 -6.6143,17.76742 -11.77807,25.5628 -1.4343,2.21639 -2.91601,4.41401 -4.35032,6.63039 a 0.50000477,0.50000477 0 0 0 0.83955,0.5433 c 5.21564,-8.05959 11.01601,-15.95519 14.3007,-25.06189 a 40.48,40.48 0 0 0 1.95364,-7.65726 c 0.0968,-0.6282 -0.90522,-0.68109 -0.99908,-0.0391 z"
     id="path4261" />
  <path
     class="cls-13"
     d="m 314.49401,193.15707 c -1.51377,10.62196 -5.78228,20.60472 -11.09528,29.86391 -1.52816,2.65592 -3.13731,5.27134 -4.80523,7.84873 a 0.50000058,0.50000058 0 0 0 0.83954,0.5433 c 5.9002,-9.11742 11.20186,-18.80084 14.19031,-29.29036 a 68.44,68.44 0 0 0 1.88654,-8.91564 c 0.0884,-0.63363 -0.91065,-0.6727 -0.99908,-0.0391 z"
     id="path4263" />
  <path
     class="cls-13"
     d="m 326.19742,224.73196 c -3.54648,9.84253 -7.78584,19.52255 -13.68651,28.19894 a 75.12,75.12 0 0 1 -5.31386,6.95976 c -0.40944,0.48544 0.24983,1.23368 0.69285,0.76997 6.87503,-8.01012 11.93172,-17.3518 15.97946,-27.04862 q 1.76184,-4.23183 3.31132,-8.57726 c 0.22475,-0.60498 -0.7363,-0.9053 -0.98079,-0.32502 z"
     id="path4265" />
  <path
     class="cls-13"
     d="m 329.57445,252.68143 c -3.37203,7.78757 -6.3954,15.7174 -10.60204,23.11971 -2.94174,5.17159 -7.23563,9.43243 -10.91418,14.06765 -0.67071,0.85237 -1.3276,1.70179 -2.02646,2.52403 -0.21583,0.24149 -0.4371,0.49138 -0.68602,0.74718 0,0 -0.0963,0.0568 -0.0761,0.11754 0.0202,0.0607 0.19754,0.0445 0.34421,0.22275 l 0.30224,0.19559 a 0.67,0.67 0 0 0 0.0612,-0.18668 c 0.23314,-0.59954 -0.72247,-0.90826 -0.98079,-0.32501 -0.25833,0.58324 0.0676,1.29442 0.75309,0.91615 a 5.81,5.81 0 0 0 1.44908,-1.53979 c 1.28809,-1.54869 2.52086,-3.28802 3.90624,-4.82139 0.98087,-1.09238 1.89705,-2.25044 2.84682,-3.38677 1.38883,-1.68598 2.79989,-3.36949 4.05688,-5.16463 a 72.93,72.93 0 0 0 6.39816,-11.85636 c 2.14362,-4.71135 4.04427,-9.54421 6.1069,-14.29607 0.25536,-0.59707 -0.69729,-0.89196 -0.98079,-0.32502 z"
     id="path4267" />
  <path
     class="cls-13"
     d="m 143.58608,148.64034 c -6.52877,6.95969 -11.84219,14.96792 -16.73189,23.13124 -1.23131,2.04997 -2.49621,4.07821 -3.54036,6.22547 -1.04414,2.14727 -1.99199,4.44024 -2.99367,6.65072 -1.08514,2.39469 -2.40784,4.65949 -3.59077,7.00281 a 22.49,22.49 0 0 0 -1.31827,2.79175 c -0.11163,0.35656 -0.0884,0.83611 0.40838,0.85984 0.49683,0.0237 0.58574,-0.37136 0.78676,-0.68199 a 0.5,0.5 0 0 0 -0.83954,-0.54329 1.82,1.82 0 0 0 -0.17929,0.27705 c -0.0652,0.10074 0,0 0,0 v 0 c -0.0706,0.10914 0,0 0.30917,-0.10962 l 0.35458,0.1699 c 0.18075,0.23608 0.007,0.50473 0.15901,0.26966 0.0652,-0.10074 0.14126,-0.21828 0.14769,-0.35705 0.15065,-0.34323 0.31512,-0.68942 0.4796,-1.03561 0.46675,-0.96054 0.9503,-1.91022 1.44224,-2.85446 0.38377,-0.74029 0.76754,-1.48057 1.19329,-2.19369 a 50.56,50.56 0 0 0 2.42367,-5.12569 c 0.89598,-2.02875 1.76677,-4.0738 2.79955,-6.03784 1.03277,-1.96405 2.1574,-3.7019 3.26128,-5.53655 2.24333,-3.70584 4.56766,-7.37118 7.06285,-10.91403 a 102.44,102.44 0 0 1 9.0082,-11.25124 c 0.44303,-0.46372 -0.22464,-1.21739 -0.69285,-0.76997 z"
     id="path4269" />
  <path
     class="cls-13"
     d="m 322.29035,291.28892 c -6.09035,9.41125 -12.33925,19.19636 -21.07808,26.40533 a 38.19,38.19 0 0 1 -7.79741,5.05478 l 0.65335,0.72058 c 0.29732,-0.36742 0.79465,-0.51012 1.11124,-0.88889 0.31659,-0.37878 -0.4385,-1.03418 -0.83954,-0.5433 -0.30572,0.36199 -0.80305,0.50469 -1.11124,0.8889 -0.3082,0.38421 0.23157,0.91218 0.64495,0.71515 a 46,46 0 0 0 13.28056,-10.17784 110.38,110.38 0 0 0 10.78527,-13.75801 c 1.76471,-2.59813 3.4761,-5.24268 5.19044,-7.87341 a 0.5,0.5 0 0 0 -0.83954,-0.54329 z"
     id="path4271" />
  <path
     class="cls-8"
     d="m 151.14834,301.98429 a 35.36,35.36 0 0 0 -0.98412,15.69349 23.91,23.91 0 0 0 5.30448,11.46091 19.06,19.06 0 0 0 9.63498,6.02072 20,20 0 0 0 11.82267,-0.74658 29.86,29.86 0 0 0 12.0404,-8.77682 c 0.4613,-0.54717 0.92803,-1.10275 1.36414,-1.66622 0.43611,-0.56348 -0.44146,-1.04801 -0.83954,-0.5433 a 31.28,31.28 0 0 1 -11.45422,9.45394 19.54,19.54 0 0 1 -11.41725,1.59259 17.91,17.91 0 0 1 -9.49379,-5.0241 22.09,22.09 0 0 1 -5.66506,-10.44357 32.38,32.38 0 0 1 0.12969,-14.68605 c 0.15708,-0.68448 0.33096,-1.35811 0.5241,-2.04309 0.19314,-0.68498 -0.78372,-0.92406 -0.98623,-0.31662 z"
     id="path4273" />
  <path
     class="cls-14"
     d="m 91.766892,230.57419 c 2.567583,18.83762 15.064218,-6.71279 21.496258,-24.01451 3.87832,-9.30618 10.86764,-2.84161 21.5391,-12.54005 5.84073,-5.34429 7.69978,-17.29128 16.181,-18.78279 10.76592,6.16895 25.45073,-7.41204 28.7335,-8.32502 3.76452,13.25158 28.69876,4.17123 31.64461,4.99367 11.72963,12.15267 28.55996,13.92012 36.04111,12.31744 2.25964,5.21434 5.99201,19.36229 29.87258,24.33431 -0.46979,11.51197 3.83551,24.75617 18.11739,28.40017 -4.3953,16.74969 -1.57317,22.32804 7.55795,30.65509 2.83889,6.39916 -14.73081,14.88528 -3.23731,28.23111 -1.41551,1.76401 -13.42775,10.36847 -10.31681,18.00379 3.11094,7.63531 2.42641,8.28817 -1.92524,12.17811 -4.35166,3.88994 -19.72997,19.70217 -14.05467,23.37485 5.6753,3.67269 19.34625,-10.82645 32.0907,-25.12711 12.74445,-14.30066 45.13717,-62.82855 19.91074,-121.71241 -25.22643,-58.88386 -82.83407,-81.20321 -136.30808,-75.41698 -53.47402,5.78622 -69.50298,35.10167 -82.67361,58.21483 -11.853873,20.8207 -14.953397,39.83828 -14.669218,45.2155 z"
     id="path4279" />
  <path
     class="cls-9"
     d="m 91.274503,230.67244 c 0.306576,2.13993 0.886124,6.80304 3.80683,7.00173 2.615497,0.19176 4.825718,-3.0948 6.112827,-4.91808 a 79.94,79.94 0 0 0 6.85353,-12.43119 q 1.73811,-3.73501 3.29202,-7.55349 a 76.5,76.5 0 0 1 2.889,-7.20681 7.84,7.84 0 0 1 3.77776,-3.66576 27.7,27.7 0 0 1 5.02465,-1.3223 24.58,24.58 0 0 0 12.99941,-7.20331 c 3.77631,-4.17889 5.38562,-9.83158 9.10021,-14.06232 a 11.57,11.57 0 0 1 3.231,-2.67361 8,8 0 0 1 1.8871,-0.74415 c 0.63018,-0.16393 0.87118,0.0159 1.44059,0.27713 a 13.23,13.23 0 0 0 6.12337,1.13968 c 7.97544,-0.34182 14.19199,-5.58584 20.79468,-9.36504 a 5.57,5.57 0 0 1 1.16011,-0.55948 l -0.59607,-0.38574 c 2.76514,9.32925 14.90243,8.05968 22.37813,6.87036 1.99819,-0.32683 4.02355,-0.69564 5.98767,-1.08026 0.71661,-0.13182 1.44161,-0.25821 2.18636,-0.35991 0.36546,-0.0494 1.01787,-0.21082 1.37492,-0.0631 a 2.67,2.67 0 0 1 0.46174,0.5013 c 0.3684,0.36943 0.73088,0.7112 1.11855,1.06927 0.67409,0.6149 1.37288,1.21005 2.07957,1.77457 a 41.08,41.08 0 0 0 4.83574,3.33187 44.67,44.67 0 0 0 9.76892,4.24924 c 5.71244,1.71945 12.17411,2.64925 18.12673,1.43911 l -0.55558,-0.26425 a 55.09,55.09 0 0 0 4.52232,9.22761 32.85,32.85 0 0 0 12.43247,10.8089 53,53 0 0 0 13.15434,4.55808 l -0.34519,-0.49734 a 34,34 0 0 0 3.71441,17.50722 23.26,23.26 0 0 0 14.82225,11.33103 l -0.32196,-0.62525 c -1.35742,5.20823 -2.5909,10.75871 -1.85138,16.16855 a 20.48,20.48 0 0 0 5.24723,10.72109 c 0.77187,0.86875 1.57929,1.70096 2.40302,2.50798 0.73631,0.70281 1.81587,1.35378 1.98768,2.35831 a 6.35,6.35 0 0 1 -1.09709,3.95925 c -1.81118,3.25892 -4.25744,6.11876 -5.53773,9.66168 -1.8414,5.10942 -0.15807,9.96272 3.23111,14.00223 l -0.0415,-0.59857 a 27.5,27.5 0 0 1 -2.59934,2.41535 50.62,50.62 0 0 0 -3.98867,4.06528 c -2.36971,2.77836 -4.76169,6.36419 -4.22654,10.21241 0.53514,3.84822 4.17669,7.68179 1.05874,11.11942 -1.07125,1.17682 -2.34202,2.16498 -3.49772,3.25142 -1.1557,1.08644 -2.28573,2.22523 -3.38217,3.38576 a 75.9,75.9 0 0 0 -7.39067,8.84373 c -1.61357,2.29095 -3.73291,5.32663 -3.59281,8.276 0.11395,2.45599 2.44543,3.58361 4.6629,3.26765 3.70994,-0.50551 7.11035,-3.36728 9.8776,-5.67397 a 146,146 0 0 0 13.0723,-12.83781 c 2.87001,-3.10972 5.76768,-6.22536 8.50288,-9.45805 a 114,114 0 0 0 9.20386,-12.97087 124.59,124.59 0 0 0 16.47365,-42.46359 111.69,111.69 0 0 0 -5.21603,-58.64376 124.75,124.75 0 0 0 -42.3409,-57.28564 c -18.15178,-13.43804 -39.89918,-21.4487 -62.24592,-24.18937 a 151.51,151.51 0 0 0 -33.13979,-0.32722 c -12.37089,1.2256 -24.71666,3.8849 -36.14002,8.89207 a 83.73,83.73 0 0 0 -24.0896,15.89227 104.56,104.56 0 0 0 -15.58395,19.24064 c -10.36066,16.01005 -19.483767,33.47607 -22.691939,52.45908 a 35.61,35.61 0 0 0 -0.693295,7.53189 c 0.03651,0.64302 1.041031,0.67369 1.002049,0.0529 a 36.51,36.51 0 0 1 0.702685,-7.65684 99.08,99.08 0 0 1 3.189078,-12.86106 c 3.256604,-10.35172 8.063412,-19.91467 13.460862,-29.28596 a 158.8,158.8 0 0 1 12.63014,-19.22251 85.21,85.21 0 0 1 18.92091,-17.80776 c 18.88953,-12.78959 42.63528,-17.0884 65.10711,-16.97065 22.05846,0.1123 44.20013,5.10251 63.72205,15.48459 a 120.92,120.92 0 0 1 48.78831,48.02207 c 10.48967,18.85434 16.2865,40.17479 15.23934,61.81886 a 118.31,118.31 0 0 1 -12.52593,46.78116 127.83,127.83 0 0 1 -9.46231,15.98393 133.44,133.44 0 0 1 -10.83956,13.2345 c -4.15365,4.5779 -8.3715,9.12617 -12.93009,13.29909 -3.14756,2.89437 -6.78703,6.32802 -10.89655,7.63506 -2.32812,0.74462 -5.13817,0.11726 -4.73453,-2.82565 0.43428,-3.1375 2.76251,-6.10946 4.6097,-8.55893 a 87.26,87.26 0 0 1 7.44596,-8.45062 c 0.92209,-0.92792 1.86098,-1.84497 2.83641,-2.72647 a 18.2,18.2 0 0 0 3.49082,-3.55367 c 2.13121,-3.38533 -0.87968,-7.14429 -1.56301,-10.46903 -0.8201,-3.99689 2.13095,-7.87604 4.66166,-10.6455 1.85852,-2.02524 4.20496,-3.66326 5.95138,-5.77296 a 0.53,0.53 0 0 0 -0.0444,-0.61239 c -3.16844,-3.71799 -4.7545,-8.151 -3.08301,-12.90584 1.2393,-3.49798 3.68062,-6.31337 5.48093,-9.5555 a 8.6,8.6 0 0 0 1.25759,-3.78392 3.8,3.8 0 0 0 -0.31302,-1.79868 12.06,12.06 0 0 0 -2.35363,-2.34499 c -2.89637,-2.8868 -5.53195,-6.17657 -6.61922,-10.23916 -1.50795,-5.82374 -0.0794,-12.11747 1.39365,-17.79881 a 0.5,0.5 0 0 0 -0.32197,-0.62525 22.29,22.29 0 0 1 -14.38667,-11.12063 33.14,33.14 0 0 1 -3.43541,-16.77875 0.5,0.5 0 0 0 -0.34519,-0.49734 c -7.14367,-1.51408 -14.23593,-4.13836 -19.83264,-8.96322 a 31,31 0 0 1 -7.86176,-10.63827 c -0.6775,-1.47472 -1.24191,-2.99536 -1.86953,-4.47353 a 0.5,0.5 0 0 0 -0.54175,-0.26721 c -5.1086,1.06549 -10.64825,0.42267 -15.65004,-0.8488 a 42.14,42.14 0 0 1 -18.96978,-10.3702 c -0.62668,-0.59613 -0.9531,-1.14088 -1.8218,-1.17895 a 9.47,9.47 0 0 0 -1.4821,0.13672 c -1.5947,0.21869 -3.17953,0.55098 -4.76485,0.84721 a 57.64,57.64 0 0 1 -13.19367,1.30063 c -4.74899,-0.22644 -9.71373,-1.83127 -11.1995,-6.8426 a 0.51,0.51 0 0 0 -0.59608,-0.38574 11.17,11.17 0 0 0 -2.66003,1.42318 c -1.41892,0.90419 -2.80969,1.83851 -4.23158,2.72887 a 39.25,39.25 0 0 1 -11.44412,5.31535 15.5,15.5 0 0 1 -6.36445,0.30042 11.41,11.41 0 0 1 -2.94782,-0.96665 2.85,2.85 0 0 0 -1.06821,-0.42923 5.42,5.42 0 0 0 -1.9424,0.55352 c -4.99061,1.98754 -7.39702,7.56512 -9.85324,11.93125 a 25,25 0 0 1 -4.90987,6.68518 24.32,24.32 0 0 1 -7.16424,4.49972 c -3.22748,1.3061 -7.07518,1.26984 -10.13081,2.97302 -3.72731,2.07847 -4.66541,6.71236 -6.11657,10.33527 a 148.53,148.53 0 0 1 -6.57164,14.3884 57.85,57.85 0 0 1 -3.79767,6.27336 14,14 0 0 1 -3.564425,3.85146 c -3.362841,2.15949 -4.192721,-3.57086 -4.490901,-5.70536 -0.117012,-0.64747 -1.098826,-0.43713 -1.007001,0.19403 z"
     id="path4281" />
  <path
     class="cls-9"
     d="m 173.42618,134.00379 c -4.41332,2.62317 -7.99553,6.59415 -11.10265,10.62244 a 73.8,73.8 0 0 0 -8.59153,14.14135 35.44,35.44 0 0 0 -2.49587,6.94904 c -0.14128,0.62325 0.80593,0.92654 0.98079,0.32502 a 46.69,46.69 0 0 1 5.57247,-12.80759 67.77,67.77 0 0 1 9.91554,-13.26073 31.42,31.42 0 0 1 6.20519,-5.0608 c 0.55314,-0.32098 0.0998,-1.22181 -0.45036,-0.887 z"
     id="path4283" />
  <path
     class="cls-9"
     d="m 204.5186,130.64766 c -7.90758,5.92448 -14.21366,13.55237 -19.80069,21.63368 -1.62642,2.36602 -3.20247,4.76464 -4.76173,7.17412 a 0.50000058,0.50000058 0 0 0 0.83954,0.5433 c 5.31887,-8.21911 10.88269,-16.37499 17.9878,-23.17612 a 72.05,72.05 0 0 1 6.37805,-5.40155 c 0.52451,-0.38716 -0.14859,-1.13244 -0.69285,-0.76997 z"
     id="path4285" />
  <path
     class="cls-9"
     d="m 234.95566,136.78951 c -5.5853,3.32983 -9.4081,8.77696 -12.95829,14.0789 -2.22355,3.32557 -5.0096,6.28712 -7.24551,9.72381 a 14.65,14.65 0 0 0 -1.38839,2.53197 2.14,2.14 0 0 0 -0.13146,1.74926 c 0.31011,0.56994 1.20255,0.11119 0.90083,-0.45332 -0.0756,-0.0489 -0.0548,-0.15458 -0.0217,-0.37138 a 4.17,4.17 0 0 1 0.27216,-0.78869 15.3,15.3 0 0 1 1.20811,-2.12454 c 1.17352,-1.81341 2.50112,-3.5152 3.81489,-5.21402 1.09843,-1.42129 2.2418,-2.80158 3.27307,-4.26633 1.58049,-2.27663 3.06616,-4.5908 4.81752,-6.74494 a 30.77,30.77 0 0 1 7.90913,-7.23371 c 0.54475,-0.32642 0.0998,-1.22182 -0.45035,-0.88701 z"
     id="path4287" />
  <path
     class="cls-9"
     d="m 264.42391,149.17722 a 190.54,190.54 0 0 1 -12.53449,22.16694 c -1.27674,1.97292 -2.61769,3.91621 -3.97839,5.8348 -0.35314,0.5457 0.4864,1.089 0.83954,0.5433 a 195.32,195.32 0 0 0 13.29649,-21.61427 q 1.66301,-3.1404 3.19466,-6.3539 c 0.27511,-0.57237 -0.559,-1.12406 -0.83954,-0.54329 z"
     id="path4289" />
  <path
     class="cls-9"
     d="m 291.35379,169.0582 c -1.39716,9.41101 -6.6143,17.76742 -11.73609,25.58996 -1.43431,2.21639 -2.92441,4.40857 -4.35871,6.62496 a 0.50000058,0.50000058 0 0 0 0.83954,0.5433 c 5.21564,-8.0596 11.01601,-15.9552 14.3007,-25.06189 a 39.76,39.76 0 0 0 1.95364,-7.65727 c 0.0968,-0.62819 -0.89682,-0.67565 -0.99908,-0.0391 z"
     id="path4291" />
  <path
     class="cls-9"
     d="m 311.53781,191.78002 c -1.51377,10.62196 -5.78771,20.61311 -11.09528,29.8639 -1.52816,2.65593 -3.13731,5.27135 -4.80523,7.84874 a 0.50000058,0.50000058 0 0 0 0.83954,0.5433 c 5.9002,-9.11742 11.21026,-18.79541 14.1903,-29.29037 a 66.9,66.9 0 0 0 1.88655,-8.91564 c 0.0884,-0.63362 -0.91065,-0.67269 -0.99909,-0.0391 z"
     id="path4293" />
  <path
     class="cls-9"
     d="m 325.19708,220.33255 c -3.54647,9.84254 -7.7804,19.51416 -13.68107,28.19056 a 77.54,77.54 0 0 1 -5.3109,6.97358 c -0.4124,0.47162 0.24144,1.22825 0.69829,0.76157 6.87798,-7.99629 11.90454,-17.30981 15.97945,-27.04861 1.17654,-2.812 2.26912,-5.67834 3.31972,-8.57183 0.21092,-0.60201 -0.7363,-0.9053 -0.98623,-0.31662 z"
     id="path4295" />
  <path
     class="cls-9"
     d="m 328.58251,248.28746 c -3.37203,7.78757 -6.3954,15.7174 -10.61044,23.11428 -2.93334,5.17703 -7.22723,9.43786 -10.90578,14.07308 -0.67368,0.83855 -1.33599,1.69636 -2.02942,2.51021 a 7.87,7.87 0 0 1 -0.68602,0.74718 0.83,0.83 0 0 0 -0.0815,0.12593 c 0.0543,-0.084 0.21138,0.0415 0.35261,0.22818 l 0.29384,0.19016 a 0.73,0.73 0 0 0 0.0667,-0.19508 c 0.23314,-0.59954 -0.71951,-0.89442 -0.98623,-0.31662 -0.26672,0.57781 0.0948,1.25245 0.76149,0.9216 a 5.88,5.88 0 0 0 1.44069,-1.54523 c 1.31525,-1.59067 2.52086,-3.28802 3.90623,-4.82139 0.9947,-1.09534 1.90545,-2.24501 2.84682,-3.38678 1.39427,-1.69437 2.7999,-3.36948 4.06528,-5.15918 a 72.87,72.87 0 0 0 6.40063,-11.87859 c 2.14905,-4.71975 4.05267,-9.53878 6.11234,-14.30447 0.24992,-0.58867 -0.70272,-0.88356 -0.98623,-0.31662 z"
     id="path4297" />
  <path
     class="cls-9"
     d="m 143.66063,149.22459 c -6.53421,6.96808 -11.8422,14.96792 -16.7319,23.13124 -1.23131,2.04997 -2.49621,4.0782 -3.54035,6.22547 -1.04415,2.14727 -1.992,4.44023 -2.99367,6.65072 -1.08515,2.39469 -2.40784,4.65948 -3.59077,7.00281 a 22.49,22.49 0 0 0 -1.31828,2.79175 c -0.12003,0.35113 -0.0884,0.8361 0.40838,0.85984 0.49683,0.0237 0.58574,-0.37136 0.7596,-0.64001 a 0.50000058,0.50000058 0 0 0 -0.83954,-0.5433 1.82,1.82 0 0 0 -0.17929,0.27705 c -0.0652,0.10075 0,0 0,0 v 0 c -0.0706,0.10914 0,0 0.31756,-0.10419 l 0.35459,0.16991 c 0.18074,0.23608 0.007,0.50473 0.15901,0.26966 0.0652,-0.10075 0.14125,-0.21828 0.14768,-0.35706 0.14225,-0.34866 0.31512,-0.68942 0.4796,-1.03561 0.46675,-0.96054 0.9503,-1.91021 1.44224,-2.85446 0.38377,-0.74028 0.76754,-1.48056 1.1849,-2.19911 a 48.28,48.28 0 0 0 2.43206,-5.12026 c 0.89598,-2.02875 1.76677,-4.0738 2.79412,-6.02945 1.02734,-1.95565 2.16283,-3.71029 3.26671,-5.54494 2.24334,-3.70584 4.56766,-7.37118 7.06286,-10.91403 a 102.44,102.44 0 0 1 9.06302,-11.29915 c 0.43462,-0.46914 -0.22465,-1.21739 -0.69285,-0.76997 z"
     id="path4299" />
  <path
     class="cls-9"
     d="m 321.29545,286.88112 c -6.09578,9.41965 -12.34468,19.20476 -21.08351,26.41373 a 38.55,38.55 0 0 1 -7.78358,5.05182 l 0.63951,0.72354 c 0.29733,-0.36742 0.80009,-0.51851 1.11668,-0.89729 0.31659,-0.37878 -0.4385,-1.03418 -0.83954,-0.5433 -0.31116,0.37039 -0.80849,0.51309 -1.11668,0.8973 -0.30819,0.38421 0.23158,0.91218 0.64495,0.71515 a 46,46 0 0 0 13.286,-10.18624 110.25,110.25 0 0 0 10.77983,-13.74961 c 1.77015,-2.60652 3.4845,-5.23725 5.19588,-7.8818 a 0.50000058,0.50000058 0 0 0 -0.83954,-0.5433 z"
     id="path4301" />
  <path
     sodipodi:type="spiral"
     style="fill:none;fill-rule:evenodd;stroke:#000000"
     id="path7171"
     sodipodi:cx="198.50281"
     sodipodi:cy="241.58868"
     sodipodi:expansion="1"
     sodipodi:revolution="3"
     sodipodi:radius="23.132957"
     sodipodi:argument="-17.212191"
     sodipodi:t0="0"
     d="m 198.50281,241.58868 c -0.0772,1.15728 -1.59806,0.46696 -1.92348,-0.12823 -0.88187,-1.61294 0.65805,-3.34371 2.17994,-3.71872 2.72231,-0.67081 5.14402,1.65381 5.51397,4.23165 0.54291,3.7831 -2.65567,6.97722 -6.28337,7.30921 -4.83515,0.4425 -8.82318,-3.65872 -9.10445,-8.33507 -0.35394,-5.88471 4.66212,-10.67552 10.38679,-10.8997 6.93334,-0.2715 12.53149,5.66565 12.69493,12.4385 0.19261,7.98156 -6.66926,14.38974 -14.4902,14.49018 -9.02959,0.11595 -16.24951,-7.67293 -16.28542,-16.54192 -0.0408,-10.0775 8.67663,-18.11034 18.59362,-18.08066 11.12536,0.0333 19.97196,9.68037 19.87591,20.64533 -0.10663,12.17318 -10.68414,21.83414 -22.69704,21.67115"
     transform="translate(44.624661,63.090038)" />
  <path
     sodipodi:type="spiral"
     style="fill:none;fill-rule:evenodd;stroke:#000000"
     id="path7171-4"
     sodipodi:cx="198.50281"
     sodipodi:cy="241.58868"
     sodipodi:expansion="1"
     sodipodi:revolution="3"
     sodipodi:radius="23.132957"
     sodipodi:argument="-17.212191"
     sodipodi:t0="0"
     d="m 198.50281,241.58868 c -0.0772,1.15728 -1.59806,0.46696 -1.92348,-0.12823 -0.88187,-1.61294 0.65805,-3.34371 2.17994,-3.71872 2.72231,-0.67081 5.14402,1.65381 5.51397,4.23165 0.54291,3.7831 -2.65567,6.97722 -6.28337,7.30921 -4.83515,0.4425 -8.82318,-3.65872 -9.10445,-8.33507 -0.35394,-5.88471 4.66212,-10.67552 10.38679,-10.8997 6.93334,-0.2715 12.53149,5.66565 12.69493,12.4385 0.19261,7.98156 -6.66926,14.38974 -14.4902,14.49018 -9.02959,0.11595 -16.24951,-7.67293 -16.28542,-16.54192 -0.0408,-10.0775 8.67663,-18.11034 18.59362,-18.08066 11.12536,0.0333 19.97196,9.68037 19.87591,20.64533 -0.10663,12.17318 -10.68414,21.83414 -22.69704,21.67115"
     transform="translate(-49.626023,-0.38567376)" />
</svg>
