<svg xmlns="http://www.w3.org/2000/svg" id="Camada_1" data-name="Camada 1" viewBox="0 0 402.87 798.25"><defs><style>.cls-2{fill:#974f32}.cls-3{fill:#080606}.cls-4{fill:#833c20}.cls-5{fill:#4f190d}.cls-9{fill:#010101}.cls-13{fill:#282e69}</style></defs><ellipse cx="209.56" cy="773.05" rx="125.38" ry="25.2" style="fill:#6c6c6b"/><path d="M115.54 613.95c-2.69 40.88 29.84 107.34 32.63 122.38s-10.57 24.56-14.63 34.45 3.93 13 15.89 3.45 24-17.85 26.61-22.63c.91-1.69 1.57-4.71-.78-19.83s-16.72-68.35-14.57-108.38c-1.76-14.18-45.15-9.44-45.15-9.44Z" class="cls-2"/><path d="M164.31 741.26c-4-1.16-10.43-4.31-15.86-2.41a21.87 21.87 0 0 1-.57 6.68c5.41-1.55 12-.12 12.75 2.21s-7.42 11.44-17.71 8.46c-3.41 5.2-7.47 9.84-9.43 14.58-4.11 9.91 3.93 13 15.89 3.45s24-17.85 26.61-22.63c.78-1.45 1.37-3.9 0-14.09-2.88.17-7.68 4.9-11.68 3.75Z" class="cls-3"/><path d="M227.32 613.32c4 19.47 12.46 42.06 21.89 37.37s12.7-12.3 25.51-19.18 35.1 14.14 42.18 28.73-4.92 20.48-28.32-2.23c-33 44.48-46.42 43.28-63.6 30.74-28.29-20.68-36.55-43-42.48-79.42 1.38-3.77 44.82 3.99 44.82 3.99Z" class="cls-2"/><path d="M274.72 631.51c12.8-6.89 35.1 14.14 42.18 28.73 5.63 11.58-.8 17.62-15.37 8.29 1.78-7.2-3-16.55-5.54-17.09s-3 6.34-1.63 11.75a90.983 90.983 0 0 1-4.29-3.81c-.49-2-1-4.17-1.5-6.8-1.91-9.46-9.39-13.2-19.29-17.62a50.45 50.45 0 0 1 5.44-3.45Z" class="cls-3"/><path d="M20.54 194.51c18.6 15.12 42 143.33 79.21 194.24 23.4-2 34.22-23.24 34.22-23.24-12.43-26.47-43.72-95-57.82-148.9-9-29.89-20.09-56.23-25.19-58.06-13.11-4.71 1.47 17.3-.29 16.94-11.47-13.4-32.06-20.43-36.67-18.17s7.54 10.29 7.54 10.29c-14.84-10.43-26.42-7.77-14.76 2.46-12.13-2.82-8.24 6.56 13.76 24.44Z" class="cls-4"/><path d="M6.21 169.82a88.44 88.44 0 0 1 11.8 6 86.68 86.68 0 0 1 8 5.7c.5.39 1.22-.31.71-.71a83.26 83.26 0 0 0-14-9.09c-2-1-4-1.91-6-2.78-.58-.25-1.09.62-.5.87Zm8.86-5.82c6.59 3.93 13.94 6.89 19.76 12 .48.42 1.19-.28.7-.71-5.89-5.17-13.29-8.17-20-12.15a.5.5 0 0 0-.51.86Zm36.21 12.16c-5.08 3.31-10.92 5.41-15.53 9.43-.48.43.23 1.13.71.71 4.54-4 10.32-6 15.32-9.28.54-.35 0-1.22-.5-.86Z" class="cls-5"/><path d="M366.8 429c-6.74-2.77-32.3-20-41.07-41.62-12.6 12-22.81 16.28-30.46 23.65s-26.55 10.13-37.8-6.45c-15.29-20.74-28.7-27.8-28.7-27.8s-34.19 14.22-44.09 39.13c15.75 21.19 27 32.71 27 32.71-4 13.36-9 56.67-9 56.67-13.05 26.72-34.2 124.86-40.5 135 1.35 5.53 11.7 5.07 18.9 14.28s14.85 12 31 4.15 25.2 12 37.8 13.36 22.49-10.14 40.49-7.83 24.74 10.59 35.09 10.13 21.15-13.36 33.3-12.9c-.9-26.26-27.9-140.06-27.9-140.06 0-20.74.81-56.52.81-56.52Z" style="fill:#1c4e9d" transform="translate(-95.46 -22.11)"/><path d="M235.39 217.79c-16-2.07-30.52-19.71-18.63-34.51-25.2-18.42-19.9-47.73-1.56-49.82-21.75-26.17-2.91-39.65 12.05-38.8-14.92-28.15 21.83-45 34.28-34.75-6.65-29 38.84-42.1 47.92-21.54 9.22-20.25 45.31-22.64 49.88 2.63 13.56-14.78 39.5-7.14 39.15 13.25 16.82-10.51 42.63 4.91 32.21 31.14 21.07.35 39.56 22.26 20.84 47.15 23.75 6.39 27 41.24 5.89 45.69 20.25 16.54 5.25 52.88-21.33 50-7.2 60.63-185.72 55.21-200.7-10.44Z" style="stroke:#161616;stroke-miterlimit:10;fill:#010101" transform="translate(-95.46 -22.11)"/><path d="M158.92 353.59c-.73 11.24-.62 20.68-.5 30.14.31 24.16 51.16 22.91 51.53.86s-1.11-29.7-1.11-29.7Z" class="cls-4"/><path d="M288.71 276.11c32.95-113.88-130-206.28-205.43-96.05l-.6 1.2c-14.7 30-7.23 62.5.14 91.56 6.62 26.06-19 48.58 23.32 76.74 28.32 18.87 136.77 27.94 166-24.68 45.96 23.72 68.59-64.99 16.57-48.77Z" class="cls-2"/><path d="M290.22 131.21c-42 1.1-103.93 12.22-117 71.24-.16 9.6 12.62-1 14.56-9.35 15.56 2.06 22.51-6.39 25.37-10.38 11 12.35 34 8.22 43.25-2.87 1.73 9.77 23.91 11.85 32.29 6.54.27 13.14 20.73 15.94 31.59 11.92-2.66 15.56 4.29 28.23 24.75 26.19 7.17 2.54-6.86 16.71 5.62 23.52s-5.6 16.16 4.44 24.1 3.91 16.88 3.63 32.43 14.46 32 19.69 6.33c3.91-18.54 22.91-16 25.59-14.57 21.61-9.24 33.16-162.04-113.78-165.1Z" style="fill:#161616" transform="translate(-95.46 -22.11)"/><path d="M194.76 108.6a234.44 234.44 0 0 0-32.51 3 150.84 150.84 0 0 0-33.71 9.47 94.48 94.48 0 0 0-29.37 19A78.06 78.06 0 0 0 79.7 171.4q-.78 2.37-1.43 4.79a16 16 0 0 0-1 5c.11 1.71.87 3.51 2.83 3.55 2.15 0 4.21-1.56 5.74-2.89a24.39 24.39 0 0 0 5.47-6.85 16 16 0 0 0 1.48-3.79l-.48.37c6.06.77 12.35.13 17.7-3a26.49 26.49 0 0 0 8.1-7.64l-.78.11c8.94 9.9 24.84 9.34 35.86 3.49a27.25 27.25 0 0 0 8.09-6.37l-.83-.22c.86 4.5 5.42 6.94 9.41 8.21A36 36 0 0 0 186 167.3a20 20 0 0 0 7.47-2.51l-.75-.43c.35 11.51 14.5 14.59 23.71 14.05a29.52 29.52 0 0 0 8.52-1.65l-.62-.61c-1.46 8.72-.11 18.82 8.05 23.85 4.5 2.77 10 3.41 15.21 3.12 1.14-.06 2.25-.35 3.05.64a3 3 0 0 1 .58 1.94 21.43 21.43 0 0 1-1 5.3c-1 3.91-1.82 8.38.65 11.94a10.54 10.54 0 0 0 2.35 2.41c1.19.88 2.57 1.47 3.71 2.41a5.72 5.72 0 0 1 2.29 5c-.28 3.73-2.84 6.89-3.25 10.61a7.24 7.24 0 0 0 1.37 5.21c1.53 2 3.83 3.3 5.29 5.44 2.83 4.14 2.3 9.22 1.63 13.93-.82 5.76-2 11.69-1.43 17.53a27 27 0 0 0 4 12c1.6 2.46 4.07 5.22 7.24 5.32 3.65.11 5.91-3.57 7.15-6.51s1.73-6.06 2.61-9.12a19.19 19.19 0 0 1 3.53-7c4.53-5.51 12.63-7.46 19.45-5.91.73.17 1.49.66 2.18.33a6.87 6.87 0 0 0 1.3-.8 13.1 13.1 0 0 0 2.6-2.71 32.49 32.49 0 0 0 4.39-8.87 73.72 73.72 0 0 0 3.11-12.88 115.33 115.33 0 0 0 1.36-16 138.35 138.35 0 0 0-4.5-37.34 127.55 127.55 0 0 0-6.71-19.47 114.77 114.77 0 0 0-10.52-18.73 105.82 105.82 0 0 0-34-31.28 120.58 120.58 0 0 0-24.41-10.7 154 154 0 0 0-30-6.14c-5.59-.61-11.22-.94-16.84-1.07a.5.5 0 0 0 0 1 173.45 173.45 0 0 1 38.63 4.92 125.3 125.3 0 0 1 30.14 11.74 105 105 0 0 1 39.25 37.7 118.71 118.71 0 0 1 10.66 22.74 133.81 133.81 0 0 1 5.71 23 135.73 135.73 0 0 1 1.67 21.77 113.72 113.72 0 0 1-1.57 18.88 65.57 65.57 0 0 1-4 14.37c-1.25 2.95-2.92 6.22-5.5 8.18a7.88 7.88 0 0 1-1.51.89h.51a12.76 12.76 0 0 0-4.8-1 24.37 24.37 0 0 0-7.93.75c-7.12 1.92-11.87 7.52-13.5 14.63-1 4.37-3.91 17.07-11.07 12.63-2.42-1.49-4.06-4.13-5.24-6.65a27 27 0 0 1-2.49-10.49c-.16-4.87.65-9.75 1.36-14.56.55-3.69 1.17-7.57.33-11.27a12.88 12.88 0 0 0-2.06-4.65 30.82 30.82 0 0 0-4.24-4.23c-2.59-2.48-2.5-5.55-1.35-8.71.94-2.63 2.49-5.27 2.48-8.13a6.27 6.27 0 0 0-1.32-3.82c-1.23-1.58-3-2.37-4.59-3.45-3.29-2.19-4.42-5.6-4-9.41.35-3.1 1.61-6.05 1.82-9.16a4.65 4.65 0 0 0-.65-3 3.33 3.33 0 0 0-1.14-1 4.9 4.9 0 0 0-2.82-.19 26.69 26.69 0 0 1-13-2.07c-6.84-3.25-9.79-10.3-9.81-17.57a35.29 35.29 0 0 1 .53-6.07c.05-.34-.23-.75-.62-.61a32.26 32.26 0 0 1-14.66 1.43c-4.8-.57-10.05-2.12-13.43-5.77a10.77 10.77 0 0 1-2.87-7.1.51.51 0 0 0-.75-.44c-4 2.47-9.11 2.91-13.66 2.77-4.78-.15-10-1.05-14.08-3.76a8.32 8.32 0 0 1-3.82-5.25.5.5 0 0 0-.83-.22c-3.91 4.61-9.51 7.56-15.28 9.09a31.57 31.57 0 0 1-18.61-.42 21.6 21.6 0 0 1-8.66-5.79.5.5 0 0 0-.78.1 25.49 25.49 0 0 1-7.74 7.28c-5.21 3-11.31 3.6-17.2 2.85a.48.48 0 0 0-.48.37 19.05 19.05 0 0 1-4.19 7.64 16.45 16.45 0 0 1-5.91 4.79 2.91 2.91 0 0 1-2.41.16c-.86-.48-1.05-1.71-1.06-2.6a19.08 19.08 0 0 1 1.1-4.9q.66-2.4 1.45-4.76a76.79 76.79 0 0 1 18.78-30.17 92.74 92.74 0 0 1 28-18.46 144.72 144.72 0 0 1 32.09-9.49 222.16 222.16 0 0 1 31.51-3.35c1.18-.05 2.37-.08 3.56-.12a.52.52 0 0 0 .04-1.04Zm28.97 193.14c-3.43-6.37-9-11.5-16.26-12.93a25.74 25.74 0 0 0-18.13 3.53 27.71 27.71 0 0 0-7.87 7.15c-.38.52.48 1 .86.5a26.91 26.91 0 0 1 14.85-9.87 21.84 21.84 0 0 1 17.63 2.83 25.76 25.76 0 0 1 8.05 9.29c.31.57 1.17.07.87-.5Z" class="cls-9"/><path d="M217.88 294.77a18.2 18.2 0 0 0 5.29-2c1.74-.92 3.41-2 5.11-3a.5.5 0 0 0-.5-.86c-1.66 1-3.28 2-5 2.88a17.74 17.74 0 0 1-5.21 2c-.63.11-.36 1.07.27 1ZM94.35 283.53c.66-3.23 4.2-4.63 7.15-4.91a18.51 18.51 0 0 1 12.68 3.92 23.27 23.27 0 0 1 6.25 7.41c.31.56 1.17.06.86-.51a22.92 22.92 0 0 0-12.62-10.93c-3.82-1.26-8.54-1.52-12.12.6a6.48 6.48 0 0 0-3.17 4.15c-.13.63.84.9 1 .27Z" class="cls-9"/><path d="M98.41 277.66a5.14 5.14 0 0 1-2-1.3 20.67 20.67 0 0 1-2.25-2.51 22.8 22.8 0 0 1-1.83-2.73 6.45 6.45 0 0 1-.87-2.1c-.1-.64-1.07-.37-1 .26a6 6 0 0 0 .66 1.74 19.24 19.24 0 0 0 1.34 2.22 20.88 20.88 0 0 0 3.61 4.18 5.33 5.33 0 0 0 2 1.2.518.518 0 0 0 .27-1Zm102.91-41.53a42 42 0 0 1 15.5 4.44 40.71 40.71 0 0 1 11.89 9.38 46 46 0 0 1 5 7.07.502.502 0 0 0 .87-.5 42.65 42.65 0 0 0-23.87-19.54 45 45 0 0 0-9.41-1.85c-.64-.06-.63.94 0 1Zm-114.96 6.56c.63-3.18 3.33-5.62 5.89-7.35a30 30 0 0 1 11.17-4.55 24 24 0 0 1 6.76-.34c.64.07.63-.93 0-1a27.44 27.44 0 0 0-12.5 2 25 25 0 0 0-9.85 6.44 10.05 10.05 0 0 0-2.43 4.57c-.12.63.84.9 1 .27Z" class="cls-9"/><path d="M139.86 304.54c-1.47-1.9-3-4.87-1-7 1.81-2 5-2.24 7.52-2.12a20.77 20.77 0 0 1 5.79 1.17c.61.21.87-.75.27-1a18.43 18.43 0 0 0-10.74-.76c-2.48.67-4.88 2.42-4.78 5.24a9.24 9.24 0 0 0 2.29 5.14c.39.51 1.09-.21.7-.71Zm170.47-10.06c-.9-2.82-3.13-5.36-6.18-5.82-4.12-.63-7.53 2.59-9.74 5.68a42.92 42.92 0 0 0-5.33 11.21c-.2.61.76.87 1 .27a44.68 44.68 0 0 1 4.43-9.78 16.69 16.69 0 0 1 4.64-5.11c2.42-1.61 5.46-1.9 7.78 0a8 8 0 0 1 2.46 3.77c.2.61 1.17.35 1-.27Z" class="cls-5"/><path d="M98.54 161.89c1.13-6.22 4.65-11.9 8.47-16.82a80.24 80.24 0 0 1 14.9-14.73 55.3 55.3 0 0 1 8.52-5.42c.58-.29.07-1.15-.5-.86a66 66 0 0 0-15.64 11.48 69.51 69.51 0 0 0-13.09 16.48 32.17 32.17 0 0 0-3.62 9.6c-.12.63.85.9 1 .27Zm24.32-5.75a103 103 0 0 1 11.68-17.25 70.86 70.86 0 0 1 16.2-14.76 34.52 34.52 0 0 1 10.21-4.49c.63-.15.36-1.12-.26-1-6.77 1.64-12.75 5.69-17.91 10.23a93.92 93.92 0 0 0-14.81 17 102.11 102.11 0 0 0-6 9.74c-.31.57.55 1.07.86.5Zm40.56-3.37c3.47-5.58 7-11.15 10.93-16.39s8.58-10.44 14.1-14.25a32.11 32.11 0 0 1 9.45-4.55.517.517 0 0 0-.26-1c-6.25 1.74-11.65 5.61-16.23 10.1a99.82 99.82 0 0 0-12.87 16.21c-2.06 3.09-4 6.24-6 9.39-.34.54.53 1.05.87.5Zm34.91 6.54c8.67-8.42 15.61-18.32 23.21-27.69 2.15-2.66 4.36-5.28 6.67-7.81.43-.48-.27-1.18-.71-.71-8.1 8.87-14.85 18.85-22.71 27.93q-3.4 3.93-7.13 7.57c-.46.45.24 1.16.71.71Zm33.02 16.3c4.61-5.55 9.85-10.55 14-16.44a57.69 57.69 0 0 0 4.81-7.83c1.37-2.75 2.54-5.59 3.84-8.37 1.2-2.58 2.47-5.38 4.53-7.4a.5.5 0 0 0-.7-.71 22.35 22.35 0 0 0-4.09 6.32c-1.34 2.75-2.5 5.58-3.81 8.35a69.17 69.17 0 0 1-11.24 16.27c-2.7 3-5.49 6-8.08 9.1-.41.49.29 1.21.7.71Zm26.62 22.94a147 147 0 0 0 12.63-16.36c3.4-5.2 5.54-11 7.81-16.79a69.1 69.1 0 0 1 3.73-8.39.504.504 0 0 0-.87-.51c-2.75 4.95-4.45 10.46-6.63 15.66a53.78 53.78 0 0 1-4 8.16c-1.84 2.92-3.83 5.75-5.92 8.5-2.36 3.1-4.86 6.09-7.43 9-.42.49.28 1.2.71.71Zm14.32 31.74a74.06 74.06 0 0 0 14.83-17.09c1-1.6 1.94-3.23 2.79-4.91s1.88-3.35 2.7-5.09a86.11 86.11 0 0 0 4.07-10.91c.64-2.07 1.18-4.18 1.76-6.27.3-1.09.59-2.19.81-3.3.09-.48.25-1 .36-1.43 0-.21.09-.42.14-.63a1.29 1.29 0 0 0 0-.19c0-.16.14-.16-.05-.07l-.38.06c-.23 0-.19-.21-.08.13.2.6 1.17.34 1-.27-.14-.43-.46-1.11-1-.76s-.49 1.18-.6 1.64c-.48 2-1 4.06-1.55 6.08s-1.06 3.9-1.68 5.83-1.3 3.94-2.05 5.88a56.2 56.2 0 0 1-2.54 5.66c-.48.9-1 1.76-1.49 2.67s-.91 1.75-1.39 2.61a69.66 69.66 0 0 1-6.8 10 74 74 0 0 1-9.52 9.7c-.49.42.22 1.13.71.71Zm12.01 34.85a80.42 80.42 0 0 0 14.65-20.34 99 99 0 0 0 9.24-24.52 56.35 56.35 0 0 0 1.51-12.67.5.5 0 0 0-1 0c.06 7.87-2 15.72-4.6 23.08a102.94 102.94 0 0 1-11.88 23.35 67.63 67.63 0 0 1-8.63 10.39c-.46.45.25 1.16.71.71Z" class="cls-9"/><path d="M211.69 322.09c-.11 7.08-7.73 12.69-17 12.54s-16.69-6-16.57-13.11 7.73-12.69 17-12.53 16.69 6.02 16.57 13.1Zm-92.63-6.75c-2.53 6.61-11.6 9.29-20.27 6s-13.63-11.36-11.1-18 11.6-9.29 20.27-6 13.63 11.39 11.1 18Z" style="fill:#9a3728"/><path d="M260 340.45c-11.7-.6-31.06-3.83-38-6.6 2.7 19.19 7.2 30 14.4 29.69s17.26 1.81 23.6-23.09Z" style="fill:#64140f" transform="translate(-95.46 -22.11)"/><path d="M228.25 357.59c2.21 4 4.8 5.87 8 6.36 5.06.79 12.27.41 18-8.88.48-.81 1-1.67 1.4-2.59-5.24-1.95-20.07-2.4-27.4 5.11Z" style="fill:#8d1812" transform="translate(-95.46 -22.11)"/><path d="M234.13 483.34a110.62 110.62 0 0 1-21.69 5.15 125 125 0 0 1-23 1.63c-4.66-.17-9.33-.55-14-.92-5.15-.41-10.29-.9-15.42-1.44s-10.28-1.16-15.41-1.81c-2.43-.31-4.89-.53-7.29-1q-2.29-.45-4.59-1c-7.23-1.59-14.44-3.36-21.55-5.45l-2-.61c-.62-.19-.88.77-.27 1 7 2.17 14.07 3.9 21.18 5.52 3.47.8 6.93 1.53 10.47 2 5.22.69 10.44 1.34 15.68 1.92q15.39 1.73 30.85 2.65a117.84 117.84 0 0 0 22.45-1.09 125.64 125.64 0 0 0 22.54-4.81c.76-.25 1.52-.51 2.28-.79.6-.22.34-1.19-.27-1Zm-32.59 8.37c1.38 10.69 2.61 21.41 3.57 32.16s1.66 21.23 2 31.87q.33 9.23.33 18.45a.5.5 0 0 0 1 0q0-16.24-1-32.48c-.65-10.62-1.59-21.21-2.75-31.78q-1-9.12-2.18-18.22c-.08-.63-1.09-.64-1 0Z" class="cls-13"/><path d="M186.35 490.06a191 191 0 0 0 1.46 26.08c.34 2.46.75 4.91 1.26 7.34.13.63 1.09.37 1-.26a143.14 143.14 0 0 1-2.6-25.71c-.06-2.48-.08-5-.08-7.45a.5.5 0 0 0-1 0Zm-48.36-3.74c-2.62 10.36-8.8 19.34-12.49 29.29-3.94 10.61-7.17 21.46-10.65 32.23-2 6.08-4 12.15-6.32 18.12-.23.6.74.86 1 .27 4.06-10.58 7.35-21.42 10.79-32.2 1.72-5.39 3.49-10.77 5.42-16.1.94-2.6 1.91-5.18 3.07-7.7s2.31-4.79 3.48-7.17c2.62-5.31 5.23-10.71 6.69-16.47a.518.518 0 0 0-1-.27Zm-13.21-82.9c-4.19 8.4-8.22 17-10 26.31a57 57 0 0 0-.92 8.14c0 .64 1 .64 1 0 .36-9.42 3.4-18.36 7.31-26.86 1.09-2.38 2.25-4.74 3.42-7.08.29-.58-.57-1.09-.86-.51Z" class="cls-13"/><path d="M473.53 246.72c-21.28 11-66.23 135.42-113 177.71-20.24-9.22-32.75-33.29-32.75-33.29 17.55-23.4 62.09-84.13 86.84-134.08 14.84-27.44 31.08-51 36.44-51.74 13.8-1.95-4.95 16.65-3.15 16.65 13.95-10.8 35.54-13.5 39.59-10.35s-9.45 8.55-9.45 8.55c16.65-7.2 27.45-2.25 14 5.4 12.37-.3 6.67 8.1-18.52 21.15Z" style="fill:#af6445" transform="translate(-95.46 -22.11)"/><path d="M396.83 202.38a83.84 83.84 0 0 0-18.24 5.73c-1.27.58-2.53 1.19-3.78 1.82-.57.29-.07 1.15.51.86a82 82 0 0 1 15.42-6c2.1-.57 4.22-1.05 6.36-1.48.63-.13.36-1.09-.27-1Zm-7.5-7.49c-7.34 2.54-15.2 4-22 7.85a.5.5 0 0 0 .51.86c6.74-3.82 14.52-5.23 21.77-7.74.61-.21.35-1.18-.26-1Zm-38.31 6.23c4.23 4.2 9.48 7.39 13.12 12.19.38.51 1.25 0 .86-.5-3.7-4.88-9-8.12-13.28-12.4a.5.5 0 0 0-.7.71Z" class="cls-5"/><path d="M269.2 403.99c-1.65-.76-3.33-1.45-5-2.24a70.58 70.58 0 0 1-7.67-4.22 62.25 62.25 0 0 1-17.79-16.81 63.49 63.49 0 0 1-8-15.87c-.21-.61-1.17-.35-1 .26a63.19 63.19 0 0 0 15.81 25.11 68 68 0 0 0 17.19 11.94c1.94 1 3.94 1.79 5.9 2.69.59.27 1.09-.59.51-.86Z" class="cls-13"/></svg>
