<?xml version="1.0" encoding="UTF-8" standalone="no"?>
<svg
   id="Camada_1"
   data-name="Camada 1"
   viewBox="0 0 405.28 806.67"
   version="1.1"
   sodipodi:docname="LuluzinhaSaudacao.svg"
   inkscape:version="1.3 (0e150ed6c4, 2023-07-21)"
   xmlns:inkscape="http://www.inkscape.org/namespaces/inkscape"
   xmlns:sodipodi="http://sodipodi.sourceforge.net/DTD/sodipodi-0.dtd"
   xmlns="http://www.w3.org/2000/svg"
   xmlns:svg="http://www.w3.org/2000/svg">
  <sodipodi:namedview
     id="namedview53"
     pagecolor="#ffffff"
     bordercolor="#000000"
     borderopacity="0.25"
     inkscape:showpageshadow="2"
     inkscape:pageopacity="0.0"
     inkscape:pagecheckerboard="0"
     inkscape:deskcolor="#d1d1d1"
     inkscape:zoom="0.62850981"
     inkscape:cx="130.46733"
     inkscape:cy="395.37967"
     inkscape:window-width="1360"
     inkscape:window-height="731"
     inkscape:window-x="0"
     inkscape:window-y="0"
     inkscape:window-maximized="1"
     inkscape:current-layer="Camada_1" />
  <defs
     id="defs1">
    <style
       id="style1">.cls-1{fill:#6c6c6b;}.cls-10,.cls-2{fill:#010101;}.cls-2{stroke:#161616;stroke-miterlimit:10;}.cls-3{fill:#974f32;}.cls-4{fill:#080606;}.cls-5{fill:#004e9e;}.cls-6{fill:#833c20;}.cls-7{fill:#e8e7e7;}.cls-8{fill:#64140f;}.cls-9{fill:#4f190d;}.cls-11{fill:#8d1812;}.cls-12{fill:#161616;}.cls-13{fill:#27306b;}.cls-14{fill:#9a3728;}</style>
  </defs>
  <ellipse
     class="cls-1"
     cx="204.82"
     cy="780.99"
     rx="127.77"
     ry="25.68"
     id="ellipse1" />
  <path
     class="cls-2"
     d="M177.52,230c-17.73-1.83-38.52-23.84-25.68-39.13-28.12-18.34-17.73-43.4,2.45-45.85-24.46-26.29.84-47.61,17.35-47-17-28.43,19.64-50.51,33.54-40.27-7.87-29.43,42-43.56,52.43-22.78,9.78-20.78,49.52-23.84,55,1.84C327.3,21.5,356,28.84,356,49.63c18.34-11,47.08,4.28,36.07,31.18,23.23,0,44,22,23.84,47.68,26.29,6.12,30.57,41.58,7.34,46.47,22.62,16.5,5.5,46.46-23.84,44C398.22,253.82,195.25,296.62,177.52,230Z"
     transform="translate(-94.13 -17.94)"
     id="path1" />
  <path
     class="cls-3"
     d="M342.69,641.08c5.72,41.36-2.32,109.67-.44,125.15s17.73,20.64,24.75,29,.13,13.84-14.41,8.21-28.83-10-32.77-13.9c-1.4-1.37-3-4.11-5.29-19.53s-12.61-81.89-17.72-122.42C297.56,633.07,342.69,641.08,342.69,641.08Z"
     transform="translate(-94.13 -17.94)"
     id="path2" />
  <path
     class="cls-3"
     d="M344.22,705.77c.83-22.19,1-46.14-1.53-64.69,0,0-45.13-8-45.88,6.54,2.27,18,5.56,41.11,8.72,62.6C313.37,709.83,331.37,707.82,344.22,705.77Z"
     transform="translate(-94.13 -17.94)"
     id="path3" />
  <path
     class="cls-4"
     d="M328,776c3.58-2.36,8.83-7.36,14.69-7.17a22.06,22.06,0,0,0,2.6,6.31c-5.75.14-11.76,3.57-11.73,6s10.7,8.86,19.8,2.83c4.9,4,10.26,7.3,13.62,11.3,7,8.39.13,13.84-14.41,8.21s-28.83-10-32.77-13.9c-1.2-1.17-2.52-3.38-4.34-13.69C318.37,775.16,324.49,778.29,328,776Z"
     transform="translate(-94.13 -17.94)"
     id="path4" />
  <path
     class="cls-3"
     d="M240,643.19c1.37,41.72,14.67,107.75,14.67,123.34s-15.13,22.62-21.09,31.79,1.53,13.76,15.28,6.42S276.24,791.32,279.7,787c1.22-1.53,2.44-4.43,2.9-20s6-78,4.13-118.76C283.52,634,240,643.19,240,643.19Z"
     transform="translate(-94.13 -17.94)"
     id="path5" />
  <path
     class="cls-3"
     d="M240,643.19c.6,18.36,3.51,41.42,6.59,62.82,13.6.88,32,1.13,39.5.37.91-19.8,1.45-40.9.68-58.15C283.52,634,240,643.19,240,643.19Z"
     transform="translate(-94.13 -17.94)"
     id="path6" />
  <path
     class="cls-3"
     d="M357.34,396.65c14.67-6.72,59.91-22,72.44-49.21S452.54,285.5,450,268.57c-2.14-14.06-3.82-25.68,1.07-27.21s8.1,19.26,8.1,19.26c9.17-16.5,29.65-21.7,35.46-16.81s8.4,7.18-4.13,24.61S473.19,345.3,457.91,375s-45.55,54.71-98.43,62.36C355.81,417.74,357.34,396.65,357.34,396.65Z"
     transform="translate(-94.13 -17.94)"
     id="path7" />
  <path
     class="cls-3"
     d="M200.52,442.81c-11.46,15.59-33.93,74.28-46.77,105.92s-16.05,38.06-25.67,43.56S96,604.21,94.6,612.92s-.46,15.14,12.84,12.38,28-14.21,30.26-10.08,2.76,15.13,9.18,13.75,2.29-13.3,6-18.8S184,570.28,195,539.56s30.26-57.77,37.14-77S200.52,442.81,200.52,442.81Z"
     transform="translate(-94.13 -17.94)"
     id="path8" />
  <path
     class="cls-5"
     d="M186.77,442c11.61-10,37.9-47.19,87.73-38.22,39.43-.66,78.25-14.95,92-16.95,2.45.67,4.28,59.49,4.28,59.49C364.68,450.35,354,456,354,456c3.36,17.95,1.53,49.52,2.14,51.85S389.89,634.14,393.56,671c-11.16,9-12.53-3.49-28.58,2S344,679,333,673s-20.18-4-34.39,2-25.68-.49-33.93-1-19.26,5-33.93,5.48-20.64-5.48-29.35-5c.46-12,18.8-137.6,28-162.53.46-15.95-.46-34.4-.46-34.4S195.48,457.33,186.77,442Z"
     transform="translate(-94.13 -17.94)"
     id="path9"
     style="fill:#fdca39;fill-opacity:1" />
  <path
     class="cls-6"
     d="M262.32,375c-.55,11.46-.28,21.08,0,30.72.73,24.61,52.53,22.47,52.53,0s-1.64-30.26-1.64-30.26Z"
     transform="translate(-94.13 -17.94)"
     id="path10" />
  <path
     class="cls-3"
     d="M189,305.79c-14.06-14.67-34.54-14.37-41.26-.61-6,12.19,4.28,37,23.84,41.88a30.65,30.65,0,0,0,30.87-9.48Z"
     transform="translate(-94.13 -17.94)"
     id="path11" />
  <path
     class="cls-3"
     d="M391,304c14.06-14.67,34.54-14.36,41.27-.61,6,12.2-4.28,37-23.84,41.88a30.67,30.67,0,0,1-30.88-9.47Z"
     transform="translate(-94.13 -17.94)"
     id="path12" />
  <path
     class="cls-3"
     d="M287.41,129.72c-69.13,1.45-125.77,64.82-114.93,132.66,14.75,92.39,34.23,107.6,66.64,120.44S362,395.53,385.31,347.9c22.92-46.77,34.77-102,17.65-144.82S345.49,128.49,287.41,129.72Z"
     transform="translate(-94.13 -17.94)"
     id="path13" />
  <path
     class="cls-7"
     d="M221.92,283.32c-6.88,6.19-11.69,17-6.42,28s15.13,12.65,23.84,12.38c12.54-.38,26.83-16.12,11.93-38.59C242.33,274.3,225.82,280.34,221.92,283.32Z"
     transform="translate(-94.13 -17.94)"
     id="path14" />
  <path
     class="cls-8"
     d="M268.23,336.28c5-.69,34.85-1.37,45.63-3C312.94,365.63,275.11,375,268.23,336.28Z"
     transform="translate(-94.13 -17.94)"
     id="path15" />
  <path
     class="cls-9"
     d="M285.78,323.24a13.08,13.08,0,0,1-3-3.64,3.63,3.63,0,0,1-.41-2.6,3.37,3.37,0,0,1,1.46-1.8,8.68,8.68,0,0,1,2.83-1.12,17.72,17.72,0,0,1,7.43,0c2,.41,4.38,1.2,5.65,2.86,1.66,2.18.16,4.79-1.5,6.62-.43.47.27,1.18.71.7,1.7-1.88,3.32-4.53,2.1-7.09-1-2.13-3.52-3.23-5.67-3.81a19.15,19.15,0,0,0-8.18-.39c-2,.34-4.56,1.15-5.55,3.14-1.21,2.46.7,5.07,2.33,6.78.36.37.73.72,1.11,1.07s1.19-.28.71-.71Z"
     transform="translate(-94.13 -17.94)"
     id="path16" />
  <path
     class="cls-10"
     d="M213,249.49c4.9-6.56,12.75-10.34,20.43-12.59,2.13-.62,4.29-1.13,6.48-1.55.63-.12.36-1.08-.27-1-8.07,1.52-16.29,4.37-22.73,9.63a28.06,28.06,0,0,0-4.77,5c-.39.51.48,1,.86.5Z"
     transform="translate(-94.13 -17.94)"
     id="path17" />
  <path
     class="cls-10"
     d="M337.85,234.76c8.56,0,17.67,2.32,24.5,7.66a25,25,0,0,1,5,5.24c.37.52,1.23,0,.86-.51-5.24-7.42-14.19-11.36-22.94-12.78a46.41,46.41,0,0,0-7.45-.61.5.5,0,0,0,0,1Z"
     transform="translate(-94.13 -17.94)"
     id="path18" />
  <path
     class="cls-10"
     d="M234.08,285.38c-14.72,3.49-17.6,28.21,1.84,32.26C261.69,323,264.33,278.21,234.08,285.38Z"
     transform="translate(-94.13 -17.94)"
     id="path19" />
  <path
     class="cls-11"
     d="M274.88,352.33c.09.42.23.79.34,1.2,8.87,11.45,23,10.1,31.49,0C298.72,345,282.14,342.3,274.88,352.33Z"
     transform="translate(-94.13 -17.94)"
     id="path20" />
  <path
     class="cls-12"
     d="M178.59,302.43c12.61,14.67,9.17-14.06,5-32.41-1.83-10.08,7.71-8.43,11.47-22.62,2.06-7.79-3-19,3.44-25,12.61-.68,17.65-20.4,19.94-23,10.55,9.25,26.83-12.3,29.81-13.22,16.73,3.9,32.09-3.9,37.6-9.4,4.81,3.21,15.81,13.22,39,4.28,6,10.09,17,19,31.18,14.21,5.5,16.74,11,19.95,23.38,22,6,3.9-4.35,20.87,12.84,25.91-.23,2.29-5.73,16.28,1.15,21.09s6.65,5.73,5,11.47-6,27.74.92,27.74,10.55-19.95,13.53-39.21,3.82-78.63-50.29-115-115.55-23.54-158,11-40,68.42-38.44,95.45C167.51,280,175.38,298,178.59,302.43Z"
     transform="translate(-94.13 -17.94)"
     id="path21" />
  <path
     class="cls-10"
     d="M178.24,302.78c1.43,1.66,4.51,5.32,7.14,3.88,2.34-1.29,2.4-5.31,2.49-7.58a80.76,80.76,0,0,0-1-14.4q-.59-4.15-1.37-8.28c-.48-2.55-1.29-5.16-1.51-7.75a8,8,0,0,1,1.21-5.23,27.45,27.45,0,0,1,3.56-3.91,25.14,25.14,0,0,0,7.15-13.34c.92-5.66-.84-11.38,0-17a11.83,11.83,0,0,1,1.29-4.1,8.29,8.29,0,0,1,1.2-1.68c.45-.49.75-.46,1.39-.55a13.53,13.53,0,0,0,5.86-2.42c6.62-4.7,9-12.61,12.59-19.49a5,5,0,0,1,.68-1.13h-.71c7.51,6.44,17.17-1.35,22.9-6.5,1.53-1.38,3-2.82,4.51-4.23.55-.51,1.1-1,1.67-1.52.3-.24.76-.74,1.15-.82a2.85,2.85,0,0,1,.68.18c.51.11,1,.2,1.55.29.91.15,1.83.28,2.75.37a41,41,0,0,0,6,.17A45.49,45.49,0,0,0,270,185.94c5.84-1.69,11.87-4.48,16.24-8.8l-.61.08a56.82,56.82,0,0,0,9,5.42,33.52,33.52,0,0,0,16.6,2.36A53.66,53.66,0,0,0,325,181.55l-.56-.23c3.13,5.25,7.39,10,12.82,13a23.7,23.7,0,0,0,18.92,1.49l-.61-.35c1.72,5.19,3.74,10.62,7.36,14.82a20.75,20.75,0,0,0,10.4,6.26c1.14.32,2.29.58,3.44.82,1,.19,2.3.15,3,.92a6.49,6.49,0,0,1,1.25,4c.26,3.78-.25,7.58.62,11.32,1.25,5.38,5.36,8.59,10.49,10.13l-.37-.48a26.89,26.89,0,0,1-.88,3.51,47.61,47.61,0,0,0-1.15,5.68c-.5,3.67-.56,8.06,2,11.05s7.82,4.25,7,8.92c-.26,1.6-.8,3.14-1.19,4.71s-.72,3.17-1,4.76a78.75,78.75,0,0,0-1.43,11.64c-.1,2.85-.24,6.61,1.51,9.06,1.46,2,4,1.7,5.77.21,2.89-2.48,4.22-6.81,5.3-10.31a144.8,144.8,0,0,0,4.06-18.19c.74-4.25,1.5-8.5,2-12.78a114.94,114.94,0,0,0,.69-16.17,126.68,126.68,0,0,0-9.4-45.38,113.65,113.65,0,0,0-36.76-47.19,126.84,126.84,0,0,0-67.84-25.52c-22.94-1.45-46,3.73-66.55,13.74a153.7,153.7,0,0,0-28.52,18c-9.9,7.89-19,17-26,27.57a85.22,85.22,0,0,0-11.79,26.9A106.05,106.05,0,0,0,165,238.5c0,19.41,1.87,39.38,9.62,57.36a36.33,36.33,0,0,0,3.58,6.82c.37.52,1.24,0,.86-.51a36.18,36.18,0,0,1-3.62-6.92,99.1,99.1,0,0,1-4.4-12.76c-2.93-10.63-4.11-21.46-4.68-32.45a158.79,158.79,0,0,1,.16-23.39,86.68,86.68,0,0,1,6.35-25.74c9.06-21.37,27-38.17,46.24-50.49,18.91-12.1,40.59-20.08,63-22a123,123,0,0,1,68.23,14.06c19.39,10.31,36.13,25.32,47.2,44.39a120.29,120.29,0,0,1,15.17,46.9,128,128,0,0,1,.75,18.88A134.49,134.49,0,0,1,411.49,270c-1,6.21-2.11,12.42-3.69,18.51-1.1,4.21-2.3,9.12-5.13,12.56-1.57,1.92-4.33,2.93-5.61.19-1.37-2.92-1-6.75-.8-9.86A86.89,86.89,0,0,1,398,280c.27-1.31.57-2.61.92-3.9a18.79,18.79,0,0,0,1-5c-.06-4.07-4.7-5.62-7.11-8.07-2.92-3-2.54-7.92-1.91-11.68.47-2.76,1.57-5.46,1.89-8.23a.49.49,0,0,0-.36-.48c-4.76-1.44-8.58-4.35-9.77-9.33-.88-3.68-.36-7.43-.61-11.16a8.65,8.65,0,0,0-1-3.93,3.88,3.88,0,0,0-1.25-1.36,13,13,0,0,0-3.31-.7c-4.11-.86-8.18-2.22-11.32-5.11-4.51-4.14-6.77-10.31-8.65-16a.5.5,0,0,0-.61-.35,22.67,22.67,0,0,1-18.45-1.55,33.75,33.75,0,0,1-12.17-12.43.49.49,0,0,0-.56-.23c-6.94,2.65-14.46,4.33-21.9,3.3a31.5,31.5,0,0,1-12.61-4.74c-1.39-.88-2.71-1.87-4.08-2.79a.51.51,0,0,0-.61.08c-3.77,3.73-8.86,6.24-13.84,7.92A43,43,0,0,1,249.75,186c-.87-.17-1.45-.45-2.2,0a9,9,0,0,0-1.2.93c-1.24,1.07-2.41,2.24-3.6,3.36a58.1,58.1,0,0,1-10.55,8.41c-4.19,2.44-9.32,3.81-13.36.35a.5.5,0,0,0-.71,0,11.33,11.33,0,0,0-1.49,2.68c-.71,1.55-1.38,3.12-2.11,4.67a40,40,0,0,1-6.89,10.85,16,16,0,0,1-5.28,3.78,11.88,11.88,0,0,1-3,.81,2.89,2.89,0,0,0-1.14.21,5.45,5.45,0,0,0-1.35,1.55c-3.16,4.46-2.14,10.55-1.82,15.64a25.41,25.41,0,0,1-.5,8.43,24.73,24.73,0,0,1-3.64,7.8c-2.07,2.9-5.34,5-7,8.16-2,3.83-.27,8.31.49,12.25a148.08,148.08,0,0,1,2.29,15.84,62.08,62.08,0,0,1,.23,7.47,14.5,14.5,0,0,1-.92,5.26c-1.68,3.71-5.57-.73-7-2.39C178.52,301.59,177.82,302.3,178.24,302.78Z"
     transform="translate(-94.13 -17.94)"
     id="path22" />
  <path
     class="cls-9"
     d="M98.87,623.76c-.15-1.37,1-2.5,2-3.33a25.59,25.59,0,0,1,5.45-3.29,100.48,100.48,0,0,1,13.15-5c1.39-.45,2.8-.85,4.19-1.32.61-.2.35-1.16-.26-1-3.37,1.12-6.78,2.12-10.11,3.34-2.42.89-4.81,1.85-7.13,3a28.76,28.76,0,0,0-5.77,3.44c-1.24,1-2.68,2.48-2.48,4.22.07.63,1.07.64,1,0Z"
     transform="translate(-94.13 -17.94)"
     id="path23" />
  <path
     class="cls-9"
     d="M96.41,616.39c1.29-2.81,4.23-4.6,6.87-5.94a48.93,48.93,0,0,1,10.09-3.67,46.66,46.66,0,0,1,4.81-1c.63-.1.36-1.06-.27-1a53.37,53.37,0,0,0-9.54,2.42,32.89,32.89,0,0,0-9.65,4.89,10.61,10.61,0,0,0-3.17,3.75c-.27.58.59,1.09.86.51Z"
     transform="translate(-94.13 -17.94)"
     id="path24" />
  <path
     class="cls-13"
     d="M229.06,439.75c0,9.62.19,19.23.27,28.85,0,2.71,0,5.43,0,8.14a.5.5,0,0,0,1,0c0-9.56-.19-19.12-.27-28.69,0-2.76,0-5.53,0-8.3a.5.5,0,0,0-1,0Z"
     transform="translate(-94.13 -17.94)"
     id="path25"
     style="fill:#f9af1b;fill-opacity:1" />
  <path
     class="cls-13"
     d="M230.61,501.68a39.19,39.19,0,0,1,11.78-.81c4,.27,7.88.91,11.83,1.32,8,.83,16.06,1,24.12,1,8.28,0,16.57.55,24.84.06,4.1-.24,8.2-.89,12.28-1.37s8.14-.9,12.23-1.06,8.3-.1,12.45-.17,8.37-.17,12.56-.2l3.11,0a.5.5,0,0,0,0-1c-8.36,0-16.71.25-25.07.31S314.22,501.14,306,502s-16.59.36-24.85.23-16.24-.12-24.36-.82c-7.79-.68-15.62-2.45-23.46-1.3q-1.5.23-3,.57c-.63.15-.36,1.12.26,1Z"
     transform="translate(-94.13 -17.94)"
     id="path26"
     style="fill:#f9af1b;fill-opacity:1" />
  <path
     class="cls-13"
     d="M255.37,503.82a225.64,225.64,0,0,0-5.39,23,203,203,0,0,0-2.87,23.44q-.41,6.66-.32,13.34a.5.5,0,0,0,1,0A182.81,182.81,0,0,1,249,540.17a214.79,214.79,0,0,1,4-23.34q1.47-6.42,3.3-12.75a.5.5,0,0,0-1-.26Z"
     transform="translate(-94.13 -17.94)"
     id="path27"
     style="fill:#f9af1b;fill-opacity:1" />
  <path
     class="cls-13"
     d="M269.41,503.64a174.43,174.43,0,0,1-2.77,23.67c-.37,2.16-.77,4.31-1.18,6.46-.12.63.84.9,1,.27a242.38,242.38,0,0,0,3.58-24c.19-2.14.34-4.28.41-6.42,0-.64-1-.64-1,0Z"
     transform="translate(-94.13 -17.94)"
     id="path28"
     style="fill:#f9af1b;fill-opacity:1" />
  <path
     class="cls-13"
     d="M308.3,503.59c4.21,6.22,5.18,13.94,7.17,21a170.61,170.61,0,0,1,5,25.23q.88,7.14,1.21,14.33c0,.64,1,.64,1,0a184.57,184.57,0,0,0-3-25.77q-1.18-6.3-2.84-12.5c-1-3.72-1.88-7.48-2.88-11.2a38.11,38.11,0,0,0-4.81-11.62c-.36-.53-1.23,0-.87.51Z"
     transform="translate(-94.13 -17.94)"
     id="path29"
     style="fill:#f9af1b;fill-opacity:1" />
  <path
     class="cls-13"
     d="M330.92,502.37a95.93,95.93,0,0,1,7.61,23.86,43.75,43.75,0,0,1,.58,6.76.5.5,0,0,0,1,0c0-8.49-2.64-17-5.68-24.79-.82-2.14-1.71-4.25-2.64-6.34-.27-.59-1.13-.08-.87.51Z"
     transform="translate(-94.13 -17.94)"
     id="path30"
     style="fill:#f9af1b;fill-opacity:1" />
  <path
     class="cls-13"
     d="M350.79,434.5a39.43,39.43,0,0,1,3.32,13.3,128.88,128.88,0,0,1,.38,14.44c0,2.59-.1,5.18-.1,7.78a.5.5,0,0,0,1,0c0-9.56.81-19.33-1.28-28.75a33.11,33.11,0,0,0-2.45-7.27c-.28-.58-1.14-.07-.87.5Z"
     transform="translate(-94.13 -17.94)"
     id="path31"
     style="fill:#f9af1b;fill-opacity:1" />
  <path
     class="cls-9"
     d="M458.69,262.33a64.23,64.23,0,0,1,7.19,2.09c2.15.81,4.84,1.93,6,4.1.3.57,1.16.06.87-.51-1.18-2.27-3.85-3.49-6.11-4.38a61.47,61.47,0,0,0-7.64-2.27.5.5,0,0,0-.27,1Z"
     transform="translate(-94.13 -17.94)"
     id="path32" />
  <path
     class="cls-9"
     d="M469,261a81.29,81.29,0,0,1,10.87-8.79,45.34,45.34,0,0,1,12.45-6.06.5.5,0,0,0-.27-1c-7.11,2.06-13.48,6.3-19.13,11-1.59,1.32-3.13,2.7-4.63,4.12-.46.44.24,1.15.71.71Z"
     transform="translate(-94.13 -17.94)"
     id="path33" />
  <path
     class="cls-9"
     d="M476,265.26c5.71-4.79,12.19-8.54,18-13.15.5-.4-.21-1.1-.71-.71-5.85,4.61-12.33,8.36-18,13.15-.49.41.22,1.12.71.71Z"
     transform="translate(-94.13 -17.94)"
     id="path34" />
  <path
     class="cls-4"
     d="M269.91,774.48c-3.84-1.92-9.65-6.26-15.44-5.37a22.12,22.12,0,0,1-1.82,6.59c5.72-.55,12.1,2.12,12.37,4.59s-9.56,10.08-19.32,5.18c-4.38,4.57-9.32,8.47-12.16,12.85-6,9.17,1.53,13.76,15.28,6.42S276.24,791.32,279.7,787c1-1.31,2.09-3.66,2.65-14.11C279.4,772.53,273.71,776.37,269.91,774.48Z"
     transform="translate(-94.13 -17.94)"
     id="path35" />
  <path
     class="cls-10"
     d="M214.15,294.69a19.55,19.55,0,0,1,4.59-8.6A22,22,0,0,1,229.1,280a32.9,32.9,0,0,1,8.72-1.11.5.5,0,0,0,0-1,29.82,29.82,0,0,0-14.51,3.39,21,21,0,0,0-8.07,8,20.41,20.41,0,0,0-2.05,5.2c-.16.63.81.89,1,.27Z"
     transform="translate(-94.13 -17.94)"
     id="path36" />
  <path
     class="cls-7"
     d="M360.24,283.32c6.88,6.19,11.69,17,6.42,28s-15.13,12.65-23.84,12.38c-12.53-.38-26.83-16.12-11.92-38.59C339.84,274.3,356.34,280.34,360.24,283.32Z"
     transform="translate(-94.13 -17.94)"
     id="path37" />
  <path
     class="cls-10"
     d="M348.09,285.38c14.71,3.49,17.59,28.21-1.84,32.26C320.48,323,317.83,278.21,348.09,285.38Z"
     transform="translate(-94.13 -17.94)"
     id="path38" />
  <path
     class="cls-10"
     d="M369,294.42a20.68,20.68,0,0,0-4.8-9A22.89,22.89,0,0,0,353.41,279a33.78,33.78,0,0,0-9.06-1.17.5.5,0,0,0,0,1,28.76,28.76,0,0,1,14.07,3.29,20.1,20.1,0,0,1,7.67,7.64,19.21,19.21,0,0,1,1.92,4.91c.15.62,1.12.36,1-.27Z"
     transform="translate(-94.13 -17.94)"
     id="path39" />
  <path
     class="cls-10"
     d="M205.77,284.13c3.42,1.56,6.76,3.28,10.52,3.88.63.1.9-.87.26-1-3.67-.58-6.93-2.24-10.27-3.77-.58-.26-1.09.6-.51.86Z"
     transform="translate(-94.13 -17.94)"
     id="path40" />
  <path
     class="cls-10"
     d="M365.42,287.39a18.62,18.62,0,0,0,5.35-2.14c1.76-1,3.44-2.07,5.16-3.1.55-.33.05-1.2-.5-.87-1.67,1-3.3,2.07-5,3a17.9,17.9,0,0,1-5.27,2.13c-.63.12-.36,1.08.27,1Z"
     transform="translate(-94.13 -17.94)"
     id="path41" />
  <ellipse
     class="cls-14"
     cx="141.01"
     cy="326.97"
     rx="18.11"
     ry="13.07"
     id="ellipse41" />
  <ellipse
     class="cls-14"
     cx="252.89"
     cy="326.51"
     rx="18.11"
     ry="13.07"
     id="ellipse42" />
  <path
     class="cls-9"
     d="M157.9,314.56a5.57,5.57,0,0,1,2.1-3.65,6.34,6.34,0,0,1,4-1c4.07.18,7.83,2.8,10.57,5.63a29.6,29.6,0,0,1,5.35,7.87c.27.58,1.14.07.86-.51-2.34-4.89-5.9-9.46-10.71-12.12-3-1.66-7.17-2.85-10.32-.88a6.4,6.4,0,0,0-2.81,4.41c-.11.63.85.9,1,.27Z"
     transform="translate(-94.13 -17.94)"
     id="path42" />
  <path
     class="cls-9"
     d="M425.22,311.54c-.58-3.56-5.81-3.53-8.5-3.22-4.53.54-8.07,3.25-10.91,6.69a49,49,0,0,0-4.43,6.5.5.5,0,0,0,.87.5c2.12-3.64,4.55-7.32,7.93-9.93a13.86,13.86,0,0,1,10.29-2.78c1.54.19,3.5.73,3.79,2.51.1.63,1.07.36,1-.27Z"
     transform="translate(-94.13 -17.94)"
     id="path43" />
  <path
     class="cls-10"
     d="M198.26,174.32c-2.34,4.71-3.2,10.1-3.62,15.29a74.9,74.9,0,0,0,.48,16.73,36.76,36.76,0,0,0,1.71,7.34c.22.6,1.19.34,1-.26a47.53,47.53,0,0,1-2.32-14.1,68.91,68.91,0,0,1,1.14-16.72,31.94,31.94,0,0,1,2.51-7.77c.29-.58-.58-1.09-.86-.51Z"
     transform="translate(-94.13 -17.94)"
     id="path44" />
  <path
     class="cls-10"
     d="M223,154.27c-3.48,9.44-4.66,19.45-5,29.46-.08,2.91-.1,5.82-.11,8.73a.5.5,0,0,0,1,0c0-10,.26-20,2.57-29.79a72,72,0,0,1,2.46-8.14c.22-.6-.74-.86-1-.26Z"
     transform="translate(-94.13 -17.94)"
     id="path45" />
  <path
     class="cls-10"
     d="M252.36,142.68c-2.93,5.93-3.18,12.71-3.28,19.19,0,1.82-.25,3.65-.41,5.46-.2,2.28-.39,4.57-.4,6.85a15.49,15.49,0,0,0,.2,2.89,2.18,2.18,0,0,0,.86,1.6c.57.31,1.07-.55.51-.86-.09,0-.13-.11-.22-.29a3.91,3.91,0,0,1-.22-.88,16.83,16.83,0,0,1-.13-2.46c0-2.19.19-4.38.37-6.57.16-1.8.37-3.6.43-5.41.11-2.84.09-5.66.4-8.49a31.2,31.2,0,0,1,2.76-10.52c.28-.58-.58-1.08-.87-.51Z"
     transform="translate(-94.13 -17.94)"
     id="path46" />
  <path
     class="cls-10"
     d="M284.39,137a194.49,194.49,0,0,1,1.55,25.86c0,2.39-.07,4.78-.17,7.16,0,.64,1,.64,1,0a197.52,197.52,0,0,0-.6-25.86q-.32-3.58-.78-7.16c-.08-.62-1.08-.63-1,0Z"
     transform="translate(-94.13 -17.94)"
     id="path47" />
  <path
     class="cls-10"
     d="M318.39,139.06c4,8.83,4.17,18.87,4.12,28.39,0,2.68-.06,5.36-.06,8a.5.5,0,0,0,1,0c0-9.78.59-19.74-1.64-29.35a40.5,40.5,0,0,0-2.56-7.58c-.26-.59-1.12-.08-.86.5Z"
     transform="translate(-94.13 -17.94)"
     id="path48" />
  <path
     class="cls-10"
     d="M348.19,147.31c4.59,9.94,6.46,20.84,7,31.7.17,3.1.23,6.21.23,9.32a.5.5,0,0,0,1,0c0-11.06-.82-22.27-4.1-32.89a69.73,69.73,0,0,0-3.3-8.63c-.27-.58-1.13-.08-.87.5Z"
     transform="translate(-94.13 -17.94)"
     id="path49" />
  <path
     class="cls-10"
     d="M375.66,167.83c2.41,10.38,4.14,21,3.89,31.69a79.32,79.32,0,0,1-.68,8.85c-.09.63.87.9,1,.27,1.45-10.61.61-21.36-1.29-31.86-.56-3.09-1.21-6.16-1.92-9.22-.15-.62-1.11-.36-1,.27Z"
     transform="translate(-94.13 -17.94)"
     id="path50" />
  <path
     class="cls-10"
     d="M394,189.84c1.42,8.52,3.22,16.95,3.72,25.6.35,6.05-1,12.09-1.55,18.09-.1,1.09-.2,2.18-.34,3.27-.05.33-.09.66-.17,1s-.05,0,0,0a6.6,6.6,0,0,1,.7.08s0-.15,0-.19c-.14-.63-1.1-.37-1,.26s.82,1.06,1.17.32a7.33,7.33,0,0,0,.36-2.09c.24-2.08.33-4.2.67-6.27.24-1.5.38-3,.56-4.51.26-2.22.53-4.43.61-6.66a73.63,73.63,0,0,0-1.1-13.66c-.78-5.2-1.81-10.35-2.68-15.54-.11-.63-1.07-.36-1,.27Z"
     transform="translate(-94.13 -17.94)"
     id="path51" />
  <path
     class="cls-10"
     d="M177.57,203.79c-1.72,9.57-1.84,19.35-1.5,29,.09,2.44.12,4.87.42,7.29s.76,4.89,1.12,7.34c.4,2.63.51,5.28.8,7.92a24.58,24.58,0,0,0,.42,3.1c.09.36.38.76.81.51s.29-.64.29-1a.5.5,0,0,0-1,0c0,.1,0,.23,0,.33s-.07,0,.21-.23l.39-.05c.28,0,.29.45.28.16,0-.13-.06-.28-.08-.4-.06-.39-.11-.78-.16-1.17-.13-1.06-.24-2.13-.34-3.19-.08-.85-.16-1.7-.2-2.55a51.56,51.56,0,0,0-.74-5.66c-.36-2.23-.75-4.46-1-6.71s-.21-4.38-.28-6.56c-.14-4.42-.17-8.85,0-13.27a103.31,103.31,0,0,1,1.5-14.68c.11-.63-.85-.9-1-.26Z"
     transform="translate(-94.13 -17.94)"
     id="path52" />
  <path
     class="cls-10"
     d="M409.11,226.85c0,11.43.08,23.28-3.43,34.29a38.65,38.65,0,0,1-3.84,8.55l.93.26c.06-.48.4-.88.46-1.38s-.93-.63-1,0-.4.88-.46,1.38.7.64.94.25a47.05,47.05,0,0,0,5.72-16,112.93,112.93,0,0,0,1.6-17.8c.08-3.17.08-6.35.08-9.52a.5.5,0,0,0-1,0Z"
     transform="translate(-94.13 -17.94)"
     id="path53" />
</svg>
