<svg xmlns="http://www.w3.org/2000/svg" id="Camada_1" data-name="Camada 1" viewBox="0 0 299.54 795.55"><defs><style>.cls-9{fill:#010101}.cls-3{fill:#974f32}.cls-4{fill:#080606}.cls-7{fill:#e8e7e7}.cls-8{fill:#4f190d}.cls-10{fill:#27306b}.cls-12{fill:#9a3728}</style></defs><path d="M190.39 231.87c-17.42-1.8-37.85-23.43-25.23-38.45-27.64-18-17.42-42.65 2.4-45.06-24-25.83.83-46.78 17.05-46.18-16.67-27.94 19.3-49.64 33-39.58-7.74-28.91 41.3-42.8 51.51-22.38 9.62-20.42 48.67-23.43 54.07 1.81 14.42-15 42.66-7.81 42.66 12.61 18-10.81 46.26 4.21 35.44 30.64 22.83 0 43.26 21.63 23.43 46.86 25.84 6 30 40.85 7.21 45.66 22.23 16.22 5.41 45.66-23.43 43.26-1.23 34.24-200.68 76.29-218.11 10.81Z" style="stroke:#161616;stroke-miterlimit:10;fill:#010101" transform="translate(-147.76 -23.5)"/><ellipse cx="157.88" cy="770.32" rx="125.56" ry="25.23" style="fill:#6c6c6b"/><path d="M64.61 427.73c-22.08 25.23-52.27 71.19 22.07 106.77 8.56-18 13.07-30.19 13.07-30.19-24.33-10.81-30.64-23-4-63.08-4.11-9.44-31.14-13.5-31.14-13.5Zm177.53 0c23 35 48.36 65.19-26 100.78a122.63 122.63 0 0 1-10.51-33.64c24.33-10.82 32-13.52 5.41-53.62 4.06-9.46 31.1-13.52 31.1-13.52Zm-131.73 187.6c1.66 41 14.91 105.77 15 121.09s-14.27 22.35-19.89 31.41 1.58 13.5 14.66 6.18 26.08-13.41 29.34-17.67c1.16-1.51 2.3-4.37 2.61-19.7s5.06-76.64 3-116.73c-3.18-13.94-44.72-4.58-44.72-4.58Z" class="cls-3"/><path d="M141.17 744.1c-3.79-1.85-9.54-6.06-15.22-5.14a21.8 21.8 0 0 1-1.74 6.48c5.62-.59 11.91 2 12.2 4.41s-9.31 10-18.95 5.25c-4.26 4.53-9.08 8.4-11.84 12.73-5.78 9.06 1.61 13.5 15.07 6.18s26.84-13.41 30.19-17.68c1-1.29 2-3.61 2.5-13.88-2.9-.34-8.47 3.48-12.21 1.65Z" class="cls-4"/><path d="M201.03 614.73c-.56 41-11.44 106-11.19 121.36s13.95 22 19.45 31-1.15 13.54-13.62 6.49-24.84-12.85-28-17c-1.13-1.48-2.27-4.32-2.93-19.63s-6.61-76.52-5.62-116.64c2.65-14.07 41.91-5.58 41.91-5.58Z" class="cls-3"/><path d="M176.63 747.79c3.75-1.94 8.78-6 14.49-5.25.3 2.34 1.58 4.22 2.49 6.19-5.62-.45-11.85 2.27-12.08 4.69s10.09 9.28 19.61 4.33c4.37 4.43 8.72 8.67 11.58 12.93 6 8.93-1.29 13.54-14.92 6.53s-27.14-12.78-30.59-17c-1.05-1.27-2.12-3.57-2.82-13.83 2.85-.36 8.55 3.33 12.24 1.41Z" class="cls-4"/><path d="M199.9 454c11.42-9.92 21-50 96.28-50.46 89.21-5 104.68 57.74 104.68 57.74-6 4-35.75 15.72-35.75 15.72 3.31 17.87-.9 26.31-.3 28.62S398 631.3 401.61 668c-11 8.94-12.32-3.47-28.09 2s-20.57 6-31.39 0-19.82-4-33.79 2-25.23-.49-33.34-1-18.93 5-33.35 5.46-20.27-5.46-28.83-5c.45-11.92 18.47-137 27.48-161.8.45-15.89-.45-34.25-.45-34.25s-21.38-1.6-39.95-21.41Z" style="fill:#1c4e9d" transform="translate(-147.76 -23.5)"/><path d="M275.35 376c-.54 11.27-.28 20.72 0 30.19.72 24.18 51.61 22.08 51.61 0s-1.61-29.74-1.61-29.74Z" style="fill:#833c20" transform="translate(-147.76 -23.5)"/><path d="M55.52 284.5c-13.82-14.42-33.95-14.12-40.55-.6-5.86 12 4.2 36.35 23.43 41.15a30.12 30.12 0 0 0 30.34-9.31Zm198.56-1.78c13.82-14.42 33.94-14.12 40.55-.6 5.86 12-4.21 36.34-23.43 41.15a30.11 30.11 0 0 1-30.34-9.31Z" class="cls-3"/><path d="M152.24 111.5c-67.94 1.43-123.6 63.7-112.95 130.37 14.49 90.79 33.64 105.73 65.48 118.35s120.73 12.49 143.67-34.32c22.53-46 34.17-100.26 17.35-142.31s-56.48-73.29-113.55-72.09Z" class="cls-3"/><path d="M87.89 262.44c-6.76 6.09-11.49 16.67-6.31 27.49s14.87 12.43 23.43 12.16c12.31-.37 26.36-15.84 11.71-37.92-8.78-10.59-25-4.67-28.83-1.73Z" class="cls-7"/><path d="M150.64 301.66a13 13 0 0 1-3-3.56 3.59 3.59 0 0 1-.4-2.55c.47-1.67 2.54-2.5 4.24-2.88a17.52 17.52 0 0 1 7.21 0c2 .4 4.34 1.18 5.6 2.82 1.63 2.14.15 4.7-1.48 6.5-.43.47.28 1.18.71.7 1.68-1.85 3.28-4.47 2.06-7-1-2.09-3.45-3.17-5.56-3.74a19 19 0 0 0-8.07-.38c-2 .34-4.47 1.14-5.43 3.1-1.2 2.42.69 5 2.31 6.68.34.36.7.7 1.07 1s1.18-.27.7-.71Z" class="cls-8"/><path d="M79.08 229.2c1.92-3.07 5.61-5 8.84-6.35a42.1 42.1 0 0 1 13.65-3.24 28.65 28.65 0 0 1 7.51.43c.63.13.9-.83.27-1a34.46 34.46 0 0 0-14.26.46 37.05 37.05 0 0 0-12.69 5.12 14 14 0 0 0-4.18 4c-.34.55.52 1.05.86.5Zm123.55-10.49c7.78 0 15.76.86 22.65 4.74a31.51 31.51 0 0 1 5.61 4.05c.48.43 1.19-.27.71-.71a32.77 32.77 0 0 0-10.36-6.29 43.46 43.46 0 0 0-11.6-2.49c-2.33-.21-4.68-.28-7-.28a.5.5 0 0 0 0 1ZM99.83 264.5c-14.46 3.42-17.29 27.71 1.81 31.7 25.32 5.3 27.92-38.78-1.81-31.7Z" class="cls-9"/><path d="M45.31 281.22c12.39 14.42 9-13.82 5-31.84-1.8-9.92 7.58-8.29 11.27-22.23 2-7.66-2.93-18.7 3.38-24.56 12.39-.67 17.34-20.05 19.6-22.6 10.36 9.08 26.36-12.09 29.28-13 16.45 3.83 31.54-3.83 36.95-9.24 4.73 3.15 15.55 13 38.3 4.2 5.86 9.92 16.67 18.7 30.64 14 5.41 16.45 10.81 19.6 23 21.63 5.86 3.83-4.28 20.5 12.62 25.46-.23 2.25-5.64 16 1.12 20.72s6.54 5.64 5 11.27-5.86 27.26.9 27.26 10.36-19.6 13.29-38.53 3.76-77.27-49.41-113-113.66-23.17-155.41 10.74-39.28 67.23-37.78 93.79c1.36 23.92 9.09 41.57 12.25 45.93Z" class="cls-8"/><path d="M44.95 281.57c1.42 1.63 4.44 5.23 7 3.81 2.3-1.26 2.37-5.22 2.46-7.45a79.94 79.94 0 0 0-1-14.16q-.57-4.08-1.34-8.13a76.5 76.5 0 0 1-1.49-7.62 7.84 7.84 0 0 1 1.18-5.13 27.7 27.7 0 0 1 3.5-3.84 24.58 24.58 0 0 0 7-13.11c.9-5.56-.82-11.18 0-16.75a11.57 11.57 0 0 1 1.26-4 8 8 0 0 1 1.18-1.65c.44-.48.74-.46 1.36-.55a13.23 13.23 0 0 0 5.76-2.37c6.51-4.62 8.88-12.4 12.37-19.16a5.57 5.57 0 0 1 .67-1.1h-.71c7.39 6.33 16.89-1.33 22.52-6.39 1.5-1.36 3-2.77 4.44-4.16.53-.5 1.07-1 1.64-1.49.28-.24.74-.73 1.12-.8a2.67 2.67 0 0 1 .66.17c.51.11 1 .2 1.52.29.9.15 1.81.27 2.71.36a41.08 41.08 0 0 0 5.87.17 44.67 44.67 0 0 0 10.51-1.74c5.73-1.66 11.66-4.39 16-8.64l-.61.08a55.09 55.09 0 0 0 8.81 5.29 32.85 32.85 0 0 0 16.31 2.32 53 53 0 0 0 13.52-3.32l-.56-.23a34 34 0 0 0 12.63 12.68 23.26 23.26 0 0 0 18.6 1.46l-.61-.35c1.69 5.11 3.67 10.44 7.23 14.58a20.48 20.48 0 0 0 10.23 6.15c1.12.31 2.25.57 3.38.8 1 .19 2.26.15 2.95.9a6.35 6.35 0 0 1 1.23 3.92c.25 3.72-.25 7.45.6 11.12 1.23 5.29 5.28 8.45 10.32 10l-.36-.48a27.5 27.5 0 0 1-.87 3.44 50.62 50.62 0 0 0-1.14 5.58c-.48 3.62-.54 7.93 2 10.87s7.68 4.18 6.93 8.76c-.26 1.57-.79 3.09-1.17 4.63s-.71 3.11-1 4.68a75.9 75.9 0 0 0-1.4 11.44c-.11 2.8-.24 6.5 1.48 8.9 1.43 2 4 1.68 5.69.21 2.84-2.44 4.14-6.69 5.21-10.13a146 146 0 0 0 4-17.88c.72-4.17 1.46-8.36 2-12.56a114 114 0 0 0 .68-15.89 124.59 124.59 0 0 0-9.24-44.6 111.69 111.69 0 0 0-36.24-46.4 124.75 124.75 0 0 0-66.67-25.09c-22.54-1.42-45.15 3.67-65.4 13.51a151.51 151.51 0 0 0-28 17.73c-9.72 7.75-18.64 16.69-25.51 27.1a83.73 83.73 0 0 0-11.59 26.43 104.56 104.56 0 0 0-2.63 24.62c0 19.07 1.83 38.69 9.45 56.37a35.61 35.61 0 0 0 3.51 6.7c.38.52 1.24 0 .87-.5a36.51 36.51 0 0 1-3.57-6.81 99.08 99.08 0 0 1-4.31-12.53c-2.89-10.46-4.05-21.1-4.61-31.9a158.8 158.8 0 0 1 .16-23 85.21 85.21 0 0 1 6.21-25.23c8.91-21 26.51-37.51 45.44-49.62 18.58-11.89 39.88-19.73 61.91-21.62a120.92 120.92 0 0 1 67.05 13.81c19.05 10.13 35.5 24.88 46.38 43.62a118.14 118.14 0 0 1 14.9 46.08 127.83 127.83 0 0 1 .74 18.56 133.44 133.44 0 0 1-1.91 17c-1 6.1-2.07 12.21-3.63 18.19-1.07 4.14-2.26 9-5 12.33-1.55 1.89-4.25 2.89-5.51.2-1.34-2.87-1-6.63-.78-9.69a87.26 87.26 0 0 1 1.66-11.14c.27-1.28.56-2.56.9-3.83a18.2 18.2 0 0 0 1-4.88c-.05-4-4.62-5.52-7-7.94-2.86-2.91-2.49-7.77-1.87-11.47.46-2.71 1.54-5.36 1.86-8.08a.53.53 0 0 0-.37-.49c-4.68-1.4-8.42-4.26-9.6-9.16-.86-3.61-.34-7.3-.59-11a8.6 8.6 0 0 0-1-3.86 3.8 3.8 0 0 0-1.24-1.34 12.06 12.06 0 0 0-3.25-.69c-4-.85-8-2.18-11.12-5-4.43-4.07-6.65-10.13-8.5-15.7a.5.5 0 0 0-.61-.35 22.29 22.29 0 0 1-18.12-1.52 33.14 33.14 0 0 1-12-12.22.5.5 0 0 0-.56-.23c-6.82 2.61-14.2 4.26-21.52 3.25a31 31 0 0 1-12.38-4.66c-1.37-.87-2.67-1.84-4-2.74a.5.5 0 0 0-.6.07c-3.71 3.67-8.71 6.14-13.6 7.79a42.14 42.14 0 0 1-21.56 1.6c-.85-.16-1.42-.44-2.17 0a9.47 9.47 0 0 0-1.17.92c-1.22 1.05-2.37 2.19-3.54 3.3a57.64 57.64 0 0 1-10.37 8.26c-4.11 2.39-9.15 3.74-13.12.34a.51.51 0 0 0-.71 0 11.17 11.17 0 0 0-1.46 2.64c-.7 1.53-1.36 3.07-2.07 4.59a39.25 39.25 0 0 1-6.72 10.68 15.5 15.5 0 0 1-5.18 3.71 11.41 11.41 0 0 1-3 .79 2.85 2.85 0 0 0-1.13.22 5.42 5.42 0 0 0-1.33 1.52c-3.11 4.38-2.1 10.37-1.79 15.37a25 25 0 0 1-.49 8.28 24.32 24.32 0 0 1-3.57 7.67c-2 2.85-5.25 4.91-6.89 8-2 3.77-.27 8.17.48 12a148.53 148.53 0 0 1 2.3 15.65 57.85 57.85 0 0 1 .22 7.33 14 14 0 0 1-.9 5.17c-1.65 3.64-5.46-.72-6.87-2.35-.45-.48-1.16.23-.74.71Z" class="cls-8"/><path d="M92.24 415.26c0 9.44.18 18.87.26 28.31v8a.5.5 0 0 0 1 0c0-9.38-.18-18.77-.26-28.15v-8.2a.5.5 0 0 0-1 0Zm1.49 60.86a39 39 0 0 1 11.7-.78c3.9.28 7.76.91 11.64 1.3 8 .82 15.93.95 23.92 1s16 .53 24 .06c4.06-.24 8.11-.89 12.15-1.36s8.06-.88 12.11-1c4.58-.18 9.16-.1 13.74-.19s9.15-.18 13.72-.18a.5.5 0 0 0 0-1c-8.17 0-16.35.25-24.52.3s-16.2 1.32-24.28 2.2-16.3.37-24.42.24-16-.11-24-.8c-7.66-.67-15.36-2.41-23.08-1.29-1 .14-2 .34-3 .57-.63.15-.36 1.11.27 1Zm24.31 2.09a211.15 211.15 0 0 0-8.12 45.7q-.39 6.5-.31 13a.5.5 0 0 0 1 0 194.26 194.26 0 0 1 5.14-45.89q1.44-6.31 3.25-12.55a.518.518 0 0 0-1-.27Z" class="cls-10"/><path d="M131.84 478.05a173 173 0 0 1-2.71 23.22q-.56 3.19-1.17 6.38c-.13.63.84.9 1 .27a236.89 236.89 0 0 0 3.51-23.54c.2-2.1.34-4.22.41-6.33a.5.5 0 0 0-1 0Z" class="cls-10"/><path d="M317.82 501.5c4.14 6.11 5.09 13.71 7.05 20.67a167.88 167.88 0 0 1 4.91 24.76q.87 7 1.19 14.09c0 .64 1 .65 1 0a182.22 182.22 0 0 0-2.97-25.29q-1.16-6.19-2.78-12.28c-1-3.66-1.85-7.35-2.84-11a37.58 37.58 0 0 0-4.69-11.45c-.36-.53-1.23 0-.87.51Z" style="fill:#282e69" transform="translate(-147.76 -23.5)"/><path d="M192.29 476.8a94.54 94.54 0 0 1 7.47 23.41 43.94 43.94 0 0 1 .57 6.67.5.5 0 0 0 1 0c0-8.36-2.61-16.7-5.6-24.43-.81-2.07-1.67-4.13-2.58-6.16-.26-.59-1.12-.08-.86.51Zm19.52-66.69a38.61 38.61 0 0 1 3.27 13.08 126.74 126.74 0 0 1 .37 14.19c0 2.54-.1 5.08-.1 7.62a.5.5 0 0 0 1 0c0-9.4.8-19-1.26-28.27a33.09 33.09 0 0 0-2.41-7.13c-.28-.58-1.14-.07-.87.51Z" class="cls-10"/><path d="M80.24 273.62a19.17 19.17 0 0 1 4.51-8.46 21.63 21.63 0 0 1 10.11-6 32.64 32.64 0 0 1 8.63-1.1.5.5 0 0 0 0-1 29.23 29.23 0 0 0-14.34 3.37 20.72 20.72 0 0 0-7.84 7.76 20.34 20.34 0 0 0-2 5.16c-.15.62.82.89 1 .27Z" class="cls-9"/><path d="M223.81 262.44c6.76 6.09 11.49 16.67 6.31 27.49s-14.88 12.43-23.43 12.16c-12.32-.37-26.36-15.84-11.72-37.92 8.79-10.59 25.01-4.67 28.84-1.73Z" class="cls-7"/><path d="M211.87 264.5c14.45 3.42 17.29 27.71-1.81 31.7-25.33 5.3-27.92-38.78 1.81-31.7Zm20.53 8.85a20.12 20.12 0 0 0-4.77-8.89 22.51 22.51 0 0 0-10.46-6.24 33.64 33.64 0 0 0-9-1.16.5.5 0 0 0 0 1A28.13 28.13 0 0 1 222 261.3a19.68 19.68 0 0 1 7.51 7.45 19.28 19.28 0 0 1 1.91 4.87c.15.62 1.11.36 1-.27Zm-160.39-10.1c3.36 1.53 6.65 3.22 10.34 3.8.63.1.9-.86.26-1-3.61-.57-6.81-2.21-10.09-3.7-.58-.27-1.09.59-.51.86Z" class="cls-9"/><path d="M228.9 266.5a18 18 0 0 0 5.26-2.11c1.73-.95 3.38-2 5.07-3a.502.502 0 0 0-.5-.87c-1.64 1-3.25 2-4.92 3a17.67 17.67 0 0 1-5.18 2.09c-.63.12-.36 1.08.27 1Z" class="cls-9"/><path d="M118.68 322.97c0 7.09-8 12.84-17.8 12.84s-17.8-5.75-17.8-12.84 8-12.84 17.8-12.84 17.8 5.75 17.8 12.84Z" class="cls-12"/><ellipse cx="210.82" cy="322.52" class="cls-12" rx="17.8" ry="12.84"/><path d="M24.99 293.14a5.4 5.4 0 0 1 2-3.56 6.2 6.2 0 0 1 4-1c4 .2 7.65 2.77 10.33 5.54a29.41 29.41 0 0 1 5.24 7.72c.28.58 1.14.07.86-.5-2.3-4.83-5.83-9.36-10.59-12-2.93-1.61-7-2.74-10.06-.84a6.32 6.32 0 0 0-2.79 4.35c-.11.63.85.9 1 .27Zm262.69-2.97c-.58-3.5-5.71-3.48-8.36-3.17-4.46.53-8 3.2-10.75 6.59a48.32 48.32 0 0 0-4.34 6.37.504.504 0 0 0 .87.51c2.08-3.56 4.45-7.16 7.74-9.72a13.59 13.59 0 0 1 10.15-2.77c1.51.19 3.43.71 3.72 2.46.11.63 1.07.36 1-.27Z" class="cls-8"/><path d="M64.62 155.33c-2.28 4.6-3.13 9.87-3.54 14.95a73.79 73.79 0 0 0 .46 16.54 36.12 36.12 0 0 0 1.68 7.19c.22.6 1.19.34 1-.26a46 46 0 0 1-2.28-13.78 67.27 67.27 0 0 1 1.09-16.47 31 31 0 0 1 2.46-7.62c.28-.57-.58-1.08-.87-.5Zm24.29-19.71c-3.42 9.27-4.58 19.1-4.87 28.92-.09 2.87-.11 5.74-.11 8.61a.5.5 0 0 0 1 0c0-9.79.25-19.66 2.52-29.23a68.06 68.06 0 0 1 2.42-8c.22-.61-.74-.87-1-.27Zm28.88-11.38c-2.88 5.83-3.12 12.48-3.22 18.86-.06 4-.79 8.05-.8 12.1a15.5 15.5 0 0 0 .2 2.88 2.15 2.15 0 0 0 .85 1.54c.56.31 1.07-.56.5-.87-.08 0-.12-.1-.21-.3a3.56 3.56 0 0 1-.2-.81 14.21 14.21 0 0 1-.14-2.44c0-2.16.18-4.31.37-6.45.15-1.79.36-3.57.42-5.36.1-2.77.08-5.52.38-8.28a30.78 30.78 0 0 1 2.72-10.37c.28-.57-.58-1.08-.87-.5Zm31.45-5.61a190.54 190.54 0 0 1 1.52 25.38c0 2.35-.07 4.71-.17 7.06 0 .65 1 .65 1 0a195.32 195.32 0 0 0-.59-25.37c-.2-2.36-.46-4.72-.76-7.07-.08-.63-1.09-.64-1 0Zm33.44 2.06c3.94 8.66 4.1 18.51 4 27.86 0 2.64-.05 5.29-.05 7.93a.5.5 0 0 0 1 0c0-9.6.58-19.38-1.61-28.81a40.48 40.48 0 0 0-2.52-7.49c-.26-.58-1.13-.08-.86.51Zm29.29 8.11c4.5 9.74 6.34 20.44 6.91 31.1.16 3.06.23 6.13.23 9.2a.5.5 0 0 0 1 0c0-10.86-.81-21.87-4-32.3a68.44 68.44 0 0 0-3.26-8.51c-.27-.58-1.13-.07-.86.51Zm26.98 20.15c2.37 10.19 4.07 20.62 3.83 31.11a75.12 75.12 0 0 1-.68 8.73c-.08.63.88.9 1 .27 1.42-10.46.59-21.05-1.28-31.39q-.82-4.51-1.88-9c-.14-.63-1.11-.36-1 .26Zm18.02 21.63c1.4 8.37 3.17 16.67 3.66 25.17.34 5.94-.95 11.85-1.52 17.74-.1 1.08-.19 2.15-.33 3.22-.05.32-.1.65-.17 1 0 0-.05.1 0 .14s.19-.07.41 0h.36a.67.67 0 0 0-.05-.19c-.13-.63-1.1-.37-1 .26s.76 1.05 1.13.36a5.81 5.81 0 0 0 .38-2.08c.24-2 .33-4.13.66-6.17.23-1.45.37-2.92.55-4.39.25-2.17.52-4.35.6-6.54a72.93 72.93 0 0 0-1.07-13.43c-.76-5.12-1.79-10.21-2.64-15.32-.11-.64-1.07-.37-1 .26ZM44.3 184.28c-1.7 9.39-1.81 19-1.48 28.51.08 2.39.12 4.78.41 7.15s.74 4.81 1.1 7.21c.39 2.6.51 5.22.79 7.83a22.49 22.49 0 0 0 .41 3.06c.1.36.38.75.81.5s.29-.63.29-1a.5.5 0 0 0-1 0 1.82 1.82 0 0 0 0 .33c0 .12 0 0 0 0 0 .13 0 0 .2-.26l.39-.05c.28.1.28.42.28.14 0-.12 0-.26-.07-.38-.06-.37-.11-.75-.16-1.13-.13-1.06-.24-2.12-.34-3.18-.08-.83-.16-1.66-.19-2.49a50.56 50.56 0 0 0-.75-5.62c-.35-2.19-.73-4.38-.93-6.59s-.2-4.28-.27-6.42c-.13-4.33-.17-8.67 0-13a102.44 102.44 0 0 1 1.45-14.34c.12-.63-.85-.9-1-.27Zm227.53 22.67c0 11.21.07 22.82-3.35 33.62a38.19 38.19 0 0 1-3.8 8.48l.94.25c.05-.47.39-.86.45-1.35s-.93-.63-1 0c-.06.47-.4.86-.45 1.35s.69.64.93.25a46 46 0 0 0 5.62-15.76 110.38 110.38 0 0 0 1.58-17.41c.07-3.14.07-6.29.08-9.43a.5.5 0 0 0-1 0Z" style="fill:#2e100d"/><path d="M133.96 308.91a35.36 35.36 0 0 0 7.7 13.71 23.91 23.91 0 0 0 10.68 6.74 19.06 19.06 0 0 0 11.36-.18 20 20 0 0 0 9.52-7.05 29.86 29.86 0 0 0 5.34-13.91c.09-.71.18-1.43.24-2.14s-.94-.64-1 0a31.28 31.28 0 0 1-4.48 14.16 19.54 19.54 0 0 1-8.72 7.54 17.91 17.91 0 0 1-10.7.94 22.09 22.09 0 0 1-10.43-5.69 32.38 32.38 0 0 1-7.87-12.4c-.24-.66-.46-1.32-.67-2s-1.16-.35-1 .27Zm94.51 166.33c3.53 0 7-.88 10.51-.9a.5.5 0 0 0 0-1c-3.53 0-7 .89-10.51.9a.5.5 0 0 0 0 1ZM65.31 481.5a24.6 24.6 0 0 1 10.56-2.63.5.5 0 0 0 0-1 25.71 25.71 0 0 0-11.07 2.77c-.57.28-.07 1.15.51.86Z" class="cls-8"/><path d="M193.07 304.72c12.39 14.42 9-13.82 5-31.84-1.8-9.92 7.58-8.29 11.27-22.23 2-7.66-2.93-18.7 3.38-24.56 12.39-.67 17.34-20.05 19.6-22.6 10.36 9.08 26.36-12.09 29.28-13 16.45 3.83 31.54-3.83 36.95-9.24 4.73 3.15 15.55 13 38.3 4.2 5.86 9.92 16.67 18.7 30.64 14 5.41 16.45 10.81 19.6 23 21.63 5.86 3.83-4.28 20.5 12.62 25.46-.23 2.25-5.64 16 1.12 20.72s6.54 5.64 5 11.27-5.86 27.26.9 27.26 10.36-19.6 13.29-38.53 3.76-77.27-49.41-113S260.35 131.09 218.6 165s-39.28 67.23-37.78 93.79c1.36 23.92 9.09 41.57 12.25 45.93Z" style="fill:#161616" transform="translate(-147.76 -23.5)"/><path d="M44.95 281.57c1.42 1.63 4.44 5.23 7 3.81 2.3-1.26 2.37-5.22 2.46-7.45a79.94 79.94 0 0 0-1-14.16q-.57-4.08-1.34-8.13a76.5 76.5 0 0 1-1.49-7.62 7.84 7.84 0 0 1 1.18-5.13 27.7 27.7 0 0 1 3.5-3.84 24.58 24.58 0 0 0 7-13.11c.9-5.56-.82-11.18 0-16.75a11.57 11.57 0 0 1 1.26-4 8 8 0 0 1 1.18-1.65c.44-.48.74-.46 1.36-.55a13.23 13.23 0 0 0 5.76-2.37c6.51-4.62 8.88-12.4 12.37-19.16a5.57 5.57 0 0 1 .67-1.1h-.71c7.39 6.33 16.89-1.33 22.52-6.39 1.5-1.36 3-2.77 4.44-4.16.53-.5 1.07-1 1.64-1.49.28-.24.74-.73 1.12-.8a2.67 2.67 0 0 1 .66.17c.51.11 1 .2 1.52.29.9.15 1.81.27 2.71.36a41.08 41.08 0 0 0 5.87.17 44.67 44.67 0 0 0 10.51-1.74c5.73-1.66 11.66-4.39 16-8.64l-.61.08a55.09 55.09 0 0 0 8.81 5.29 32.85 32.85 0 0 0 16.31 2.32 53 53 0 0 0 13.52-3.32l-.56-.23a34 34 0 0 0 12.63 12.68 23.26 23.26 0 0 0 18.6 1.46l-.61-.35c1.69 5.11 3.67 10.44 7.23 14.58a20.48 20.48 0 0 0 10.23 6.15c1.12.31 2.25.57 3.38.8 1 .19 2.26.15 2.95.9a6.35 6.35 0 0 1 1.23 3.92c.25 3.72-.25 7.45.6 11.12 1.23 5.29 5.28 8.45 10.32 10l-.36-.48a27.5 27.5 0 0 1-.87 3.44 50.62 50.62 0 0 0-1.14 5.58c-.48 3.62-.54 7.93 2 10.87s7.68 4.18 6.93 8.76c-.26 1.57-.79 3.09-1.17 4.63s-.71 3.11-1 4.68a75.9 75.9 0 0 0-1.4 11.44c-.11 2.8-.24 6.5 1.48 8.9 1.43 2 4 1.68 5.69.21 2.84-2.44 4.14-6.69 5.21-10.13a146 146 0 0 0 4-17.88c.72-4.17 1.46-8.36 2-12.56a114 114 0 0 0 .68-15.89 124.59 124.59 0 0 0-9.24-44.6 111.69 111.69 0 0 0-36.24-46.4 124.75 124.75 0 0 0-66.67-25.09c-22.54-1.42-45.15 3.67-65.4 13.51a151.51 151.51 0 0 0-28 17.73c-9.72 7.75-18.64 16.69-25.51 27.1a83.73 83.73 0 0 0-11.59 26.43 104.56 104.56 0 0 0-2.63 24.62c0 19.07 1.83 38.69 9.45 56.37a35.61 35.61 0 0 0 3.51 6.7c.38.52 1.24 0 .87-.5a36.51 36.51 0 0 1-3.57-6.81 99.08 99.08 0 0 1-4.31-12.53c-2.89-10.46-4.05-21.1-4.61-31.9a158.8 158.8 0 0 1 .16-23 85.21 85.21 0 0 1 6.21-25.23c8.91-21 26.51-37.51 45.44-49.62 18.58-11.89 39.88-19.73 61.91-21.62a120.92 120.92 0 0 1 67.05 13.81c19.05 10.13 35.5 24.88 46.38 43.62a118.31 118.31 0 0 1 14.9 46.08 127.83 127.83 0 0 1 .74 18.56 133.44 133.44 0 0 1-1.91 17c-1 6.1-2.07 12.21-3.63 18.19-1.07 4.14-2.26 9-5 12.33-1.55 1.89-4.25 2.89-5.51.2-1.34-2.87-1-6.63-.78-9.69a87.26 87.26 0 0 1 1.66-11.14c.27-1.28.56-2.56.9-3.83a18.2 18.2 0 0 0 1-4.88c-.05-4-4.62-5.52-7-7.94-2.86-2.91-2.49-7.77-1.87-11.47.46-2.71 1.54-5.36 1.86-8.08a.53.53 0 0 0-.37-.49c-4.68-1.4-8.42-4.26-9.6-9.16-.86-3.61-.34-7.3-.59-11a8.6 8.6 0 0 0-1-3.86 3.8 3.8 0 0 0-1.24-1.34 12.06 12.06 0 0 0-3.25-.69c-4-.85-8-2.18-11.12-5-4.43-4.07-6.65-10.13-8.5-15.7a.5.5 0 0 0-.61-.35 22.29 22.29 0 0 1-18.12-1.52 33.14 33.14 0 0 1-12-12.22.5.5 0 0 0-.56-.23c-6.82 2.61-14.2 4.26-21.52 3.25a31 31 0 0 1-12.38-4.66c-1.37-.87-2.67-1.84-4-2.74a.5.5 0 0 0-.6.07c-3.71 3.67-8.71 6.14-13.6 7.79a42.14 42.14 0 0 1-21.56 1.6c-.85-.16-1.42-.44-2.17 0a9.47 9.47 0 0 0-1.17.92c-1.22 1.05-2.37 2.19-3.54 3.3a57.64 57.64 0 0 1-10.37 8.26c-4.11 2.39-9.15 3.74-13.12.34a.51.51 0 0 0-.71 0 11.17 11.17 0 0 0-1.46 2.64c-.7 1.53-1.36 3.07-2.07 4.59a39.25 39.25 0 0 1-6.72 10.68 15.5 15.5 0 0 1-5.18 3.71 11.41 11.41 0 0 1-3 .79 2.85 2.85 0 0 0-1.13.22 5.42 5.42 0 0 0-1.33 1.52c-3.11 4.38-2.1 10.37-1.79 15.37a25 25 0 0 1-.49 8.28 24.32 24.32 0 0 1-3.57 7.67c-2 2.85-5.25 4.91-6.89 8-2 3.77-.27 8.17.48 12a148.53 148.53 0 0 1 2.3 15.65 57.85 57.85 0 0 1 .22 7.33 14 14 0 0 1-.9 5.17c-1.65 3.64-5.46-.72-6.87-2.35-.45-.48-1.16.23-.74.71Z" class="cls-9"/><path d="M61.4 155.78c-2.28 4.6-3.13 9.88-3.55 14.95a73.8 73.8 0 0 0 .47 16.54 35.44 35.44 0 0 0 1.68 7.19c.22.6 1.18.34 1-.26a46.69 46.69 0 0 1-2.28-13.78 67.77 67.77 0 0 1 1.12-16.52 31.42 31.42 0 0 1 2.46-7.62c.29-.57-.58-1.08-.86-.5Zm24.28-19.71c-3.42 9.27-4.57 19.1-4.87 28.92-.08 2.87-.1 5.74-.1 8.61a.5.5 0 0 0 1 0c0-9.79.24-19.66 2.51-29.23a72.05 72.05 0 0 1 2.42-8c.23-.61-.74-.87-1-.27Zm28.89-11.38c-2.88 5.83-3.13 12.48-3.23 18.86-.06 4-.79 8-.8 12.1a14.65 14.65 0 0 0 .21 2.88 2.14 2.14 0 0 0 .84 1.54c.57.31 1.07-.56.51-.87-.09 0-.13-.1-.22-.3a4.17 4.17 0 0 1-.2-.81 15.3 15.3 0 0 1-.14-2.44c0-2.16.19-4.31.37-6.45.15-1.79.36-3.57.43-5.36.09-2.77.08-5.52.38-8.28a30.77 30.77 0 0 1 2.71-10.37c.28-.57-.58-1.08-.86-.5Zm31.47-5.61a190.54 190.54 0 0 1 1.52 25.42c0 2.35-.07 4.71-.17 7.06 0 .65 1 .65 1 0a195.32 195.32 0 0 0-.58-25.37q-.31-3.54-.77-7.07c-.08-.63-1.08-.64-1 0Zm33.41 2.06c3.94 8.66 4.1 18.51 4.05 27.86 0 2.64-.06 5.29-.06 7.93a.5.5 0 0 0 1 0c0-9.6.58-19.38-1.61-28.81a39.76 39.76 0 0 0-2.52-7.49c-.26-.58-1.12-.08-.86.51Zm29.29 8.11c4.5 9.74 6.34 20.45 6.91 31.1.16 3.06.23 6.13.23 9.2a.5.5 0 0 0 1 0c0-10.86-.8-21.87-4-32.3a66.9 66.9 0 0 0-3.26-8.51c-.27-.58-1.13-.07-.86.51Zm26.98 16.55c2.37 10.19 4.07 20.61 3.83 31.1a77.54 77.54 0 0 1-.67 8.74c-.09.62.87.9 1 .26 1.43-10.45.59-21-1.28-31.39-.54-3-1.18-6-1.87-9-.15-.62-1.11-.36-1 .27Zm18.03 21.63c1.4 8.37 3.17 16.67 3.65 25.17.35 5.94-.94 11.85-1.51 17.74-.11 1.07-.2 2.15-.34 3.21a7.87 7.87 0 0 1-.17 1 .83.83 0 0 0 0 .15c0-.1.2-.08.42 0h.35a.73.73 0 0 0-.05-.2c-.13-.63-1.09-.36-1 .27s.76 1 1.14.36a5.88 5.88 0 0 0 .37-2.08c.24-2.05.33-4.13.66-6.17.24-1.46.38-2.92.55-4.39.25-2.18.52-4.35.61-6.54a72.87 72.87 0 0 0-1.08-13.45c-.76-5.13-1.78-10.21-2.64-15.33-.11-.63-1.07-.36-1 .27Zm-209.07 17.3c-1.7 9.4-1.81 19-1.48 28.51.08 2.39.12 4.78.41 7.15s.74 4.81 1.1 7.21c.39 2.6.51 5.22.79 7.83a22.49 22.49 0 0 0 .41 3.06c.09.36.38.75.81.5s.29-.63.29-.95a.5.5 0 0 0-1 0 1.82 1.82 0 0 0 0 .33c0 .12 0 0 0 0 0 .13 0 0 .21-.26l.39-.05c.28.1.28.42.28.14 0-.12 0-.26-.07-.38-.07-.37-.11-.75-.16-1.13-.13-1.06-.24-2.12-.34-3.18-.08-.83-.16-1.66-.2-2.49a48.28 48.28 0 0 0-.74-5.62c-.35-2.19-.73-4.38-.93-6.58s-.2-4.29-.27-6.43c-.13-4.33-.17-8.67 0-13a102.44 102.44 0 0 1 1.47-14.41c.11-.63-.85-.9-1-.27Zm223.92 19.06c0 11.22.07 22.83-3.35 33.63a38.55 38.55 0 0 1-3.79 8.47l.93.26c.05-.47.39-.87.45-1.36s-.93-.63-1 0c-.06.48-.4.87-.45 1.36s.69.64.93.25a46 46 0 0 0 5.62-15.77 110.25 110.25 0 0 0 1.58-17.4c.07-3.15.08-6.29.08-9.44a.5.5 0 0 0-1 0Z" class="cls-9"/></svg>