<svg xmlns="http://www.w3.org/2000/svg" id="Camada_1" data-name="Camada 1" viewBox="0 0 304 787.22"><defs><style>.cls-2{fill:#974f32}.cls-9{fill:#010101}.cls-4{fill:#080606}.cls-7{fill:#282e69}.cls-10{fill:#e8e7e7}.cls-11{fill:#4f190d}</style></defs><ellipse cx="124.65" cy="762.17" rx="124.65" ry="25.05" style="fill:#6c6c6b"/><path d="M45.63 435.2c-8.06 16.1-31.32 77.38-12.53 162.81 2.24 29.07 8.05 37.57 13 31.31 4.48 6.26 8.35 1.19 7.9-1.94 5.37 7.16 10.14 1.49 5.07-13.71-5.8-17.4-7.6-75.15.9-116.75s11.18-51.44 11.18-51.44Z" class="cls-2"/><path d="M214.15 223.86c-16-1.79-30.67-19.08-19.08-34-25.36-17.89-20.58-47.12-2.39-49.5-22.05-25.64-3.56-39.36 11.32-38.76-15.3-27.73 21-45.1 33.5-35.11-7.09-28.7 37.91-42.49 47.28-22.22C293.61 24 329.45 21 334.41 46.06c13.24-14.91 39.15-7.75 39.15 12.53C390.1 47.85 416 62.76 406.08 89c21 0 39.7 21.47 21.51 46.52 23.71 6 27.56 40.55 6.61 45.33 20.4 16.1 5 45.32-21.5 42.94-1.1 33.99-182.56 65.08-198.55.07Z" style="stroke:#161616;stroke-miterlimit:10;fill:#010101" transform="translate(-144.37 -27.67)"/><path d="M80.44 614.27c1.69 40.7 15.2 105 15.33 120.2s-14.58 22.19-20.32 31.19 1.61 13.4 15 6.13 26.64-13.31 30-17.54c1.18-1.51 2.35-4.35 2.67-19.56s5.17-76.09 3.05-115.88c-3.31-13.84-45.73-4.54-45.73-4.54Z" class="cls-2"/><path d="M110.74 742.1c-3.76-1.84-9.46-6-15.1-5.11a21.84 21.84 0 0 1-1.73 6.44c5.58-.58 11.82 2 12.11 4.38s-9.24 9.91-18.81 5.21c-4.23 4.5-9 8.34-11.76 12.64-5.73 9 1.61 13.4 15 6.13s26.64-13.31 30-17.54c1-1.29 2-3.59 2.48-13.79-2.94-.34-8.47 3.46-12.19 1.64Z" class="cls-4"/><path d="M126.36 614.57c1.69 40.69 15.2 105 15.33 120.2s-14.58 22.19-20.32 31.19 1.61 13.4 15 6.13 26.64-13.31 30-17.55c1.18-1.5 2.35-4.34 2.67-19.55s5.18-76.09 3-115.88c-3.26-13.84-45.68-4.54-45.68-4.54Z" class="cls-2"/><path d="M156.63 742.4c-3.77-1.84-9.47-6-15.11-5.11a21.84 21.84 0 0 1-1.73 6.44c5.58-.58 11.82 2 12.11 4.37s-9.24 9.92-18.81 5.22c-4.23 4.5-9 8.34-11.76 12.64-5.73 9 1.61 13.4 15 6.13s26.64-13.31 30-17.55c1-1.28 2-3.58 2.48-13.78-2.9-.34-8.43 3.46-12.18 1.64Z" class="cls-4"/><path d="M179.26 464.55c11.34-10.13 29.07-56.22 83.05-56.22 88.56-5.07 94.53 65.84 94.53 65.84-6 4.05-36.68 10.64-36.68 10.64 3.28 18.23 9.69 25.32 10.29 27.68S363.4 640.8 367 678.28c-10.89 9.12-12.23-3.54-27.89 2s-20.42 6.08-31.16 0-19.68-4-33.54 2-25-.5-33.1-1-18.79 5.07-33.1 5.57-15.66-6.75-24.16-6.24c.45-12.16 13.87-138.61 22.82-163.94.44-16.2-.45-34.94-.45-34.94s-22.24-5.54-27.16-17.18Z" style="fill:#1c4e9d" transform="translate(-144.37 -27.67)"/><path d="M241.64 381c-.54 11.18-.28 20.57 0 30 .71 24 51.23 21.92 51.23 0s-1.6-29.52-1.6-29.52Z" style="fill:#833c20" transform="translate(-144.37 -27.67)"/><path d="M62.12 415.66c0 9.39.18 18.78.27 28.17v7.92a.5.5 0 0 0 1 0c0-9.34-.18-18.68-.26-28v-8.07a.5.5 0 0 0-1 0Zm1.51 60.42a38.44 38.44 0 0 1 11.62-.77c3.8.26 7.56.87 11.34 1.27 7.89.82 15.81 1 23.73 1s16.06.53 24.08.05c4-.23 8-.86 11.93-1.32s8.08-.9 12.14-1.05c4.5-.18 9-.11 13.53-.19s9.17-.18 13.76-.18a.5.5 0 0 0 0-1c-8.2 0-16.4.23-24.6.3s-16.06 1.34-24.08 2.2-16.09.34-24.1.22-15.88-.12-23.82-.81c-4.34-.38-8.66-1.08-13-1.44a40.75 40.75 0 0 0-12.8.74c-.62.15-.36 1.11.27 1Zm24.15 2.07a209.64 209.64 0 0 0-8.05 45.26q-.4 6.51-.31 13a.5.5 0 0 0 1 0 192 192 0 0 1 5.13-45.68q1.41-6.21 3.2-12.33a.518.518 0 0 0-1-.27Z" class="cls-7"/><path d="M101.48 477.99a169.5 169.5 0 0 1-2.68 23q-.55 3.2-1.17 6.39c-.12.62.84.89 1 .26 1.49-7.71 2.77-15.49 3.49-23.31.19-2.11.33-4.23.4-6.34 0-.65-1-.65-1 0Zm60.01-1.24a93.63 93.63 0 0 1 7.42 23.3 41.2 41.2 0 0 1 .56 6.56.5.5 0 0 0 1 0c0-8.29-2.58-16.55-5.54-24.21-.81-2.07-1.67-4.13-2.58-6.16-.26-.58-1.12-.08-.86.51Z" class="cls-7"/><path d="M224.99 274.17C255.85 160.41 90.7 70.33 17.63 181.13l-.22.45c-13.42 37.8-4.9 64 2.91 92.74 7 25.79-18 48.6 24.45 75.89 28.47 18.28 136.43 25.5 164.6-27.29 46.04 22.82 67.06-65.75 15.62-48.75Z" class="cls-2"/><path d="M273.19 137.39c-41.75 1.78-101.38 10.13-115.1 72.75 0 9.55 12.52-1.19 14.31-9.54 15.51 1.79 22.27-6.72 25-10.73 11.13 12.09 33.9 7.6 42.94-3.58 1.89 9.69 24 11.39 32.21 6 .49 13.06 20.87 15.51 31.61 11.33-2.39 15.51 4.72 28 25 25.63 7.18 2.4-6.54 16.72 6 23.28s-5.3 16.16 4.8 23.88 4.14 16.67 4.14 32.18 14.91 31.61 19.68 6c3.58-18.49 22.52-16.25 25.2-14.91 21.38-9.62 30.33-161.68-115.79-162.29Z" style="fill:#161616" transform="translate(-144.37 -27.67)"/><path d="M128.82 109.22a271.14 271.14 0 0 0-31.93 3 143.39 143.39 0 0 0-32.86 9.11 89 89 0 0 0-28.7 18.88 81.63 81.63 0 0 0-19.46 32.45c-.56 1.7-1.06 3.41-1.52 5.14s-1.21 3.55-1.12 5.22.8 3.68 2.82 3.74 4.15-1.56 5.63-2.88a24.08 24.08 0 0 0 5.42-7 16.21 16.21 0 0 0 1.42-3.79l-.49.36c6 .67 12.28-.07 17.55-3.26a26.3 26.3 0 0 0 7.93-7.72l-.78.1c9.06 9.7 24.86 8.89 35.72 2.88a27.21 27.21 0 0 0 7.93-6.46l-.84-.22c.93 4.45 5.48 6.81 9.46 8a35.75 35.75 0 0 0 16.16.86 19.48 19.48 0 0 0 7.32-2.61l-.75-.43c.54 11.42 14.59 14.27 23.74 13.6a30.18 30.18 0 0 0 8.5-1.78l-.62-.62c-1.31 8.75.23 18.86 8.55 23.67 4.6 2.66 10.14 3.16 15.34 2.75 1.11-.09 2.07-.28 2.81.71a3.23 3.23 0 0 1 .52 1.91 23.83 23.83 0 0 1-.94 5.5c-.89 3.94-1.55 8.38 1.1 11.82s8.73 4.25 8.25 9.54c-.33 3.73-2.84 6.92-3.06 10.69a7.17 7.17 0 0 0 1.61 5 22.11 22.11 0 0 0 2.83 2.56 15.14 15.14 0 0 1 2.59 2.89c2.73 4.1 2.2 9.14 1.62 13.78-.73 5.73-1.79 11.64-1.08 17.42a26.62 26.62 0 0 0 4.22 11.71c1.63 2.41 4.14 5.09 7.29 5.1 3.57 0 5.72-3.61 6.91-6.51s1.63-6 2.43-9.05a19.5 19.5 0 0 1 3.35-7c4.39-5.63 12.46-7.74 19.3-6.31.73.16 1.49.63 2.17.31a7.27 7.27 0 0 0 1.34-.86 13.09 13.09 0 0 0 2.5-2.7 32.32 32.32 0 0 0 4.22-8.9 74 74 0 0 0 2.87-12.82 114.44 114.44 0 0 0 1.09-15.91 138.06 138.06 0 0 0-5.1-37.1 127.05 127.05 0 0 0-7.08-19.14 113.38 113.38 0 0 0-10.79-18.52 105.9 105.9 0 0 0-14.88-16.64 107.13 107.13 0 0 0-19.46-13.92 120.86 120.86 0 0 0-24.38-10.19 153.24 153.24 0 0 0-30-5.61c-5.55-.51-11.13-.75-16.71-.77a.5.5 0 0 0 0 1 172.48 172.48 0 0 1 38.43 4.22 125 125 0 0 1 30.24 11.19 104.52 104.52 0 0 1 39.64 36.83 117.85 117.85 0 0 1 10.95 22.39 132.31 132.31 0 0 1 6.06 22.71 134.46 134.46 0 0 1 2 21.66 113.35 113.35 0 0 1-1.23 18.77 65.14 65.14 0 0 1-3.73 14.41c-1.19 3-2.78 6.21-5.35 8.23a7.87 7.87 0 0 1-1.44.87h.5a12.55 12.55 0 0 0-4.82-.9 24.09 24.09 0 0 0-7.83.87c-7.05 2-11.68 7.67-13.18 14.76-.91 4.3-3.53 16.9-10.66 12.83-2.43-1.39-4.13-4-5.35-6.4a26.78 26.78 0 0 1-2.67-10.31c-.28-4.77.42-9.58 1-14.29.48-3.68 1.07-7.53.3-11.22a12.93 12.93 0 0 0-2-4.72 24.25 24.25 0 0 0-4.31-4.28c-2.65-2.34-2.84-5.3-1.79-8.5.88-2.67 2.4-5.32 2.44-8.2.05-3.66-2.8-5.45-5.61-7.12-3.48-2.08-4.86-5.44-4.51-9.38.27-3.07 1.43-6 1.66-9.06a4.92 4.92 0 0 0-.6-3.1 3.23 3.23 0 0 0-1.09-1 3.58 3.58 0 0 0-2.44-.26c-4.49.38-9.22.11-13.39-1.76-6.88-3.08-10-10-10.13-17.27a35.62 35.62 0 0 1 .42-6.1c.05-.34-.22-.77-.62-.62a32.11 32.11 0 0 1-14.65 1.66c-4.73-.49-9.91-1.95-13.31-5.46a10.69 10.69 0 0 1-3-7.05.5.5 0 0 0-.75-.43c-3.89 2.51-9 3-13.5 3-4.78-.06-10.05-.87-14.13-3.53a8.23 8.23 0 0 1-3.85-5.11.5.5 0 0 0-.83-.22c-3.79 4.62-9.28 7.64-15 9.27a31.33 31.33 0 0 1-18.44-.05 21.32 21.32 0 0 1-8.82-5.65.51.51 0 0 0-.79.1 25.33 25.33 0 0 1-7.57 7.37c-5.13 3.1-11.18 3.77-17 3.12a.51.51 0 0 0-.48.37 19 19 0 0 1-4 7.67c-1.58 1.93-3.58 4-6 4.93a2.64 2.64 0 0 1-2.34.07 3.24 3.24 0 0 1-1-2.74 24.53 24.53 0 0 1 1.22-5.18q.67-2.5 1.49-5a80.46 80.46 0 0 1 18.71-31.34 87.24 87.24 0 0 1 27.33-18.44 138 138 0 0 1 31.41-9.14 250.76 250.76 0 0 1 30.8-3.29l3.61-.16c.68-.03.69-1.03.04-1Z" class="cls-9"/><path d="M150.29 263.96c6.71 6 11.41 16.55 6.26 27.28s-14.76 12.34-23.26 12.09c-12.22-.38-26.16-15.73-11.62-37.65 8.72-10.52 24.82-4.63 28.62-1.72Z" class="cls-10"/><path d="M136.63 270.14c14.35 3.4 19.55 29.15.59 33.1-25.19 5.25-30.15-40.09-.59-33.1Zm22.2 4.64a20.11 20.11 0 0 0-4.73-8.82 22.43 22.43 0 0 0-10.47-6.21 33.17 33.17 0 0 0-8.87-1.14.5.5 0 0 0 0 1 27.93 27.93 0 0 1 13.72 3.21 19.49 19.49 0 0 1 7.48 7.43 18.87 18.87 0 0 1 1.88 4.8c.15.62 1.12.36 1-.27Z" class="cls-9"/><path d="M155.35 267.94a18 18 0 0 0 5.22-2.09c1.72-.95 3.36-2 5-3a.5.5 0 0 0-.51-.86c-1.63 1-3.22 2-4.88 2.94a17.52 17.52 0 0 1-5.14 2.08c-.63.12-.36 1.08.27 1Z" class="cls-9"/><path d="M36.78 263.96a28.48 28.48 0 0 0-4.67 27.28c3.84 10.74 11.87 11.15 18.21 10.89 6-.25 14.86-4.3 15-15 .43-37.8-25.69-26.08-28.54-23.17Z" class="cls-10"/><path d="M41.63 270.14c-14.38 2.91-12.91 28.37 1.27 32.21 22.86 6.18 21.41-36.79-1.27-32.21Z" class="cls-9"/><path d="M31.26 275.05c1.11-6.13 4.65-12 10.69-14.33a18.39 18.39 0 0 1 6.4-1.11.5.5 0 0 0 0-1 17.68 17.68 0 0 0-10.64 3.32 18.81 18.81 0 0 0-5.9 7.75 24.53 24.53 0 0 0-1.52 5.1c-.11.63.85.9 1 .27Z" class="cls-9"/><path d="M33.24 266.98a11.1 11.1 0 0 1-3.74-2c-1.24-.92-2.4-1.94-3.6-2.9-.5-.4-1.21.3-.71.7 1.27 1 2.5 2.09 3.8 3.06a11.69 11.69 0 0 0 4 2.14.517.517 0 0 0 .26-1Zm85.39-49.26c2.18 2.61 5.63 4.14 8.74 5.32a54.5 54.5 0 0 0 13 3.07 43.17 43.17 0 0 0 7.26.22c.64 0 .64-1 0-1a47.74 47.74 0 0 1-12.72-1.16 42.45 42.45 0 0 1-11.48-4.06 14.19 14.19 0 0 1-4.08-3.13c-.41-.5-1.11.22-.7.71Zm-93.89 12.2a29.38 29.38 0 0 0 8.87-4.2 54.41 54.41 0 0 0 9.09-7.7c.44-.47-.26-1.18-.71-.71a52.42 52.42 0 0 1-8.88 7.54 28.5 28.5 0 0 1-8.64 4.11.518.518 0 0 0 .27 1Z" class="cls-9"/><path d="M77.51 304.9c-1.5-1.87-3.1-4.82-1.15-7 1.78-2 4.94-2.29 7.43-2.21a20.56 20.56 0 0 1 5.76 1.06c.61.2.88-.76.27-1a18.49 18.49 0 0 0-10.74-.57c-2.43.72-4.78 2.49-4.62 5.28a9.13 9.13 0 0 0 2.35 5.07c.4.5 1.1-.21.7-.71Zm.23 22.85a12.17 12.17 0 0 1 9.58-4.19c4.54.31 8.42 3.38 11.35 6.65a48.52 48.52 0 0 1 6.46 9.52c.31.56 1.17.06.86-.51-2.94-5.46-6.7-11.09-12.09-14.42a13 13 0 0 0-11.43-1.47 15 15 0 0 0-5.44 3.75c-.44.47.26 1.18.71.71Zm169.05-35.67c-1-2.83-3.23-5.31-6.29-5.71-4.08-.53-7.41 2.73-9.54 5.81a42.39 42.39 0 0 0-5.11 11.23c-.2.61.77.88 1 .27a44.34 44.34 0 0 1 4.24-9.79 16.75 16.75 0 0 1 4.54-5.16c2.38-1.65 5.39-2 7.73-.09a8 8 0 0 1 2.52 3.7c.2.61 1.17.35 1-.26Z" class="cls-11"/><path d="M34.03 163.82c1-6.19 4.41-11.86 8.1-16.82a80.25 80.25 0 0 1 14.5-14.87 53.7 53.7 0 0 1 8.45-5.58c.57-.3.07-1.16-.5-.87a65.29 65.29 0 0 0-15.31 11.65 69 69 0 0 0-12.78 16.65 31.8 31.8 0 0 0-3.42 9.56c-.11.63.86.9 1 .27Zm24.1-6.14a103.9 103.9 0 0 1 11.34-17.35 70.54 70.54 0 0 1 15.86-14.94 34.45 34.45 0 0 1 10.08-4.64.518.518 0 0 0-.27-1c-6.69 1.74-12.58 5.86-17.63 10.46a93.42 93.42 0 0 0-14.44 17.11 100.2 100.2 0 0 0-5.8 9.78c-.3.57.57 1.08.86.51Zm40.26-4.03c3.37-5.62 6.77-11.24 10.64-16.53s8.31-10.45 13.7-14.32a31.67 31.67 0 0 1 9.36-4.7.518.518 0 0 0-.27-1c-6.18 1.84-11.47 5.76-15.95 10.3a99.11 99.11 0 0 0-12.57 16.33c-2 3.09-3.88 6.24-5.77 9.39-.34.55.53 1.05.86.5Zm34.81 5.92c8.51-8.54 15.26-18.53 22.65-28 2.07-2.66 4.2-5.26 6.43-7.79.42-.48-.28-1.19-.71-.7-7.94 9-14.49 19.06-22.19 28.23-2.2 2.61-4.48 5.14-6.89 7.55a.502.502 0 0 0 .71.71Zm33.1 15.65c4.48-5.58 9.6-10.63 13.67-16.54a58.52 58.52 0 0 0 4.68-7.93c1.29-2.72 2.4-5.53 3.63-8.28s2.38-5.44 4.41-7.5a.502.502 0 0 0-.71-.71 22.42 22.42 0 0 0-4 6.41c-1.27 2.72-2.37 5.52-3.61 8.25a68.65 68.65 0 0 1-10.85 16.34c-2.66 3.08-5.41 6.08-8 9.26-.4.49.31 1.21.71.7Zm26.84 22.37a148.47 148.47 0 0 0 12.34-16.55c3.27-5.21 5.29-11 7.44-16.76a67.23 67.23 0 0 1 3.56-8.39c.3-.57-.56-1.07-.87-.51-2.66 5-4.26 10.49-6.34 15.72a54.11 54.11 0 0 1-3.86 8.14c-1.79 2.94-3.71 5.78-5.74 8.55-2.3 3.12-4.74 6.13-7.24 9.09-.41.49.29 1.2.71.71Zm14.76 31.31a74 74 0 0 0 14.5-17.29q1.43-2.37 2.66-4.86c.84-1.72 1.81-3.37 2.59-5.12a84 84 0 0 0 3.83-10.8c.62-2.08 1.11-4.18 1.66-6.27.3-1.16.55-2.33.79-3.51.09-.44.22-.87.32-1.31l.12-.63a1.33 1.33 0 0 0 .05-.19c0-.15.14-.17-.06-.07h-.38c-.22 0-.2-.21-.08.13.21.6 1.18.34 1-.27-.16-.42-.48-1.1-1.05-.75s-.47 1.17-.58 1.64q-.66 3.06-1.45 6.1c-.51 2-1 3.94-1.59 5.89s-1.23 3.95-1.95 5.88a54.73 54.73 0 0 1-2.39 5.56c-.46.91-1 1.77-1.44 2.69s-.84 1.71-1.3 2.55a69.27 69.27 0 0 1-6.63 10.08 74.24 74.24 0 0 1-9.3 9.79c-.48.43.23 1.13.71.71Zm12.52 34.43a79.7 79.7 0 0 0 14.21-20.44 98.49 98.49 0 0 0 8.78-24.5 56.12 56.12 0 0 0 1.3-12.66.5.5 0 0 0-1 0c.19 7.85-1.69 15.71-4.21 23.09a102.77 102.77 0 0 1-11.42 23.38 67.84 67.84 0 0 1-8.37 10.43c-.46.46.25 1.17.7.71Z" class="cls-9"/><path d="M175.34 446.08c5.37 25.05 13.42 102.28 5.37 128.67s-12.53 37.58-8.08 40.71 9.84-13.87 9.84-13.87c-5.67 21.92-3.13 25 1.34 27.28s17.59 1.05 24-25.94c4.87-20.51 15.36-113.16-.74-164.6-11.15 3.57-31.73 7.75-31.73 7.75Z" class="cls-2"/><path d="M188.26 606.81a23.19 23.19 0 0 1-1.72 9.37 63.61 63.61 0 0 1-4 8.71c-.31.57.56 1.08.87.51a65.87 65.87 0 0 0 4.13-9 24 24 0 0 0 1.75-9.64c-.05-.64-1.05-.65-1 0Zm7.75 1.34c.4 6.61-3 12.57-6.19 18.09a.5.5 0 0 0 .86.5c3.31-5.66 6.74-11.81 6.33-18.59 0-.64-1-.64-1 0Z" class="cls-11"/><path d="M140.27 477.56a38.46 38.46 0 0 0-1.64 11.93c-.05 4.09.14 8.18.16 12.28 0 4.84.19 9.68.41 14.51s.4 9.55.82 14.31c.16 1.83.23 3.66.45 5.49a10.78 10.78 0 0 0 1.37 4.78c.36.53 1.23 0 .86-.5a9.59 9.59 0 0 1-1.22-4.19c-.2-1.63-.28-3.28-.41-4.91-.33-4.49-.57-9-.79-13.49-.24-4.75-.42-9.51-.47-14.27 0-4.1-.17-8.2-.18-12.3 0-4.49.17-9.1 1.63-13.38.21-.61-.75-.87-1-.26Zm11.01-.17c.89 10.11 1.19 20.27 1.2 30.42a.5.5 0 0 0 1 0c0-10.15-.31-20.31-1.2-30.42 0-.63-1-.64-1 0Zm10.46-71.06c-1.18 5.83.94 11.66 2.25 17.28 1.2 5.12 1.78 10.38 2.54 15.58.41 2.76.83 5.53 1.47 8.26a.51.51 0 0 0 .62.34q7.17-1.69 14.43-3c2.42-.43 4.86-.72 7.27-1.19s5.06-1.19 7.57-1.88a76.09 76.09 0 0 1 8.6-2c.63-.09.36-1.06-.27-1-5.14.79-10.06 2.58-15.14 3.67-2.41.52-4.87.81-7.31 1.22s-4.89.88-7.33 1.38q-4.05.82-8.09 1.78l.62.35c-1.18-5-1.72-10.12-2.47-15.18-.36-2.44-.73-4.88-1.24-7.29-.58-2.75-1.38-5.44-2-8.18a24.18 24.18 0 0 1-.57-9.94c.13-.63-.83-.89-1-.26Z" class="cls-7"/><path d="M154.32 324.04c0 7-7.48 12.75-16.7 12.75s-16.7-5.71-16.7-12.75 7.48-12.71 16.71-12.71 16.69 5.67 16.69 12.71Zm-90.36 0c0 7-7.47 12.75-16.7 12.75s-16.69-5.71-16.69-12.75 7.47-12.71 16.69-12.71 16.7 5.67 16.7 12.71Z" style="fill:#9a3728"/></svg>
