<svg xmlns="http://www.w3.org/2000/svg" id="Camada_1" data-name="Camada 1" viewBox="0 0 297.95 789.07"><defs><style>.cls-9{fill:#010101}.cls-3{fill:#974f32}.cls-4{fill:#080606}.cls-7{fill:#e8e7e7}.cls-8{fill:#4f190d}.cls-11{fill:#f9af1b}.cls-13{fill:#9a3728}</style></defs><ellipse cx="161.1" cy="763.97" rx="124.89" ry="25.1" style="fill:#6c6c6b"/><path d="M191.48 234c-17.33-1.8-37.64-23.31-25.1-38.25-27.48-17.93-17.33-42.42 2.39-44.82-23.9-25.69.83-46.53 17-45.94-16.58-27.78 19.2-49.37 32.79-39.36-7.69-28.76 41.08-42.57 51.24-22.26 9.56-20.31 48.41-23.3 53.78 1.79C337.88 30.22 366 37.39 366 57.7c17.9-10.7 46 4.19 35.23 30.48 22.7 0 43 21.51 23.3 46.61 25.7 6 29.88 40.63 7.17 45.41 22.11 16.14 5.38 45.42-23.3 43-1.2 34.09-199.59 75.92-216.92 10.8Z" style="stroke:#161616;stroke-miterlimit:10;fill:#010101" transform="translate(-149.07 -26.72)"/><path d="M203.85 609.09c5.59 40.42-2.26 107.19-.43 122.32s17.33 20.18 24.19 28.38.13 13.52-14.08 8-28.18-9.81-32-13.58c-1.37-1.34-2.9-4-5.17-19.09s-12.32-80.05-17.32-119.66c.71-14.18 44.81-6.37 44.81-6.37Z" class="cls-3"/><path d="M189.52 740.92c3.5-2.31 8.63-7.2 14.35-7a22.26 22.26 0 0 0 2.54 6.18c-5.61.13-11.49 3.48-11.47 5.9s10.47 8.66 19.36 2.76c4.79 3.93 10 7.13 13.31 11 6.86 8.2.13 13.52-14.08 8s-28.18-9.81-32-13.58c-1.18-1.15-2.47-3.31-4.24-13.38 2.79-.66 8.77 2.4 12.23.12Z" class="cls-4"/><path d="M103.44 611.14c1.34 40.79 14.34 105.33 14.34 120.56s-14.79 22.12-20.62 31.08 1.5 13.44 14.94 6.27 26.81-13.12 30.18-17.33c1.2-1.49 2.39-4.33 2.84-19.57s5.82-76.19 4-116.08c-3.11-13.89-45.68-4.93-45.68-4.93Z" class="cls-3"/><path d="M215.16 499.9c-14.94-38-4.18-90.14 71.41-98.51 86.65-3.54 99.49 38.31 99.49 38.31-6 3.86-22.11 13.52-22.11 13.52 3.29 17.39 1.5 48 2.1 50.22s33 122.33 36.6 158.06c-10.91 8.7-12.25-3.38-27.94 1.94s-20.47 5.79-31.22 0-19.72-3.87-33.62 1.93-25.09-.49-33.16-1-18.82 4.83-33.17 5.31-20.16-5.31-28.68-4.83c.45-11.58 18.38-133.27 27.34-157.41a52.74 52.74 0 0 1 7.92-26.24s-22.41 10.97-34.96 18.7Z" style="fill:#fdca39" transform="translate(-149.07 -26.72)"/><path d="M274.37 375.68c-.54 11.21-.28 20.61 0 30 .71 24.05 51.34 22 51.34 0s-1.6-29.58-1.6-29.58Z" style="fill:#833c20" transform="translate(-149.07 -26.72)"/><path d="M53.62 281.36c-13.75-14.34-33.77-14-40.34-.59-5.83 11.92 4.18 36.15 23.31 40.93a30 30 0 0 0 30.17-9.26Zm197.49-1.79c13.75-14.34 33.77-14 40.34-.6 5.83 11.93-4.19 36.16-23.31 40.94a30 30 0 0 1-30.21-9.27Z" class="cls-3"/><path d="M149.82 109.28c-67.57 1.41-122.89 63.35-112.34 129.66 14.45 90.34 33.45 105.17 65.14 117.72s120.07 12.41 142.89-34.14c22.41-45.71 34-99.72 17.25-141.55s-56.17-72.9-112.94-71.69Z" class="cls-3"/><path d="M85.81 259.4c-6.72 6.05-11.43 16.59-6.27 27.34s14.79 12.36 23.3 12.1c12.25-.37 26.22-15.76 11.65-37.72-8.74-10.53-24.87-4.63-28.68-1.72Z" class="cls-7"/><path d="M148.24 298.41a12.68 12.68 0 0 1-3-3.56 3.51 3.51 0 0 1-.31-2.57 3.31 3.31 0 0 1 1.4-1.72 8.18 8.18 0 0 1 2.83-1.12 17.35 17.35 0 0 1 7.21 0c2 .4 4.29 1.18 5.52 2.8 1.61 2.13.14 4.66-1.47 6.44-.43.48.27 1.19.7.71 1.67-1.84 3.26-4.44 2.06-6.94-1-2.09-3.44-3.17-5.55-3.74a18.79 18.79 0 0 0-8-.38c-2 .34-4.47 1.14-5.43 3.1-1.18 2.4.7 5 2.3 6.63.34.35.7.7 1.07 1s1.18-.27.71-.71Z" class="cls-8"/><path d="M79.83 221.28a30.46 30.46 0 0 0 16-3.42 35.27 35.27 0 0 0 9.78-8c1.16-1.32 2.23-2.71 3.3-4.1.39-.51-.48-1-.86-.51a51.75 51.75 0 0 1-6.7 7.48 29.69 29.69 0 0 1-12 6.57 30.78 30.78 0 0 1-9.61.94c-.64 0-.64 1 0 1Zm120.71-25.09c7.86 0 16.18 2.68 20.6 9.6a21.43 21.43 0 0 1 2.82 7.06c.14.63 1.1.36 1-.27a21.08 21.08 0 0 0-6.51-11.47 23.86 23.86 0 0 0-10.85-5.21 33.88 33.88 0 0 0-7-.71.5.5 0 0 0 0 1Zm-104.5 57.98c-14.38 3.41-15.65 29.81 3.45 33.25 28.15 5.07 26.12-40.25-3.45-33.25Z" class="cls-9"/><path d="M192.53 304.8c12.32 14.34 9-13.75 4.93-31.67-1.8-9.86 7.53-8.24 11.2-22.11 2-7.62-2.91-18.6 3.36-24.43 12.33-.67 17.26-19.94 19.5-22.48 10.31 9 26.22-12 29.13-12.93C277 195 292 187.38 297.4 182c4.71 3.13 15.46 12.92 38.1 4.18 5.82 9.86 16.58 18.6 30.47 13.89 5.38 16.36 10.76 19.5 22.86 21.52 5.82 3.81-4.26 20.39 12.55 25.32-.23 2.24-5.61 15.91 1.12 20.62s6.5 5.6 4.93 11.2-5.83 27.11.89 27.11 10.31-19.49 13.22-38.31 3.74-76.87-49.15-112.42-112.93-23-154.47 10.75-39.06 66.88-37.57 93.3c1.35 23.75 9.04 41.31 12.18 45.64Z" style="fill:#161616" transform="translate(-149.07 -26.72)"/><path d="M43.1 278.43c1.41 1.62 4.42 5.21 7 3.79 2.3-1.26 2.36-5.19 2.45-7.41a79.22 79.22 0 0 0-1-14.09c-.38-2.7-.83-5.4-1.34-8.08-.47-2.5-1.26-5.05-1.48-7.58a7.88 7.88 0 0 1 1.18-5.1 26.79 26.79 0 0 1 3.48-3.82 24.49 24.49 0 0 0 7-13c.9-5.54-.81-11.13 0-16.66a11.59 11.59 0 0 1 1.26-4 8.46 8.46 0 0 1 1.17-1.64c.44-.47.73-.45 1.35-.54a13.22 13.22 0 0 0 5.73-2.36c6.48-4.6 8.83-12.33 12.31-19.06a5.76 5.76 0 0 1 .66-1.09h-.7c7.34 6.29 16.79-1.32 22.39-6.36 1.5-1.35 2.95-2.75 4.42-4.13.53-.5 1.07-1 1.63-1.48a3.42 3.42 0 0 1 1.12-.81 3.16 3.16 0 0 1 .65.18c.5.11 1 .2 1.52.28.89.15 1.79.27 2.69.37a40.56 40.56 0 0 0 5.83.16 44.66 44.66 0 0 0 10.39-1.72c5.7-1.66 11.6-4.38 15.87-8.6l-.6.08a54.91 54.91 0 0 0 8.8 5.29 32.63 32.63 0 0 0 16.23 2.23 52.55 52.55 0 0 0 13.45-3.37l-.57-.23a33.82 33.82 0 0 0 12.54 12.7 23.14 23.14 0 0 0 18.5 1.46l-.61-.35c1.68 5.08 3.66 10.38 7.2 14.49a20.26 20.26 0 0 0 10.17 6.12c1.11.32 2.23.57 3.36.8 1 .19 2.25.14 2.94.9a6.32 6.32 0 0 1 1.22 3.89c.25 3.7-.25 7.42.6 11.07 1.22 5.26 5.25 8.4 10.26 9.91l-.36-.48a29 29 0 0 1-.86 3.42 47.62 47.62 0 0 0-1.13 5.56c-.49 3.59-.54 7.89 2 10.81s7.63 4.15 6.89 8.71c-.26 1.56-.79 3.07-1.16 4.61s-.71 3.09-1 4.64a76.71 76.71 0 0 0-1.4 11.39c-.1 2.78-.24 6.46 1.48 8.85 1.42 2 3.95 1.67 5.65.21 2.83-2.42 4.13-6.66 5.19-10.08a144 144 0 0 0 4-17.78c.72-4.15 1.46-8.31 1.95-12.5a111.14 111.14 0 0 0 .67-15.8 123.73 123.73 0 0 0-9.18-44.36 111.21 111.21 0 0 0-35.98-46.13 124 124 0 0 0-66.32-25c-22.42-1.42-44.91 3.65-65 13.44a150.72 150.72 0 0 0-27.88 17.63c-9.67 7.71-18.54 16.6-25.38 26.95a83.44 83.44 0 0 0-11.52 26.3 103.41 103.41 0 0 0-2.62 24.49c0 19 1.82 38.48 9.4 56.07a35 35 0 0 0 3.5 6.66c.37.52 1.24 0 .86-.51a35.79 35.79 0 0 1-3.55-6.77 97.46 97.46 0 0 1-4.29-12.46c-2.87-10.4-4-21-4.58-31.72a157.13 157.13 0 0 1 .16-22.86 85 85 0 0 1 6.21-25.15c8.85-20.89 26.36-37.31 45.19-49.35 18.48-11.83 39.67-19.63 61.58-21.51a120.29 120.29 0 0 1 66.69 13.74c18.95 10.08 35.31 24.75 46.13 43.38a117.47 117.47 0 0 1 14.82 45.84 126.46 126.46 0 0 1 .74 18.46 133.84 133.84 0 0 1-1.9 16.94c-1 6.07-2.07 12.14-3.61 18.1-1.07 4.11-2.25 8.9-5 12.26-1.53 1.87-4.22 2.87-5.47.19-1.33-2.85-1-6.59-.78-9.63a86.32 86.32 0 0 1 1.65-11.08c.27-1.28.56-2.55.9-3.81a18.06 18.06 0 0 0 1-4.85c0-4-4.59-5.5-6.95-7.9-2.85-2.9-2.48-7.74-1.86-11.41.46-2.7 1.53-5.33 1.85-8a.5.5 0 0 0-.37-.48c-4.65-1.4-8.37-4.24-9.54-9.12-.86-3.58-.35-7.26-.59-10.9a8.65 8.65 0 0 0-.95-3.84 3.77 3.77 0 0 0-1.23-1.34 12.37 12.37 0 0 0-3.24-.68c-4-.84-8-2.17-11.06-5-4.41-4.05-6.61-10.08-8.45-15.62a.5.5 0 0 0-.61-.35 22.17 22.17 0 0 1-18-1.51 33 33 0 0 1-11.89-12.15.5.5 0 0 0-.57-.23c-6.78 2.59-14.12 4.24-21.4 3.23a30.92 30.92 0 0 1-12.32-4.63c-1.36-.87-2.65-1.84-4-2.73a.48.48 0 0 0-.6.07c-3.69 3.65-8.66 6.1-13.53 7.74a41.9 41.9 0 0 1-21.44 1.6c-.85-.17-1.42-.44-2.16 0a9.4 9.4 0 0 0-1.17.91c-1.21 1.05-2.35 2.18-3.52 3.28a57.51 57.51 0 0 1-10.31 8.23c-4.09 2.37-9.1 3.71-13 .33a.51.51 0 0 0-.7 0 10.91 10.91 0 0 0-1.46 2.63c-.7 1.52-1.35 3.05-2.06 4.56a39.25 39.25 0 0 1-6.74 10.61 15.4 15.4 0 0 1-5.15 3.68 11.06 11.06 0 0 1-3 .79 2.76 2.76 0 0 0-1.12.22 5.19 5.19 0 0 0-1.32 1.51c-3.1 4.36-2.1 10.31-1.79 15.29a24.53 24.53 0 0 1-.49 8.24 24.06 24.06 0 0 1-3.55 7.63c-2 2.83-5.22 4.88-6.85 8-2 3.75-.27 8.13.47 12a144.27 144.27 0 0 1 2.24 15.48 59.36 59.36 0 0 1 .23 7.3 14.06 14.06 0 0 1-.9 5.14c-1.64 3.61-5.43-.72-6.83-2.34-.54-.45-1.25.22-.83.7Z" class="cls-9"/><path d="M94.31 472.84a38.88 38.88 0 0 1 11.64-.78c3.88.28 7.73.91 11.6 1.3 7.91.81 15.84.95 23.79 1s16.08.53 24.12 0c4-.24 7.91-.87 11.85-1.33s8-.88 12.06-1c4.5-.18 9-.1 13.52-.18s9.19-.18 13.79-.18a.5.5 0 0 0 0-1c-8.21 0-16.43.22-24.64.29-8 .08-15.95 1.32-23.91 2.19s-16.26.37-24.37.24-15.92-.11-23.83-.81c-4.35-.38-8.67-1.08-13-1.45a40.61 40.61 0 0 0-12.82.75c-.62.14-.36 1.11.27 1Zm24.18 2.08a210.23 210.23 0 0 0-8.07 45.36q-.4 6.5-.31 13a.5.5 0 0 0 1 0 192.71 192.71 0 0 1 5.15-45.82q1.43-6.2 3.2-12.31a.517.517 0 0 0-1-.26Z" class="cls-11"/><path d="M132.22 474.75a171.86 171.86 0 0 1-2.69 23c-.37 2.14-.77 4.27-1.18 6.4-.12.63.84.9 1 .27 1.49-7.73 2.77-15.52 3.49-23.37q.28-3.17.41-6.35c0-.64-1-.64-1 0Zm38.01-.05c4.12 6.08 5.07 13.64 7 20.57a165.18 165.18 0 0 1 4.87 24.54c.59 4.68 1 9.39 1.2 14.1 0 .64 1 .65 1 0a182.13 182.13 0 0 0-2.92-25.19q-1.15-6.2-2.79-12.28c-1-3.64-1.84-7.31-2.82-10.95a37.07 37.07 0 0 0-4.68-11.29c-.36-.53-1.23 0-.87.5Zm22.11-1.19a93.62 93.62 0 0 1 7.44 23.35 42.55 42.55 0 0 1 .56 6.58.5.5 0 0 0 1 0c0-8.31-2.59-16.59-5.56-24.27-.8-2.08-1.66-4.13-2.58-6.17-.26-.58-1.12-.08-.86.51Z" class="cls-11"/><path d="M360.83 433.9a38.38 38.38 0 0 1 3.25 13 128.15 128.15 0 0 1 .37 14.13c0 2.52-.1 5.05-.1 7.57a.5.5 0 0 0 1 0c0-9.35.79-18.91-1.26-28.12a32.89 32.89 0 0 0-2.39-7.09c-.28-.58-1.14-.07-.87.51Z" style="fill:#e8650b" transform="translate(-149.07 -26.72)"/><path d="M132.72 739.47c-3.75-1.87-9.43-6.11-15.09-5.24a21.74 21.74 0 0 1-1.79 6.43c5.59-.53 11.83 2.08 12.1 4.49s-9.35 9.85-18.89 5.07c-4.28 4.47-9.1 8.28-11.89 12.56-5.82 9 1.5 13.44 14.94 6.27s26.81-13.12 30.18-17.33c1-1.28 2-3.57 2.6-13.79-2.89-.36-8.45 3.4-12.16 1.54Z" class="cls-4"/><path d="M78.22 270.52a19.16 19.16 0 0 1 4.48-8.4 21.44 21.44 0 0 1 10.11-6 32.37 32.37 0 0 1 8.54-1.09.5.5 0 0 0 0-1 29.12 29.12 0 0 0-14.25 3.35 20.62 20.62 0 0 0-7.83 7.76 20 20 0 0 0-2 5.1c-.15.63.81.89 1 .27Z" class="cls-9"/><path d="M221.01 259.4c6.72 6.05 11.43 16.59 6.27 27.34s-14.79 12.36-23.3 12.1c-12.25-.37-26.22-15.76-11.65-37.72 8.73-10.53 24.87-4.63 28.68-1.72Z" class="cls-7"/><path d="M216.3 255.44c14 4.64 17.2 27.57-1.8 31.53-25.19 5.31-28.9-41.69 1.8-31.53Z" class="cls-9"/><path d="M229.56 270.28a20.15 20.15 0 0 0-4.74-8.84 22.38 22.38 0 0 0-10.47-6.22 32.85 32.85 0 0 0-8.88-1.15.5.5 0 0 0 0 1 28 28 0 0 1 13.74 3.21 19.52 19.52 0 0 1 7.5 7.45 18.94 18.94 0 0 1 1.88 4.81.518.518 0 0 0 1-.27ZM70.02 260.21c3.34 1.52 6.61 3.2 10.28 3.78.63.1.9-.86.26-1-3.58-.57-6.77-2.2-10-3.69-.58-.26-1.09.6-.5.87Z" class="cls-9"/><path d="M226.07 263.39a18 18 0 0 0 5.24-2.09c1.72-.95 3.36-2 5-3 .55-.33.05-1.2-.5-.87-1.64 1-3.23 2-4.9 2.95a17.41 17.41 0 0 1-5.14 2.08c-.63.12-.37 1.08.26 1Z" class="cls-9"/><ellipse cx="98.73" cy="319.6" class="cls-13" rx="17.7" ry="12.77"/><ellipse cx="208.09" cy="319.15" class="cls-13" rx="17.7" ry="12.77"/><path d="M23.25 289.94a5.44 5.44 0 0 1 2-3.56 6.21 6.21 0 0 1 4-1c4 .2 7.64 2.77 10.31 5.55a28.79 28.79 0 0 1 5.18 7.64c.28.58 1.14.07.87-.5-2.31-4.82-5.83-9.34-10.59-11.92-2.92-1.59-7-2.71-10-.78a6.35 6.35 0 0 0-2.72 4.3c-.11.63.85.9 1 .27Zm261.28-2.96c-.58-3.5-5.72-3.46-8.36-3.15-4.42.54-7.89 3.21-10.66 6.57a48.5 48.5 0 0 0-4.3 6.32.504.504 0 0 0 .87.51c2.07-3.56 4.44-7.15 7.73-9.7a13.62 13.62 0 0 1 10.05-2.73c1.51.19 3.42.71 3.71 2.45.11.63 1.07.36 1-.27Z" class="cls-8"/><path d="M62.67 152.86c-2.29 4.62-3.13 9.91-3.54 15a73.16 73.16 0 0 0 .49 16.4 35.1 35.1 0 0 0 1.66 7.07c.21.6 1.18.34 1-.27a46.22 46.22 0 0 1-2.35-13.65 67.77 67.77 0 0 1 1.1-16.4 31.64 31.64 0 0 1 2.46-7.65c.29-.57-.57-1.08-.86-.5Zm24.15-19.58c-3.4 9.24-4.55 19-4.84 28.83-.09 2.83-.11 5.66-.11 8.5a.5.5 0 0 0 1 0c0-9.76.25-19.6 2.52-29.14a68.91 68.91 0 0 1 2.4-7.93c.22-.6-.75-.86-1-.26Zm28.73-11.35c-2.86 5.8-3.11 12.42-3.2 18.76-.06 4-.78 8-.8 12a15.55 15.55 0 0 0 .2 2.89 2.17 2.17 0 0 0 .85 1.55c.56.31 1.07-.56.5-.87-.08 0-.13-.1-.21-.3a3.69 3.69 0 0 1-.2-.81 15.62 15.62 0 0 1-.14-2.46c0-2.12.18-4.23.36-6.33.16-1.76.36-3.52.43-5.29.11-2.81.08-5.6.39-8.4a30.44 30.44 0 0 1 2.69-10.23c.28-.58-.58-1.08-.87-.51Zm31.31-5.57a189.34 189.34 0 0 1 1.51 25.3q0 3.5-.17 7c0 .64 1 .64 1 0a194.4 194.4 0 0 0-.58-25.31q-.31-3.48-.76-7c-.08-.63-1.08-.64-1 0Zm33.23 2.04c3.93 8.64 4.08 18.46 4 27.78 0 2.61-.06 5.22-.06 7.83a.5.5 0 0 0 1 0c0-9.54.57-19.25-1.59-28.62a40.45 40.45 0 0 0-2.51-7.49c-.27-.59-1.13-.08-.87.5Zm29.13 8.07c4.49 9.72 6.32 20.38 6.88 31 .16 3 .22 6.06.23 9.08a.5.5 0 0 0 1 0c0-10.78-.8-21.71-4-32.07a67.79 67.79 0 0 0-3.25-8.51c-.27-.59-1.14-.08-.87.5Zm26.84 20.05c2.37 10.15 4.05 20.55 3.81 31a75.44 75.44 0 0 1-.67 8.62c-.09.63.88.9 1 .27 1.42-10.38.6-20.9-1.26-31.17-.54-3-1.18-6-1.87-9-.15-.62-1.11-.36-1 .27Zm17.93 21.51c1.39 8.33 3.15 16.58 3.64 25 .34 5.9-.94 11.79-1.51 17.64-.1 1.07-.2 2.14-.34 3.2 0 .32-.09.65-.16 1 0 0-.05.11 0 .15s.19-.08.41-.05a1.73 1.73 0 0 1 .36.05.73.73 0 0 0-.05-.2c-.13-.62-1.1-.36-1 .27s.77 1.05 1.14.36a6 6 0 0 0 .38-2.07c.23-2 .33-4.11.65-6.13.23-1.45.38-2.91.55-4.38.25-2.16.51-4.32.6-6.5a72.11 72.11 0 0 0-1.07-13.36c-.76-5.1-1.77-10.16-2.63-15.24-.1-.64-1.06-.37-1 .26ZM42.45 181.66c-1.68 9.33-1.79 18.88-1.47 28.33.09 2.39.12 4.77.41 7.14s.74 4.78 1.09 7.17c.39 2.58.51 5.19.79 7.78a22.28 22.28 0 0 0 .41 3.06c.09.34.34.69.75.51s.35-.63.35-1a.5.5 0 0 0-1 0 1.61 1.61 0 0 0 0 .31c0 .16-.11-.13.33-.27l.39.05c.21.1.16.34.15.08a2.92 2.92 0 0 0-.07-.39c-.06-.38-.11-.76-.16-1.14q-.18-1.57-.33-3.15c-.08-.82-.15-1.65-.19-2.48a49.48 49.48 0 0 0-.74-5.56c-.36-2.18-.73-4.35-.93-6.55s-.2-4.28-.26-6.42c-.14-4.3-.17-8.61 0-12.91a101.17 101.17 0 0 1 1.47-14.32c.11-.63-.85-.9-1-.27Zm226.31 22.54c0 11.17.08 22.74-3.34 33.5a38.92 38.92 0 0 1-3.76 8.38l.93.25c.06-.47.39-.86.45-1.34.07-.64-.93-.64-1 0-.05.46-.39.85-.45 1.34s.7.64.93.25a45.48 45.48 0 0 0 5.59-15.66 110.13 110.13 0 0 0 1.58-17.39c.07-3.11.07-6.22.07-9.33a.5.5 0 0 0-1 0Z" class="cls-9"/><path d="M74.75 460.78c8.07-4.93 31.38-19.79 31.38-19.79 4.93 6.35 14.94 18.22 14.94 18.22 15.23-10.15 69.76-26.21 86.79-25.32 5.68 16.14 10.09 21.74 10.09 21.74-22.41 5.68-84.93 51.39-109.73 41.83s-33.47-36.68-33.47-36.68Z" class="cls-3"/><path d="M338.56 401.68c.3 20.31 7.77 89.63 24.2 103.67s31.07-9.25 25.69-37.34-26.89-74.4-26.89-74.4c17.63-6.28 23.91-11.95 22.71-18.82s-9.19-27.57-18.82-20.4c-5.6-5.37-12.1-3.36-13.22.9-4.26-6.05-19.72 8.74-5.61 15.91-16.62 4.03-25.77 17.26-8.06 30.48Z" style="fill:#af6445" transform="translate(-149.07 -26.72)"/><path d="M199.48 328.38c1.54-.48 3.18.18 4.53.91a22.43 22.43 0 0 1 4.11 3 18.17 18.17 0 0 1 5.32 8.36 11.13 11.13 0 0 1 .21 6.39.517.517 0 0 0 1 .26c1.2-3.93-.31-8.34-2.39-11.71a21.21 21.21 0 0 0-7.49-7c-1.64-.93-3.64-1.73-5.53-1.14-.61.19-.35 1.15.27 1Zm15.2-1.7c5.47 4.23 9.91 10 10.39 17.13 0 .64 1 .64 1 0-.5-7.38-5-13.43-10.68-17.83-.51-.39-1.22.31-.71.7Zm-17.26 18.28a3.4 3.4 0 0 0 2.52.19 2.55 2.55 0 0 0 1.44-1.57 7.23 7.23 0 0 0-.3-4.83 5.77 5.77 0 0 0-1.38-2.24c-.47-.44-1.18.27-.71.71a6.19 6.19 0 0 1 1.6 3.66 5.53 5.53 0 0 1-.05 2 2.3 2.3 0 0 1-.28.76 1.36 1.36 0 0 1-.48.5 1.45 1.45 0 0 1-.79.19 3.65 3.65 0 0 1-1.3-.32c-.6-.24-.86.73-.27 1Z" class="cls-8"/><path d="M198.81 345.41c1-.18 2-.47 3-.66a8.62 8.62 0 0 1 3 0 .52.52 0 0 0 .61-.35.51.51 0 0 0-.35-.62 10.21 10.21 0 0 0-3.4 0c-1.06.18-2.09.49-3.14.69-.63.11-.36 1.08.27 1Z" class="cls-8"/><path d="M102.28 414.28a81.24 81.24 0 0 0 4.78 13.4c1.18 2.56 2.63 5 3.69 7.62a11 11 0 0 1 .85 3.28l.25-.43-4.51 2.72-10.77 6.52-13 7.88-11.32 6.85c-1.81 1.1-3.73 2.11-5.48 3.32h-.08c-.55.34 0 1.2.5.87l4.51-2.73 10.78-6.52 13-7.88 11.31-6.84 3.73-2.26c.58-.35 1.2-.67 1.75-1.06l.08-.05a.48.48 0 0 0 .25-.43 17.31 17.31 0 0 0-2.2-6.38 103.82 103.82 0 0 1-4.38-9.53 84.48 84.48 0 0 1-2.77-8.65.517.517 0 0 0-1 .26Z" class="cls-11"/><path d="M141.44 326.46a39.83 39.83 0 0 1 7.57-6.39 27.43 27.43 0 0 1 11.43-3.4 69.73 69.73 0 0 1 10.22-.15c.65 0 .65-1 0-1-5.45-.26-11.11-.24-16.4 1.25a24.65 24.65 0 0 0-9.29 5c-1.49 1.25-2.87 2.62-4.24 4a.502.502 0 0 0 .71.71Zm-27.79 138.71a65 65 0 0 1 7.27-5.27 53.84 53.84 0 0 1 9.77-5.13c.59-.23.33-1.2-.27-1a56.39 56.39 0 0 0-10 5.23 68.76 68.76 0 0 0-7.47 5.43c-.49.42.22 1.13.71.71Z" class="cls-8"/></svg>