<svg xmlns="http://www.w3.org/2000/svg" id="Camada_1" data-name="Camada 1" viewBox="0 0 307.71 815"><defs><style>.cls-9{fill:#010101}.cls-3{fill:#974f32}.cls-4{fill:#080606}.cls-7{fill:#e8e7e7}.cls-8{fill:#4f190d}.cls-11{fill:#282e69}.cls-13{fill:#9a3728}</style></defs><ellipse cx="166.38" cy="789.08" rx="129" ry="25.92" style="fill:#6c6c6b"/><path d="M187.46 227.84c-17.9-1.85-38.88-24.07-25.92-39.5-28.4-18.52-17.9-43.82 2.46-46.3-24.68-26.53.85-48.06 17.52-47.44-17.13-28.71 19.83-51 33.87-40.66-7.95-29.71 42.43-44 52.92-23 9.88-21 50-24.07 55.55 1.86 14.82-15.43 43.83-8 43.83 13 18.51-11.11 47.52 4.32 36.41 31.48 23.46 0 44.44 22.22 24.08 48.14 26.54 6.17 30.86 42 7.4 46.91 22.84 16.66 5.56 46.91-24.07 44.44-1.23 35.14-206.15 78.35-224.05 11.07Z" style="stroke:#161616;stroke-miterlimit:10;fill:#010101" transform="translate(-143.67 -13.78)"/><path d="M210.54 629.1c5.78 41.75-2.34 110.72-.45 126.34s17.91 20.84 25 29.31.14 14-14.54 8.29-29.11-10.13-33.09-14c-1.42-1.39-3-4.15-5.34-19.72s-12.73-82.68-17.89-123.59c.75-14.73 46.31-6.63 46.31-6.63Z" class="cls-3"/><path d="M195.73 765.22c3.62-2.39 8.92-7.44 14.83-7.25a22.54 22.54 0 0 0 2.62 6.38c-5.8.14-11.87 3.6-11.84 6.1s10.8 8.94 20 2.85c4.94 4.06 10.35 7.37 13.74 11.41 7.09 8.47.14 14-14.54 8.29s-29.11-10.13-33.09-14c-1.21-1.19-2.55-3.41-4.38-13.82 2.92-.72 9.09 2.44 12.66.04Z" class="cls-4"/><path d="M106.82 631.22c1.39 42.13 14.82 108.79 14.82 124.52s-15.31 22.84-21.31 32.1 1.55 13.89 15.43 6.48 27.69-13.55 31.17-17.9c1.24-1.54 2.47-4.47 2.93-20.21s6-78.7 4.17-119.9c-3.23-14.35-47.21-5.09-47.21-5.09Z" class="cls-3"/><path d="M211.92 502.5c-15.43-39.24-4.33-93.1 73.75-101.75 89.5-3.66 102.77 39.57 102.77 39.57-6.17 4-22.84 14-22.84 14 3.4 17.95 1.55 49.54 2.16 51.87s34.11 126.35 37.81 163.26c-11.27 9-12.65-3.49-28.86 2s-21.14 6-32.25 0-20.36-4-34.71 2-25.93-.5-34.26-1-19.44 5-34.26 5.49-20.83-5.49-29.62-5c.46-12 19-137.66 28.24-162.6a54.49 54.49 0 0 1 8.17-27.1s-23.14 11.28-36.1 19.26Z" style="fill:#1c4e9d" transform="translate(-143.67 -13.78)"/><path d="M273.07 374.2c-.55 11.57-.29 21.28 0 31 .74 24.85 53 22.68 53 0s-1.66-30.55-1.66-30.55Z" style="fill:#833c20" transform="translate(-143.67 -13.78)"/><path d="M55.33 290.6c-14.19-14.82-34.87-14.51-41.66-.62-6 12.31 4.32 37.34 24.07 42.28a31 31 0 0 0 31.17-9.57Zm204-1.86c14.2-14.81 34.88-14.5 41.67-.61 6 12.31-4.33 37.34-24.08 42.28a30.94 30.94 0 0 1-31.16-9.57Z" class="cls-3"/><path d="M154.73 112.84c-69.79 1.46-127 65.44-116 133.93C53.62 340.05 73.29 355.4 106 368.36s124 12.83 147.6-35.26c23.14-47.21 35.1-103 17.82-146.2s-58.09-75.3-116.69-74.06Z" class="cls-3"/><path d="M88.61 267.91c-6.94 6.25-11.8 17.13-6.48 28.24s15.28 12.77 24.08 12.5c12.65-.39 27.08-16.28 12-39-9-10.84-25.66-4.75-29.6-1.74Z" class="cls-7"/><path d="M153.08 308.22a13.59 13.59 0 0 1-3-3.64 3.77 3.77 0 0 1-.44-2.65 3.44 3.44 0 0 1 1.44-1.81 8.91 8.91 0 0 1 2.9-1.16 17.91 17.91 0 0 1 7.47 0c2.05.42 4.46 1.22 5.74 2.9s.58 4-.73 5.76q-.37.48-.78.93c-.44.47.27 1.18.7.7 1.72-1.89 3.36-4.58 2.12-7.16-1-2.15-3.54-3.26-5.71-3.84a19.41 19.41 0 0 0-8.27-.39c-2 .34-4.6 1.16-5.59 3.18-1.22 2.47.71 5.11 2.37 6.83.35.37.72.73 1.1 1.07s1.19-.27.71-.7Z" class="cls-8"/><path d="M82.44 228.52A31.51 31.51 0 0 0 98.98 225a36.52 36.52 0 0 0 10.09-8.21c1.21-1.37 2.32-2.81 3.43-4.25.39-.52-.48-1-.86-.51a53.44 53.44 0 0 1-7 7.76 30.66 30.66 0 0 1-12.31 6.77 31.9 31.9 0 0 1-9.88 1c-.64 0-.64 1 0 1Zm124.68-25.92c8.14 0 16.75 2.79 21.32 10a22.58 22.58 0 0 1 2.89 7.22c.13.63 1.1.37 1-.26a21.73 21.73 0 0 0-6.67-11.81 24.59 24.59 0 0 0-11.3-5.42 34.77 34.77 0 0 0-7.2-.73.5.5 0 0 0 0 1ZM99.18 262.51c-14.85 3.52-16.17 30.79 3.56 34.34 29.08 5.24 26.99-41.58-3.56-34.34Z" class="cls-9"/><path d="M188.54 301c12.73 14.81 9.26-14.2 5.09-32.71-1.85-10.19 7.78-8.52 11.57-22.84 2.09-7.87-3-19.21 3.48-25.23 12.73-.69 17.82-20.6 20.13-23.22 10.65 9.33 27.08-12.42 30.09-13.35 16.9 3.94 32.41-3.93 38-9.49 4.86 3.24 16 13.35 39.35 4.32 6 10.19 17.13 19.21 31.48 14.35C373.24 209.71 378.8 213 391.3 215c6 3.94-4.4 21.07 13 26.16-.23 2.31-5.79 16.43 1.15 21.29s6.72 5.79 5.1 11.57-6 28 .92 28 10.65-20.14 13.66-39.58 3.85-79.39-50.77-116.11-116.69-23.73-159.59 11.15-40.35 69.07-38.77 96.36c1.35 24.53 9.3 42.67 12.54 47.16Z" style="fill:#161616" transform="translate(-143.67 -13.78)"/><path d="M44.52 287.55c1.45 1.68 4.54 5.37 7.2 3.92 2.36-1.29 2.43-5.37 2.52-7.65a81.47 81.47 0 0 0-1.06-14.54c-.39-2.79-.85-5.58-1.38-8.35-.49-2.58-1.3-5.21-1.53-7.83a8.09 8.09 0 0 1 1.22-5.28 27.5 27.5 0 0 1 3.6-4 25.28 25.28 0 0 0 7.24-13.41c.92-5.72-.84-11.49 0-17.21a12.05 12.05 0 0 1 1.3-4.14 8.89 8.89 0 0 1 1.21-1.7c.46-.49.77-.47 1.41-.56a13.58 13.58 0 0 0 5.91-2.44c6.69-4.74 9.12-12.73 12.71-19.68a6 6 0 0 1 .69-1.13h-.71c7.58 6.49 17.33-1.37 23.11-6.57 1.55-1.39 3-2.84 4.56-4.27.55-.52 1.11-1 1.69-1.53a3.39 3.39 0 0 1 1.16-.83 2.93 2.93 0 0 1 .69.18c.51.12 1 .21 1.56.29.92.16 1.85.28 2.78.38a41.72 41.72 0 0 0 6 .17 45.49 45.49 0 0 0 10.8-1.78c5.88-1.71 12-4.52 16.38-8.88l-.6.08a56.65 56.65 0 0 0 9.05 5.43 33.68 33.68 0 0 0 16.75 2.38 54.12 54.12 0 0 0 13.89-3.48l-.56-.23a34.79 34.79 0 0 0 12.94 13.08 23.88 23.88 0 0 0 19.1 1.51l-.61-.35c1.73 5.24 3.77 10.72 7.42 15a21 21 0 0 0 10.51 6.32c1.14.32 2.3.59 3.47.82 1 .2 2.32.15 3 .93a6.65 6.65 0 0 1 1.27 4c.25 3.81-.26 7.65.61 11.42 1.26 5.43 5.42 8.67 10.59 10.23l-.36-.48a27.36 27.36 0 0 1-.89 3.54 48.9 48.9 0 0 0-1.17 5.73c-.5 3.71-.56 8.14 2 11.16s7.9 4.29 7.13 9c-.27 1.61-.82 3.17-1.21 4.76s-.72 3.19-1 4.8a78.73 78.73 0 0 0-1.44 11.75c-.11 2.88-.25 6.67 1.52 9.14 1.47 2.05 4.07 1.72 5.82.21 2.92-2.5 4.26-6.87 5.35-10.4a147.67 147.67 0 0 0 4.1-18.37c.74-4.29 1.51-8.58 2-12.9a117.08 117.08 0 0 0 .69-16.32 128 128 0 0 0-9.49-45.82 114.8 114.8 0 0 0-37.11-47.63 128.12 128.12 0 0 0-68.49-25.78c-23.15-1.46-46.38 3.77-67.18 13.88a154.76 154.76 0 0 0-28.79 18.22c-10 8-19.15 17.14-26.21 27.83a85.92 85.92 0 0 0-11.9 27.15 107 107 0 0 0-2.71 25.29c0 19.59 1.88 39.75 9.71 57.91a35.81 35.81 0 0 0 3.61 6.88c.37.52 1.24 0 .86-.5a36.71 36.71 0 0 1-3.66-7 99.25 99.25 0 0 1-4.43-12.87c-3-10.74-4.16-21.68-4.74-32.77a161.78 161.78 0 0 1 .17-23.61 87.59 87.59 0 0 1 6.41-26c9.15-21.58 27.23-38.54 46.68-51 19.09-12.22 41-20.27 63.62-22.22a124.2 124.2 0 0 1 68.89 14.2c19.57 10.41 36.47 25.56 47.65 44.81a121.53 121.53 0 0 1 15.32 47.36 130.47 130.47 0 0 1 .75 19.06 135.56 135.56 0 0 1-2 17.51c-1 6.26-2.13 12.54-3.73 18.69-1.1 4.25-2.32 9.2-5.17 12.67-1.59 1.94-4.38 3-5.68.19-1.38-2.94-1-6.81-.8-9.95a88.31 88.31 0 0 1 1.7-11.45c.28-1.32.58-2.64.93-3.94a18.7 18.7 0 0 0 1-5c-.05-4.11-4.74-5.68-7.18-8.15-2.94-3-2.56-8-1.92-11.8.29-1.73.7-3.44 1.15-5.13a24.77 24.77 0 0 0 .76-3.17.5.5 0 0 0-.37-.48c-4.81-1.45-8.66-4.39-9.87-9.43-.89-3.71-.35-7.5-.6-11.26a8.76 8.76 0 0 0-1-4 3.8 3.8 0 0 0-1.26-1.38 13.05 13.05 0 0 0-3.34-.7c-4.15-.87-8.25-2.24-11.43-5.16-4.55-4.19-6.84-10.42-8.73-16.14a.51.51 0 0 0-.62-.35 22.87 22.87 0 0 1-18.62-1.57 34 34 0 0 1-12.29-12.55.5.5 0 0 0-.56-.23c-7 2.68-14.6 4.38-22.12 3.34a32 32 0 0 1-12.72-4.79c-1.41-.89-2.74-1.89-4.13-2.82a.5.5 0 0 0-.6.08c-3.81 3.76-8.95 6.3-14 8a43.43 43.43 0 0 1-22.15 1.65c-.88-.18-1.46-.46-2.22 0a10 10 0 0 0-1.21.94c-1.25 1.08-2.43 2.26-3.63 3.39a59.32 59.32 0 0 1-10.66 8.5c-4.23 2.45-9.41 3.84-13.49.35a.5.5 0 0 0-.71 0 11.15 11.15 0 0 0-1.5 2.7c-.72 1.57-1.4 3.15-2.13 4.71a40.38 40.38 0 0 1-7 11 16 16 0 0 1-5.33 3.82 12.1 12.1 0 0 1-3.07.81 2.77 2.77 0 0 0-1.15.22 5.53 5.53 0 0 0-1.36 1.56c-3.19 4.5-2.16 10.65-1.84 15.78a25.66 25.66 0 0 1-.51 8.52 25 25 0 0 1-3.67 7.88c-2.09 2.92-5.39 5-7.08 8.23-2 3.87-.27 8.39.5 12.36a151.45 151.45 0 0 1 2.31 16 59.31 59.31 0 0 1 .23 7.54 14.32 14.32 0 0 1-.71 5.37c-1.7 3.75-5.62-.72-7.08-2.4-.45-.46-1.15.25-.73.73Z" class="cls-9"/><path d="M97.39 488.35a39.59 39.59 0 0 1 11.89-.81c4 .27 8 .92 11.94 1.33 8.1.84 16.22 1 24.35 1.05 8.36 0 16.73.55 25.08.06 4.14-.24 8.28-.9 12.4-1.38s8.21-.91 12.34-1.08 8.39-.09 12.58-.17 8.45-.16 12.67-.2h3.15a.5.5 0 0 0 0-1c-8.44 0-16.88.24-25.31.31s-16.68 1.37-25 2.27-16.75.36-25.09.23-16.4-.12-24.59-.83c-7.87-.69-15.77-2.47-23.69-1.31-1 .15-2 .34-3 .58-.62.14-.36 1.11.27 1Zm25 2.17a225.94 225.94 0 0 0-5.43 23.11 205.22 205.22 0 0 0-2.91 23.84q-.42 6.66-.32 13.36a.5.5 0 0 0 1 0 183.41 183.41 0 0 1 1.23-23.61 214.87 214.87 0 0 1 4.05-23.5q1.49-6.5 3.34-12.89a.517.517 0 0 0-1-.26Z" class="cls-11"/><path d="M136.57 490.34a176.6 176.6 0 0 1-2.79 23.88q-.57 3.3-1.21 6.59c-.12.63.84.9 1 .27a243.28 243.28 0 0 0 3.6-24.15c.2-2.18.35-4.36.43-6.54 0-.64-1-.64-1 0Zm39.26-.06c4.25 6.28 5.23 14.08 7.23 21.23a171.92 171.92 0 0 1 5 25.44c.6 4.81 1 9.65 1.23 14.5 0 .64 1 .64 1 0a187.24 187.24 0 0 0-3-26q-1.2-6.45-2.91-12.78c-1-3.72-1.87-7.48-2.87-11.2a38.47 38.47 0 0 0-4.86-11.71c-.36-.53-1.22 0-.86.5Zm22.83-1.23a96.91 96.91 0 0 1 7.67 24.17 44 44 0 0 1 .58 6.78.5.5 0 0 0 1 0 53.71 53.71 0 0 0-1.7-12.42 101.73 101.73 0 0 0-4-12.65c-.83-2.14-1.72-4.26-2.65-6.36-.26-.58-1.13-.08-.87.51Z" class="cls-11"/><path d="M362.39 434.32a39.5 39.5 0 0 1 3.36 13.44 131.75 131.75 0 0 1 .38 14.6c0 2.61-.1 5.21-.1 7.81a.5.5 0 0 0 1 0c0-9.67.82-19.54-1.3-29.06a34.13 34.13 0 0 0-2.47-7.3c-.28-.58-1.14-.07-.87.51Z" style="fill:#e8650b" transform="translate(-143.67 -13.78)"/><path d="M137.07 763.77c-3.88-1.94-9.75-6.32-15.59-5.42a22.52 22.52 0 0 1-1.84 6.65c5.77-.55 12.21 2.15 12.49 4.63s-9.66 10.18-19.51 5.23c-4.42 4.62-9.4 8.56-12.28 13-6 9.26 1.55 13.89 15.43 6.48s27.69-13.55 31.17-17.9c1.06-1.32 2.12-3.69 2.69-14.25-2.98-.39-8.73 3.49-12.56 1.58Z" class="cls-4"/><path d="M80.76 279.39a19.79 19.79 0 0 1 4.61-8.66 22.21 22.21 0 0 1 10.4-6.2 33.31 33.31 0 0 1 8.89-1.14.5.5 0 0 0 0-1 30.09 30.09 0 0 0-14.67 3.44 21.14 21.14 0 0 0-8.11 8 20.76 20.76 0 0 0-2.08 5.26c-.15.63.81.89 1 .27Z" class="cls-9"/><path d="M228.26 267.91c6.94 6.25 11.8 17.13 6.48 28.24s-15.28 12.77-24.07 12.5c-12.65-.39-27.08-16.28-12-39 8.99-10.84 25.66-4.75 29.59-1.74Z" class="cls-7"/><path d="M223.4 263.82c14.49 4.79 17.76 28.47-1.86 32.57-26.02 5.43-29.85-43.06 1.86-32.57Z" class="cls-9"/><path d="M237.07 279.12a20.82 20.82 0 0 0-4.86-9.1 23.13 23.13 0 0 0-10.88-6.45 34.06 34.06 0 0 0-9.16-1.18.5.5 0 0 0 0 1 29 29 0 0 1 14.17 3.31 20.15 20.15 0 0 1 7.75 7.66 19.81 19.81 0 0 1 2 5c.15.62 1.12.36 1-.27ZM72.33 268.73c3.46 1.57 6.83 3.3 10.62 3.9.63.1.9-.86.26-1-3.7-.59-7-2.27-10.37-3.81-.58-.26-1.09.6-.51.87Z" class="cls-9"/><path d="M233.49 272.02a18.59 18.59 0 0 0 5.4-2.17c1.77-1 3.47-2.08 5.21-3.13a.5.5 0 0 0-.51-.86c-1.68 1-3.33 2.09-5.05 3a18.08 18.08 0 0 1-5.32 2.15c-.63.12-.36 1.09.27 1Z" class="cls-9"/><ellipse cx="101.96" cy="330.1" class="cls-13" rx="18.29" ry="13.19"/><ellipse cx="214.91" cy="329.63" class="cls-13" rx="18.29" ry="13.19"/><path d="M23.98 299.44a5.62 5.62 0 0 1 2.11-3.67 6.43 6.43 0 0 1 4.14-1c4.11.22 7.89 2.88 10.65 5.76a29.86 29.86 0 0 1 5.33 7.87c.28.58 1.14.07.87-.51-2.37-4.94-6-9.58-10.85-12.26-3-1.65-7.19-2.83-10.35-.88a6.44 6.44 0 0 0-2.86 4.47c-.12.63.85.9 1 .26Zm269.88-3.04c-.59-3.59-5.88-3.56-8.59-3.24-4.56.54-8.13 3.27-11 6.72a49.3 49.3 0 0 0-4.48 6.59.5.5 0 0 0 .86.5c2.17-3.71 4.65-7.46 8.1-10.1a14 14 0 0 1 10.31-2.73c1.56.19 3.53.74 3.82 2.53.11.63 1.07.36 1-.27Z" class="cls-8"/><path d="M64.73 157.87c-2.36 4.76-3.23 10.22-3.65 15.47a75.39 75.39 0 0 0 .49 16.92 36.78 36.78 0 0 0 1.72 7.34c.22.6 1.18.34 1-.26a47.88 47.88 0 0 1-2.34-14.1 70.16 70.16 0 0 1 1.13-16.93 32.15 32.15 0 0 1 2.55-7.94c.29-.57-.58-1.08-.86-.5Zm24.95-20.25c-3.52 9.53-4.71 19.63-5 29.73-.08 2.94-.1 5.88-.1 8.83a.5.5 0 0 0 1 0c0-10.07.25-20.22 2.59-30.06a71.49 71.49 0 0 1 2.48-8.23c.22-.61-.74-.87-1-.27Zm29.65-11.69c-2.95 6-3.21 12.82-3.31 19.36 0 1.83-.25 3.66-.41 5.47-.2 2.29-.4 4.59-.41 6.89a16.86 16.86 0 0 0 .2 3 2.21 2.21 0 0 0 .93 1.57c.57.31 1.07-.56.51-.87-.09 0-.14-.1-.22-.29a3.78 3.78 0 0 1-.29-.84 15.42 15.42 0 0 1-.14-2.45c0-2.2.18-4.4.37-6.58.16-1.84.37-3.68.44-5.52.11-2.88.09-5.74.4-8.61a31.38 31.38 0 0 1 2.79-10.63c.28-.57-.58-1.08-.87-.5Zm32.36-5.77a195.56 195.56 0 0 1 1.56 26.06q0 3.64-.17 7.28c0 .65 1 .65 1 0a200.27 200.27 0 0 0-.6-26q-.33-3.64-.79-7.29c-.08-.63-1.08-.63-1 0Zm34.32 2.11c4.05 8.91 4.21 19 4.16 28.65 0 2.71-.06 5.42-.06 8.13a.5.5 0 0 0 1 0c0-9.83.59-19.85-1.63-29.51a41.82 41.82 0 0 0-2.6-7.78c-.27-.58-1.13-.07-.87.51Zm30.09 8.33c4.63 10 6.52 21 7.1 32 .17 3.13.24 6.28.24 9.42a.5.5 0 0 0 1 0c0-11.13-.82-22.4-4.1-33.08a70 70 0 0 0-3.38-8.84c-.27-.58-1.13-.07-.86.51Zm27.73 20.71c2.43 10.48 4.18 21.2 3.93 32a81 81 0 0 1-.69 8.94c-.09.63.87.91 1 .27 1.46-10.71.61-21.55-1.3-32.14-.56-3.13-1.22-6.23-1.94-9.32a.517.517 0 0 0-1 .26Zm18.5 22.22c1.43 8.56 3.21 17 3.75 25.71.38 6.12-.95 12.22-1.54 18.29-.11 1.12-.21 2.24-.35 3.35a8.7 8.7 0 0 1-.17 1 .53.53 0 0 0 0 .17c0 .09 0 0 0 0h.75c-.01 0 0 .1 0 0v-.2c-.14-.63-1.1-.36-1 .27s.86 1 1.19.26a7.53 7.53 0 0 0 .34-2.06c.25-2.11.34-4.24.68-6.33.25-1.53.39-3.07.57-4.61.26-2.2.53-4.4.61-6.61a74.59 74.59 0 0 0-1.1-13.75c-.78-5.28-1.83-10.51-2.71-15.77-.11-.64-1.07-.37-1 .26ZM43.85 187.62c-1.74 9.63-1.86 19.48-1.52 29.24.08 2.46.12 4.92.42 7.36s.74 4.87 1.11 7.3c.41 2.7.53 5.42.83 8.13a23.91 23.91 0 0 0 .42 3.17c.09.37.38.77.82.52s.29-.64.29-1a.5.5 0 0 0-1 0 2 2 0 0 0 0 .34c0 .17 0 0 .11-.15l.35-.15c.3 0 .47.53.41.17 0-.13-.05-.25-.07-.38-.06-.38-.11-.77-.16-1.15-.13-1.08-.25-2.16-.35-3.24-.08-.87-.16-1.73-.2-2.6a50.84 50.84 0 0 0-.76-5.75c-.36-2.25-.76-4.51-1-6.79s-.22-4.42-.22-6.61c-.14-4.43-.17-8.88 0-13.31a105.41 105.41 0 0 1 1.51-14.84c.11-.63-.85-.9-1-.26Zm233.75 23.27c0 11.56.08 23.53-3.47 34.66a39.41 39.41 0 0 1-3.87 8.61l.93.25c.06-.49.41-.89.47-1.39s-.93-.63-1 0c-.06.48-.41.89-.47 1.39s.7.64.94.25a47.33 47.33 0 0 0 5.78-16.24 113.55 113.55 0 0 0 1.61-17.84c.08-3.23.08-6.46.08-9.69a.5.5 0 0 0-1 0Z" class="cls-9"/><path d="M77.2 475.91c8.33-5.09 32.4-20.45 32.4-20.45 5.09 6.57 15.43 18.83 15.43 18.83 15.74-10.49 72.06-27.08 89.65-26.15 5.87 16.66 10.42 22.45 10.42 22.45-23.15 5.87-87.72 53.08-113.34 43.2S77.2 475.91 77.2 475.91Z" class="cls-3"/><path d="M339.37 401c.31 21 8 92.58 25 107.09s32.09-9.56 26.54-38.57-27.78-76.85-27.78-76.85c18.21-6.48 24.69-12.34 23.46-19.44s-9.49-28.47-19.44-21.06c-5.79-5.56-12.5-3.47-13.66.92-4.4-6.25-20.37 9-5.79 16.44-17.12 4.2-26.61 17.86-8.33 31.47Z" style="fill:#af6445" transform="translate(-143.67 -13.78)"/><path d="M206.02 339.14a6.18 6.18 0 0 1 4.64.92 23.13 23.13 0 0 1 4.3 3.12 18.82 18.82 0 0 1 5.51 8.69 11.37 11.37 0 0 1 .21 6.56.518.518 0 0 0 1 .27c1.24-4.05-.31-8.58-2.44-12.05a21.81 21.81 0 0 0-7.74-7.29c-1.68-1-3.76-1.79-5.71-1.18-.61.19-.35 1.15.27 1Zm15.71-1.75c5.65 4.37 10.24 10.36 10.74 17.7 0 .64 1 .65 1 0-.52-7.61-5.16-13.86-11-18.41-.5-.38-1.21.32-.71.71Zm-17.83 18.88a3.61 3.61 0 0 0 2.6.2 2.65 2.65 0 0 0 1.47-1.62 7.49 7.49 0 0 0-.31-5 6 6 0 0 0-1.42-2.31c-.47-.43-1.18.27-.71.71a6.47 6.47 0 0 1 1.66 3.8 5.93 5.93 0 0 1-.05 2.06 2 2 0 0 1-.79 1.31 1.54 1.54 0 0 1-.83.19 3.53 3.53 0 0 1-1.35-.33c-.6-.24-.86.73-.27 1Z" class="cls-8"/><path d="M205.33 356.73c1-.19 2-.48 3.07-.68a9.26 9.26 0 0 1 3.15 0 .518.518 0 0 0 .27-1 10.34 10.34 0 0 0-3.51 0c-1.09.19-2.15.51-3.24.71-.63.11-.37 1.08.26 1Z" class="cls-8"/><path d="M105.65 427.9a84.2 84.2 0 0 0 4.91 13.8c1.22 2.64 2.71 5.16 3.81 7.85a11.49 11.49 0 0 1 .9 3.45l.25-.43-4.65 2.81-11.17 6.76-13.45 8.13-11.67 7.06-3.82 2.31c-.61.37-1.25.71-1.84 1.11l-.08.05a.504.504 0 0 0 .51.87l4.65-2.82 11.16-6.75 13.45-8.14 11.72-7.06 3.82-2.31c.61-.37 1.26-.7 1.84-1.11l.08-.05a.5.5 0 0 0 .25-.43 18 18 0 0 0-2.25-6.56 107.09 107.09 0 0 1-4.57-9.92 89.85 89.85 0 0 1-2.84-8.88.517.517 0 0 0-1 .26Z" class="cls-11"/><path d="M146.06 337.16a41.46 41.46 0 0 1 7.82-6.6 28.23 28.23 0 0 1 11.77-3.51 72.28 72.28 0 0 1 10.61-.16c.64 0 .64-1 0-1-5.63-.27-11.46-.24-16.92 1.29a25.61 25.61 0 0 0-9.59 5.13c-1.55 1.3-3 2.72-4.4 4.14a.502.502 0 0 0 .71.71Zm-28.73 143.27a69.42 69.42 0 0 1 7.51-5.45 56.42 56.42 0 0 1 10.09-5.3c.6-.23.34-1.19-.26-1a57.77 57.77 0 0 0-10.34 5.44 69.24 69.24 0 0 0-7.71 5.61c-.49.41.22 1.12.71.7Z" class="cls-8"/></svg>