<?xml version="1.0" encoding="UTF-8" standalone="no"?>
<svg
   fill="#41ba41"
   viewBox="0 0 448 512"
   version="1.1"
   id="svg1"
   sodipodi:docname="whatsapp-white.svg"
   inkscape:version="1.3.2 (091e20ef0f, 2023-11-25, custom)"
   xmlns:inkscape="http://www.inkscape.org/namespaces/inkscape"
   xmlns:sodipodi="http://sodipodi.sourceforge.net/DTD/sodipodi-0.dtd"
   xmlns="http://www.w3.org/2000/svg"
   xmlns:svg="http://www.w3.org/2000/svg">
  <defs
     id="defs1" />
  <sodipodi:namedview
     id="namedview1"
     pagecolor="#ffffff"
     bordercolor="#000000"
     borderopacity="0.25"
     inkscape:showpageshadow="2"
     inkscape:pageopacity="0.0"
     inkscape:pagecheckerboard="0"
     inkscape:deskcolor="#d1d1d1"
     inkscape:zoom="1.5152289"
     inkscape:cx="217.78888"
     inkscape:cy="291.04514"
     inkscape:window-width="1920"
     inkscape:window-height="1011"
     inkscape:window-x="0"
     inkscape:window-y="0"
     inkscape:window-maximized="1"
     inkscape:current-layer="svg1" />
  <path
     d="M380.9 97.1C339 55.1 283.2 32 223.9 32c-122.4 0-222 99.6-222 222 0 39.1 10.2 77.3 29.6 111L0 480l117.7-30.9c32.4 17.7 68.9 27 106.1 27h.1c122.3 0 224.1-99.6 224.1-222 0-59.3-25.2-115-67.1-157zm-157 341.6c-33.2 0-65.7-8.9-94-25.7l-6.7-4-69.8 18.3L72 359.2l-4.4-7c-18.5-29.4-28.2-63.3-28.2-98.2 0-101.7 82.8-184.5 184.6-184.5 49.3 0 95.6 19.2 130.4 54.1 34.8 34.9 56.2 81.2 56.1 130.5 0 101.8-84.9 184.6-186.6 184.6zm101.2-138.2c-5.5-2.8-32.8-16.2-37.9-18-5.1-1.9-8.8-2.8-12.5 2.8-3.7 5.6-14.3 18-17.6 21.8-3.2 3.7-6.5 4.2-12 1.4-32.6-16.3-54-29.1-75.5-66-5.7-9.8 5.7-9.1 16.3-30.3 1.8-3.7.9-6.9-.5-9.7-1.4-2.8-12.5-30.1-17.1-41.2-4.5-10.8-9.1-9.3-12.5-9.5-3.2-.2-6.9-.2-10.6-.2-3.7 0-9.7 1.4-14.8 6.9-5.1 5.6-19.4 19-19.4 46.3 0 27.3 19.9 53.7 22.6 57.4 2.8 3.7 39.1 59.7 94.8 83.8 35.2 15.2 49 16.5 66.6 13.9 10.7-1.6 32.8-13.4 37.4-26.4 4.6-13 4.6-24.1 3.2-26.4-1.3-2.5-5-3.9-10.5-6.6z"
     id="path1" />
  <path
     style="fill:#1a1a1a;stroke:#f9f9f9;stroke-width:2.2036"
     d="M 1.1285135,477.73959 C 1.3861718,476.78281 8.4134811,451.10434 16.744756,420.67632 L 31.892529,365.35263 25.831896,353.00965 C 15.679651,332.33375 9.4834656,313.50172 5.4368455,291.02307 3.5377265,280.47361 3.2843694,276.10131 3.2837858,253.86667 c -5.799e-4,-22.09561 0.25569,-26.57974 2.0802725,-36.4 C 14.392932,168.87147 35.837704,128.37581 70.120151,95.183221 87.931944,77.937673 105.00526,65.96309 127.4,55.009297 180.22149,29.173063 240.79174,25.512965 296.8,44.772909 c 13.3162,4.579132 35.61418,15.647403 48.06667,23.85933 55.56303,36.641641 93.62545,97.314801 101.23388,161.371201 1.49799,12.6118 1.27923,38.70773 -0.43476,51.86323 -9.57094,73.46036 -56.27434,137.74296 -124.13246,170.85606 -61.28845,29.90726 -131.57948,30.39033 -192.50755,1.32302 l -11.44088,-5.45817 -20.759117,5.47789 c -11.417515,3.01284 -36.929116,9.71906 -56.69245,14.9027 -19.763333,5.18364 -36.7298231,9.66921 -37.7033111,9.96792 -1.3860009,0.42528 -1.66834873,0.16572 -1.3015084,-1.1965 z M 241.86778,438.1608 c 78.24714,-7.87311 143.87517,-63.61596 163.2175,-138.63297 4.41094,-17.10734 5.85507,-30.83416 5.29475,-50.32783 -0.81444,-28.33453 -6.2435,-49.95985 -18.86227,-75.13333 C 365.24388,121.65237 317.65009,84.720713 260.86667,72.68453 245.49425,69.426093 214.89901,68.529836 198.8,70.866348 141.37257,79.201017 94.160864,110.93894 63.692502,161.69195 c -9.575075,15.94978 -17.899955,38.72061 -21.926403,59.97472 -1.713636,9.04564 -2.03636,14.1087 -2.052447,32.2 -0.01987,22.33776 0.767156,29.47744 5.122994,46.47464 4.261729,16.62997 13.389588,37.89226 22.520421,52.45869 l 4.095359,6.53333 -9.245998,33.8691 c -5.0853,18.62801 -9.087096,34.02162 -8.892881,34.208 0.194216,0.1864 15.89312,-3.76448 34.886453,-8.77974 l 34.53333,-9.11865 4.66667,2.74034 c 35.38491,20.77856 75.41183,29.83817 114.46778,25.90842 z"
     id="path2" />
  <path
     style="fill:#1a1a1a;stroke:#f9f9f9;stroke-width:2.2036"
     d="m 269.95253,359.33571 c -20.3464,-3.68818 -50.19394,-16.38378 -69.34539,-29.49592 -28.64005,-19.60859 -62.41323,-56.89341 -77.83165,-85.92435 -15.19924,-28.61828 -14.69394,-56.89714 1.38003,-77.23224 10.10594,-12.78498 15.78005,-15.66075 28.71268,-14.55227 9.80442,0.84036 10.1459,0.98613 12.72272,5.431 3.89269,6.71469 20.40942,47.62309 20.4639,50.68471 0.0668,3.75628 -4.66446,11.5599 -12.20138,20.12445 -7.52672,8.55296 -7.57262,9.87239 -0.72301,20.78255 12.10635,19.28319 26.49741,33.73885 44.97795,45.1799 14.30089,8.85347 29.016,15.99979 32.94547,15.99979 3.45416,0 4.10715,-0.49107 10.73712,-8.07459 3.88262,-4.44103 8.833,-10.5062 11.00084,-13.47815 5.44458,-7.46414 7.03565,-8.20289 13.11044,-6.08736 9.29716,3.23771 48.02195,22.70538 49.07344,24.67012 2.30578,4.30837 0.0799,19.22491 -4.16264,27.89648 -3.39432,6.93773 -11.14019,13.51155 -22.34638,18.96509 -13.02258,6.33748 -23.83305,7.77203 -38.51414,5.11079 z"
     id="path3" />
  <path
     style="fill:#ffffff;stroke:#f9f9f9;stroke-width:1.55818;fill-opacity:1"
     d="m 2.9698484,476.94632 c 0,-0.16964 6.8618308,-25.40116 15.2485126,-56.07004 L 33.466874,365.11467 27.829083,353.48861 C 17.450756,332.08679 12.534414,317.85742 7.7425269,295.35214 L 5.2797305,283.78551 v -29.69848 -29.69848 l 2.1198547,-9.8995 C 11.65841,194.60079 16.695464,178.90488 23.980772,162.8206 41.80396,123.4711 73.758323,87.747529 110.87434,65.677426 164.21133,33.96193 226.06793,25.791669 285.01007,42.676901 c 12.92554,3.702795 20.97965,6.962231 36.9039,14.934715 30.47214,15.255899 54.77084,35.119187 76.13912,62.240904 16.45307,20.88308 28.71406,43.69599 37.20707,69.22783 8.7129,26.19283 11.74758,50.37535 9.98024,79.52961 -3.54083,58.41003 -32.41349,114.62476 -78.61172,153.0561 -34.3716,28.59301 -74.92614,45.85803 -120.46125,51.2832 -10.73985,1.27956 -36.16527,1.09808 -47.51757,-0.33918 -25.94647,-3.28496 -46.14045,-9.24258 -71.14779,-20.98998 l -9.77094,-4.58997 -57.380638,15.11232 C 28.791138,470.45422 2.9698484,477.11597 2.9698484,476.94632 Z M 238.57782,439.85745 c 72.51726,-6.29448 135.09838,-52.47256 160.97736,-118.78384 8.73456,-22.38107 12.14345,-40.6322 12.14177,-65.00668 -0.002,-33.33399 -5.41358,-56.26325 -19.95436,-84.5528 C 381.79794,152.1665 370.29945,136.67488 354.32286,121.0995 332.53083,99.854718 308.02998,85.18741 278.98561,75.999242 260.21002,70.059595 249.3384,68.636496 222.73863,68.636496 c -22.63019,0 -27.04183,0.489316 -44.54773,4.940998 -26.74314,6.800678 -51.18724,19.064608 -71.93632,36.091416 -18.100583,14.85342 -36.406267,37.12419 -47.371669,57.63255 -8.174398,15.2884 -15.687697,37.89232 -18.942097,56.98768 -1.14548,6.72116 -1.332785,10.77419 -1.332785,28.83972 0,22.72416 0.660703,30.55639 3.595648,42.62419 4.77429,19.63075 13.809051,41.46117 23.931942,57.82604 l 3.677855,5.94569 -2.440314,8.98797 c -9.287851,34.20829 -14.767212,55.53752 -14.812662,57.6605 -0.04566,2.13272 0.14953,2.47472 1.411845,2.47377 0.805655,-6e-4 14.53216,-3.42217 30.503345,-7.60347 15.971182,-4.18131 31.060322,-8.10316 33.531412,-8.71522 l 4.49289,-1.11282 3.75669,2.13905 c 36.13713,20.57637 74.98774,29.74342 112.32114,26.50289 z"
     id="path4" />
  <path
     style="fill:#ffffff;fill-opacity:1;stroke:#f9f9f9;stroke-width:1.55818"
     d="m 4.6341586,474.14044 c 0.2383286,-0.75091 7.0511824,-25.62339 15.1396744,-55.27218 l 14.70635,-53.90689 -2.259009,-4.50412 C 19.975312,336.04083 13.988937,319.35324 8.5501251,294.47193 L 6.26968,284.03942 6.279568,253.884 6.289456,223.72858 8.8442461,212.50915 c 5.0468119,-22.1632 9.9098149,-36.4867 18.1494009,-53.45727 20.929097,-43.10637 55.220343,-78.168247 97.410003,-99.5991 22.77843,-11.570637 43.6033,-18.262988 69.29646,-22.269346 8.40585,-1.310733 12.09746,-1.494692 30.35845,-1.512814 16.7708,-0.01664 22.31966,0.209958 28.70854,1.172385 18.89505,2.846372 36.09353,7.270669 49.31788,12.686993 9.28995,3.804904 27.44814,12.895214 35.48779,17.765811 31.08186,18.830084 56.71131,44.750271 76.04421,76.906831 16.50253,27.4488 27.21304,59.02209 30.19133,89.00038 1.00287,10.09458 0.83038,33.00937 -0.3318,44.07612 -7.82469,74.51035 -55.27635,140.68797 -124.63241,173.81639 -20.37507,9.7323 -40.41701,15.85875 -65.18966,19.92729 -7.75215,1.27317 -11.29677,1.44551 -29.59588,1.43885 -18.19308,-0.007 -21.98386,-0.19164 -30.35845,-1.48172 -24.72577,-3.80894 -44.59417,-10.11548 -70.47467,-22.36974 l -5.46798,-2.58906 -13.34105,3.55217 c -25.203848,6.71074 -99.0559244,25.93241 -99.6355888,25.93241 -0.318993,0 -0.3849912,-0.61438 -0.1466626,-1.36529 z M 251.12738,439.31168 c 54.90317,-8.96231 101.67273,-38.71092 131.41657,-83.58984 9.90427,-14.94402 19.38604,-35.82374 24.28533,-53.47845 7.51019,-27.06318 7.76473,-63.96619 0.63943,-92.70409 -3.375,-13.61213 -10.51924,-31.01323 -18.50852,-45.08086 C 367.65003,126.9352 334.73941,97.531516 295.78312,81.210279 271.5048,71.038564 253.11257,67.654674 222.07866,67.649783 c -21.44585,-0.0034 -31.46328,1.368955 -51.02644,6.990352 -21.96305,6.310997 -45.49919,18.488616 -63.80769,33.014155 -7.626582,6.05075 -22.184845,20.789 -29.256991,29.6187 -6.492656,8.1062 -15.349467,21.19338 -19.428625,28.70854 -8.294433,15.28108 -16.585476,40.13764 -19.592053,58.737 -1.417513,8.76906 -1.436639,47.56233 -0.02874,58.30237 2.740569,20.90624 13.8526,50.6938 26.609741,71.33163 l 3.233109,5.23035 -2.234364,8.29896 c -10.070636,37.40474 -14.27207,54.24569 -14.336571,57.46645 l -0.07269,3.62981 3.299831,-0.11946 c 1.814908,-0.0657 17.614712,-3.84549 35.11067,-8.39952 l 31.810843,-8.28006 4.81729,2.74094 c 23.22146,13.21253 50.70898,22.22596 78.07355,25.6011 8.45319,1.04262 36.63261,0.29976 45.87786,-1.20942 z"
     id="path5" />
  <path
     style="fill:#ffffff;fill-opacity:1;stroke:#f9f9f9;stroke-width:1.558;stroke-dasharray:none"
     d="m 275.08109,358.6687 c -16.67372,-2.08612 -44.36717,-12.56793 -64.65648,-24.47211 -37.01027,-21.71473 -82.48157,-74.01358 -93.2049,-107.19969 -7.43884,-23.02143 -4.30219,-43.91045 9.07493,-60.43593 9.09377,-11.23402 13.85113,-13.59035 26.03153,-12.89344 3.93421,0.2251 7.91761,0.7862 8.852,1.2469 2.12496,1.04769 5.5871,7.83387 12.38014,24.26642 8.0357,19.43859 11.07006,28.26718 10.59171,30.81702 -0.49498,2.63851 -6.72666,12.00609 -12.20744,18.35047 -6.54747,7.57916 -6.73157,10.44134 -1.2618,19.61678 8.54013,14.32594 23.32301,30.96357 35.67007,40.14546 14.4444,10.74157 39.28337,23.7298 45.36462,23.72103 3.69767,-0.005 8.53869,-4.72866 20.84897,-20.34212 5.80689,-7.36504 7.17126,-8.44371 10.23112,-8.08876 3.7182,0.43132 39.84577,17.79241 48.76393,23.43349 l 2.89627,1.832 -0.38985,6.69867 c -1.09185,18.76068 -8.38314,28.90951 -27.13837,37.77415 -10.82185,5.11494 -21.01501,6.88483 -31.84645,5.52966 z"
     id="path6" />
</svg>
